<?xml version="1.0" encoding="utf-8"?>
<!-- Generator: Adobe Illustrator 18.0.0, SVG Export Plug-In . SVG Version: 6.00 Build 0)  -->
<!DOCTYPE svg PUBLIC "-//W3C//DTD SVG 1.1//EN" "http://www.w3.org/Graphics/SVG/1.1/DTD/svg11.dtd">
<svg version="1.1" id="Camada_1" xmlns="http://www.w3.org/2000/svg" xmlns:xlink="http://www.w3.org/1999/xlink" x="0px" y="0px"
	 viewBox="0 0 500 114" enable-background="new 0 0 500 114" xml:space="preserve">
<g>
	<g>
		<path fill="#FFFFFF" d="M109.5,62.8c-0.9,1.1-2,2.1-3.1,2.8c-1.1,0.8-2.3,1.4-3.5,1.8c-1.2,0.5-2.4,0.8-3.7,0.9
			c-1.3,0.2-2.5,0.3-3.8,0.3c-2.2,0-4.3-0.4-6.2-1.3c-2-0.8-3.7-2-5.1-3.6c-1.5-1.6-2.6-3.5-3.5-5.8s-1.3-4.9-1.3-7.9
			c0-2.6,0.4-5.1,1.2-7.3c0.8-2.2,1.9-4.2,3.3-5.8c1.5-1.6,3.3-2.9,5.4-3.9c2.2-0.9,4.6-1.4,7.5-1.4c2.9,0,6.7,0.9,11.3,2.6v11h-0.3
			h-0.8H104c-0.9,0-1.5-0.4-1.6-1.3c-0.1-0.6-0.3-2.3-0.6-5.1c-1.8-0.5-3.3-0.7-4.5-0.7c-1.5,0-2.8,0.3-4,0.8
			c-1.2,0.6-2.1,1.3-2.9,2.3c-0.8,1-1.3,2.2-1.7,3.7c-0.4,1.5-0.6,3.1-0.6,5c0,1.9,0.2,3.6,0.6,5.1c0.4,1.5,1,2.8,1.8,3.8
			c0.8,1,1.7,1.8,2.8,2.3s2.3,0.8,3.7,0.8s2.5-0.2,3.3-0.5c0.8-0.3,1.5-0.7,2.1-1.2c0.6-0.4,1.1-0.8,1.5-1.2
			c0.4-0.3,0.9-0.5,1.4-0.5c0.7,0,1.2,0.3,1.6,0.8L109.5,62.8z"/>
		<path fill="#FFFFFF" d="M129,31.7c2.7,0,5.1,0.4,7.3,1.3c2.2,0.9,4,2.1,5.5,3.7c1.5,1.6,2.7,3.5,3.6,5.8c0.8,2.3,1.3,4.8,1.3,7.6
			c0,2.8-0.4,5.4-1.3,7.6c-0.8,2.3-2,4.2-3.6,5.8c-1.5,1.6-3.4,2.8-5.5,3.7c-2.2,0.9-4.6,1.3-7.3,1.3c-2.7,0-5.1-0.4-7.3-1.3
			c-2.2-0.9-4-2.1-5.6-3.7c-1.5-1.6-2.7-3.6-3.6-5.8c-0.8-2.3-1.3-4.8-1.3-7.6c0-2.8,0.4-5.4,1.3-7.6c0.8-2.3,2-4.2,3.6-5.8
			c1.5-1.6,3.4-2.8,5.6-3.7C124,32.2,126.4,31.7,129,31.7L129,31.7z M129,62c3,0,5.2-1,6.6-3c1.4-2,2.2-4.9,2.2-8.8
			s-0.7-6.8-2.1-8.8c-1.4-2-3.6-3-6.6-3c-3,0-5.3,1-6.7,3c-1.4,2-2.2,5-2.2,8.8c0,3.8,0.7,6.8,2.2,8.8C123.8,61,126,62,129,62
			L129,62z"/>
		<path fill="#FFFFFF" d="M208.4,61.7c1.2,0.2,1.7,1,1.7,2.2V68h-5.3h-8.6V45.2c0-2.3-0.5-4-1.5-5.1c-1-1.2-2.5-1.7-4.4-1.7
			c-0.9,0-1.7,0.1-2.5,0.5c-0.8,0.3-1.4,0.7-2,1.3c-0.6,0.6-1,1.3-1.3,2.1c-0.3,0.9-0.5,1.8-0.5,3v15.9c0.9,0.1,1.6,0.2,2.1,0.3
			s0.8,0.2,1,0.2c0.2,0,0.3,0.1,0.4,0.1c1.2,0.2,1.7,1,1.7,2.2V68H184h-8.7V45.3c0-2.4-0.5-4.2-1.5-5.2c-1-1.1-2.4-1.6-4.3-1.6
			c-1.2,0-2.4,0.3-3.5,0.9c-1.1,0.6-2.1,1.5-3,2.5v19.3c0.9,0.1,1.6,0.2,2.1,0.3c0.5,0.1,0.8,0.2,1,0.2c0.2,0,0.3,0.1,0.4,0.1
			c1.2,0.2,1.7,1,1.7,2.2v4.1h-5.3h-8.6h-5.3V64c0-1.2,0.6-2,1.7-2.2c0.1,0,0.2-0.1,0.4-0.1c0.2,0,0.5-0.1,1-0.2
			c0.5-0.1,1.2-0.2,2.1-0.3V39.2c-0.9-0.1-1.6-0.2-2.1-0.3c-0.5-0.1-0.8-0.2-1-0.2c-0.2,0-0.3-0.1-0.4-0.1c-1.2-0.2-1.7-1-1.7-2.2
			v-4.1h5.3h5.3c1.1,0,1.8,0.5,2.2,1.6l0.6,2.7c0.6-0.7,1.3-1.3,2-1.9c0.7-0.6,1.4-1.1,2.2-1.5c0.8-0.4,1.6-0.7,2.5-1
			c0.9-0.2,1.9-0.4,3-0.4c2.3,0,4.1,0.6,5.6,1.8c1.5,1.2,2.5,2.8,3.3,4.9c0.6-1.2,1.3-2.2,2.1-3c0.8-0.8,1.7-1.5,2.8-2.1
			c1-0.5,2.1-0.9,3.2-1.2c1.1-0.2,2.2-0.4,3.4-0.4c2,0,3.7,0.3,5.3,0.9s2.8,1.5,3.9,2.6c1,1.2,1.8,2.6,2.4,4.3
			c0.6,1.7,0.8,3.6,0.8,5.8v15.9c0.9,0.1,1.6,0.2,2.1,0.3s0.8,0.2,1,0.2c0.2,0,0.3,0.1,0.4,0.1V61.7z"/>
		<path fill="#FFFFFF" d="M229.2,61.7c1.2,0.2,1.7,1,1.7,2.2V68h-5.3h-8.6V45.2c0-2.3-0.5-4-1.5-5.1s-2.5-1.7-4.4-1.7
			c-0.9,0-1.7,0.1-2.5,0.5c-0.8,0.3-1.4,0.7-2,1.3c-0.6,0.6-1,1.3-1.3,2.1c-0.3,0.9-0.5,1.8-0.5,3c0,0-2.1-3.3-3-6.8
			c0.6-1.2,1.3-2.2,2.1-3c0.8-0.8,1.7-1.5,2.8-2.1c1-0.5,2.1-0.9,3.2-1.2c1.1-0.2,2.2-0.4,3.4-0.4c2,0,3.7,0.3,5.3,0.9
			c1.5,0.6,2.8,1.5,3.9,2.6c1,1.2,1.8,2.6,2.4,4.3c0.6,1.7,0.8,3.6,0.8,5.8v15.9c0.9,0.1,1.6,0.2,2.1,0.3c0.5,0.1,0.8,0.2,1,0.2
			c0.2,0,0.3,0.1,0.4,0.1V61.7z"/>
		<path fill="#FFFFFF" d="M250,61.7c1.2,0.2,1.7,1,1.7,2.2V68h-5.3h-8.6V45.2c0-2.3-0.5-4-1.5-5.1s-2.5-1.7-4.4-1.7
			c-0.9,0-1.7,0.1-2.5,0.5c-0.8,0.3-1.4,0.7-2,1.3c-0.6,0.6-1,1.3-1.3,2.1s-0.5,1.8-0.5,3c0,0-2.1-3.3-3-6.8c0.6-1.2,1.3-2.2,2.1-3
			c0.8-0.8,1.7-1.5,2.8-2.1c1-0.5,2.1-0.9,3.2-1.2c1.1-0.2,2.2-0.4,3.4-0.4c2,0,3.7,0.3,5.3,0.9c1.5,0.6,2.8,1.5,3.9,2.6
			c1,1.2,1.8,2.6,2.4,4.3c0.6,1.7,0.8,3.6,0.8,5.8v15.9c0.9,0.1,1.6,0.2,2.1,0.3s0.8,0.2,1,0.2c0.2,0,0.3,0.1,0.4,0.1V61.7z"/>
		<path fill="#FFFFFF" d="M294.2,61.9c1.2,0.2,1.7,1,1.7,2.2v4.1h-5.3h-5.3c-1.1,0-1.8-0.5-2.2-1.6l-0.6-2.9c-0.7,0.7-1.5,1.4-2.3,2
			c-0.8,0.6-1.6,1.2-2.5,1.6c-0.9,0.4-1.9,0.8-2.9,1c-1,0.2-2.2,0.4-3.4,0.4c-2,0-3.7-0.3-5.2-1c-1.5-0.7-2.8-1.6-3.8-2.8
			c-1-1.2-1.8-2.7-2.3-4.3c-0.5-1.7-0.8-3.5-0.8-5.5V39.3c-3-0.5-3-0.5-3.5-0.6c-1.2-0.2-1.7-1-1.7-2.2v-4.1h5.3h8.6v22.7
			c0,2.2,0.5,3.9,1.5,5.1c1,1.2,2.5,1.8,4.6,1.8c1.5,0,2.9-0.3,4.2-1c1.3-0.7,2.5-1.6,3.7-2.7v-19c-3-0.5-3-0.5-3.5-0.6
			c-1.2-0.2-1.7-1-1.7-2.2v-4.1h5.3h8.6v28.9C293.6,61.7,293.6,61.7,294.2,61.9L294.2,61.9z"/>
		<path fill="#FFFFFF" d="M338.5,61.8c1.2,0.2,1.7,1,1.7,2.2v4.1H335h-8.6V45.3c0-2.2-0.5-3.9-1.5-5.1c-1-1.2-2.5-1.8-4.5-1.8
			c-1.5,0-2.9,0.3-4.2,1c-1.3,0.7-2.5,1.6-3.7,2.7v19c0.9,0.1,1.6,0.2,2.1,0.3c0.5,0.1,0.8,0.2,1,0.2c0.2,0,0.3,0.1,0.4,0.1
			c1.2,0.2,1.7,1,1.7,2.2v4.1h-5.3h-8.6h-5.3V64c0-1.2,0.6-2,1.7-2.2c0.1,0,0.2-0.1,0.4-0.1c0.2,0,0.5-0.1,1-0.2s1.2-0.2,2.1-0.3
			V39.2c-0.9-0.1-1.6-0.2-2.1-0.3s-0.8-0.2-1-0.2c-0.2,0-0.3-0.1-0.4-0.1c-1.2-0.2-1.7-1-1.7-2.2v-4.1h5.3h5.3
			c1.1,0,1.8,0.5,2.2,1.6l0.6,2.8c0.7-0.7,1.5-1.4,2.3-2c0.8-0.6,1.6-1.1,2.5-1.6c0.9-0.5,1.9-0.8,2.9-1c1-0.2,2.1-0.3,3.4-0.3
			c2,0,3.7,0.3,5.2,1c1.5,0.7,2.8,1.6,3.8,2.8c1,1.2,1.8,2.6,2.3,4.3c0.5,1.7,0.8,3.5,0.8,5.5v15.9c0.9,0.1,1.6,0.2,2.1,0.3
			s0.8,0.2,1,0.2C338.3,61.8,338.4,61.8,338.5,61.8L338.5,61.8z"/>
		<path fill="#FFFFFF" d="M360.3,61.9c1.2,0.2,1.7,1,1.7,2.2v4.1h-5.3h-8.6h-5.3v-4.1c0-1.2,0.6-2,1.7-2.2c0.1,0,0.2-0.1,0.4-0.1
			c0.2,0,0.5-0.1,1-0.2s1.2-0.2,2.1-0.3V39.2c-0.9-0.1-1.6-0.2-2.1-0.3c-0.5-0.1-0.8-0.2-1-0.2c-0.2,0-0.3-0.1-0.4-0.1
			c-1.2-0.2-1.7-1-1.7-2.2v-4.1h5.3h8.6v28.9c0.9,0.1,1.6,0.2,2.1,0.3s0.8,0.2,1,0.2C360,61.8,360.2,61.8,360.3,61.9L360.3,61.9z
			 M358,21.9c0,0.7-0.1,1.4-0.5,2.1c-0.3,0.7-0.7,1.2-1.2,1.7s-1.1,0.9-1.7,1.2c-0.7,0.3-1.4,0.4-2.2,0.4c-0.7,0-1.4-0.1-2.1-0.4
			c-0.7-0.3-1.2-0.7-1.7-1.2s-0.9-1-1.2-1.7c-0.3-0.7-0.4-1.4-0.4-2.1c0-0.8,0.1-1.5,0.4-2.2c0.3-0.7,0.7-1.3,1.2-1.7
			c0.5-0.5,1.1-0.9,1.7-1.2c0.7-0.3,1.4-0.4,2.1-0.4c0.8,0,1.5,0.1,2.2,0.4c0.7,0.3,1.3,0.7,1.7,1.2c0.5,0.5,0.9,1.1,1.2,1.7
			C358,20.4,358.1,21.1,358,21.9L358,21.9z"/>
		<path fill="#FFFFFF" d="M394.6,62.8c-0.9,1.1-2,2.1-3.1,2.8c-1.1,0.8-2.3,1.4-3.5,1.8c-1.2,0.5-2.4,0.8-3.7,0.9
			c-1.3,0.2-2.5,0.3-3.8,0.3c-2.2,0-4.3-0.4-6.2-1.3c-2-0.8-3.7-2-5.1-3.6c-1.5-1.6-2.6-3.5-3.5-5.8c-0.8-2.3-1.3-4.9-1.3-7.9
			c0-2.6,0.4-5.1,1.2-7.3c0.8-2.2,1.9-4.2,3.3-5.8c1.5-1.6,3.3-2.9,5.4-3.9c2.2-0.9,4.6-1.4,7.5-1.4c2.9,0,6.7,0.9,11.3,2.6v11h-0.3
			h-0.8H389c-0.9,0-1.5-0.4-1.6-1.3c-0.1-0.6-0.3-2.3-0.6-5.1c-1.8-0.5-3.3-0.7-4.5-0.7c-1.5,0-2.8,0.3-4,0.8
			c-1.2,0.6-2.1,1.3-2.9,2.3c-0.8,1-1.3,2.2-1.7,3.7c-0.4,1.5-0.6,3.1-0.6,5c0,1.9,0.2,3.6,0.6,5.1c0.4,1.5,1,2.8,1.8,3.8
			c0.8,1,1.7,1.8,2.8,2.3s2.3,0.8,3.7,0.8c1.4,0,2.5-0.2,3.3-0.5c0.8-0.3,1.5-0.7,2.1-1.2c0.6-0.4,1.1-0.8,1.5-1.2
			c0.4-0.3,0.9-0.5,1.4-0.5c0.7,0,1.2,0.3,1.6,0.8L394.6,62.8z"/>
		<path fill="#FFFFFF" d="M428.6,61.7c1.2,0.2,1.7,1,1.7,2.2V68H426h-0.9h-2.9c-0.8,0-1.4-0.1-1.9-0.4c-0.5-0.2-0.8-0.7-1-1.5
			l-0.8-2.5c-0.9,0.8-1.8,1.5-2.7,2.1c-0.9,0.6-1.8,1.2-2.7,1.6c-0.9,0.4-1.9,0.7-3,0.9c-1,0.2-2.2,0.3-3.5,0.3
			c-1.5,0-2.9-0.2-4.2-0.6c-1.3-0.4-2.4-1-3.3-1.8c-0.9-0.8-1.6-1.8-2.1-3c-0.5-1.2-0.8-2.6-0.8-4.2c0-1.4,0.3-2.7,1-4
			c0.7-1.3,1.9-2.5,3.5-3.6c1.6-1,3.8-1.9,6.6-2.6c2.8-0.7,6.2-1,10.3-1v-2.1c0-2.4-0.5-4.2-1.5-5.3c-1-1.2-2.5-1.7-4.4-1.7
			c-1.4,0-2.5,0.2-3.5,0.5c-0.9,0.3-1.7,0.7-2.4,1.1c-0.7,0.4-1.3,0.8-1.9,1.1c-0.6,0.3-1.2,0.5-1.9,0.5c-0.6,0-1.1-0.1-1.5-0.5
			c-0.4-0.3-0.8-0.7-1-1.2l-1.6-2.8c4.1-3.8,9.1-5.7,14.9-5.7c2.1,0,3.9,0.3,5.6,1c1.6,0.7,3,1.6,4.2,2.9c1.2,1.2,2,2.7,2.6,4.4
			c0.6,1.7,0.9,3.6,0.9,5.6v15.9c0.8,0.1,1.4,0.2,1.8,0.3C428.3,61.7,428.6,61.8,428.6,61.7L428.6,61.7z M417.6,52.8
			c-2.5,0-4.6,0.2-6.3,0.5c-1.7,0.3-3,0.7-4,1.2c-1,0.5-1.7,1-2.2,1.7c-0.4,0.7-0.6,1.4-0.6,2.1c0,1.5,0.5,2.6,1.4,3.3
			c0.9,0.7,2.1,1,3.5,1c0.9,0,1.7-0.1,2.4-0.2c0.7-0.2,1.4-0.4,2.1-0.7c0.7-0.3,1.3-0.7,1.9-1.2c0.6-0.5,1.3-1,1.9-1.6L417.6,52.8z"
			/>
		<path fill="#FFFFFF" d="M456.8,31.7c1.8,0,3.2,0.4,4.4,1.2l-1.1,6.5c-0.1,0.4-0.2,0.7-0.5,0.9c-0.2,0.2-0.6,0.3-0.9,0.3
			c-0.3,0-0.8-0.1-1.4-0.2c-0.6-0.2-1.4-0.2-2.4-0.2c-1.8,0-3.3,0.5-4.6,1.5c-1.3,1-2.4,2.4-3.2,4.3v15.4c3,0.5,3,0.5,3.5,0.6
			c1.2,0.2,1.7,1,1.7,2.2v4.1H447h-8.6h-5.3V64c0-1.2,0.6-2,1.7-2.2c0.5-0.1,0.6-0.1,3.5-0.6V39.2c-3-0.5-3-0.5-3.5-0.6
			c-1.2-0.2-1.7-1-1.7-2.2v-4.1h5.3h5.1c0.9,0,1.5,0.2,1.8,0.5c0.3,0.3,0.6,0.9,0.7,1.7l0.5,4.3c1.3-2.2,2.8-3.9,4.5-5.2
			C452.7,32.3,454.6,31.6,456.8,31.7L456.8,31.7z"/>
		<path fill="#FFFFFF" d="M480.3,31.7c2.3,0,4.4,0.3,6.2,1.1c1.9,0.7,3.5,1.8,4.9,3.2c1.4,1.4,2.4,3.1,3.2,5.1
			c0.8,2,1.2,4.3,1.2,6.9c0,0.7,0,1.2-0.1,1.6c-0.1,0.4-0.2,0.8-0.3,1c-0.1,0.2-0.3,0.4-0.6,0.5s-0.6,0.1-0.9,0.1h-22.1
			c0.2,3.7,1.2,6.3,2.9,8.1c1.7,1.7,4,2.6,6.8,2.6c1.4,0,2.6-0.2,3.6-0.5c1-0.3,1.9-0.7,2.7-1c0.8-0.4,1.4-0.7,2-1
			c0.6-0.3,1.1-0.5,1.6-0.5c0.3,0,0.7,0.1,0.9,0.2c0.2,0.1,0.5,0.3,0.6,0.6l2.5,3.1c-0.9,1.1-2,2.1-3.2,2.8s-2.4,1.4-3.7,1.8
			c-1.3,0.5-2.6,0.8-3.9,0.9c-1.3,0.2-2.6,0.3-3.9,0.3c-2.5,0-4.8-0.4-6.9-1.3c-2.1-0.8-4-2.1-5.5-3.7c-1.6-1.6-2.8-3.6-3.7-6
			c-0.9-2.4-1.4-5.1-1.4-8.3c0-2.4,0.4-4.7,1.2-6.9c0.8-2.2,2-4,3.4-5.7s3.3-2.9,5.4-3.8C475.3,32.2,477.7,31.7,480.3,31.7
			L480.3,31.7z M480.5,37.8c-2.5,0-4.5,0.7-5.9,2.1c-1.4,1.4-2.3,3.5-2.7,6.1H488c0-1.1-0.1-2.2-0.5-3.1c-0.3-1-0.8-1.8-1.4-2.6
			c-0.6-0.7-1.4-1.3-2.4-1.7c-0.9-0.4-2.1-0.6-3.4-0.6V37.8z"/>
	</g>
	<g>
		<path fill="#FFFFFF" d="M95.7,99c-0.3,0.4-0.7,0.7-1.2,1c-0.5,0.3-1,0.6-1.5,0.8c-0.6,0.2-1.2,0.4-1.8,0.5c-0.6,0.1-1.3,0.2-2,0.2
			c-1.1,0-2.2-0.2-3.1-0.6c-0.9-0.4-1.6-1-2.2-1.8c-0.6-0.8-1-1.8-1.2-2.9c-0.2-1.1-0.3-2.4-0.1-3.9c0.2-1.4,0.5-2.6,1-3.8
			c0.5-1.1,1.1-2.1,1.9-2.9c0.8-0.8,1.7-1.5,2.8-1.9c1.1-0.5,2.2-0.7,3.5-0.7c0.4,0,1,0.1,1.9,0.3c0.8,0.2,1.5,0.4,2.1,0.6l0.9,0.3
			l-0.6,4.5h-0.9c-0.5,0-0.7-0.3-0.7-0.9c0-0.1,0-0.2,0-0.4c0-0.2,0-0.6,0-1c0-0.4,0-0.9,0.1-1.4c-1.1-0.4-2.1-0.6-3-0.6
			c-1,0-2,0.2-2.8,0.6c-0.8,0.4-1.6,0.9-2.2,1.6c-0.6,0.7-1.2,1.5-1.6,2.5c-0.4,1-0.7,2.1-0.8,3.3c-0.2,1.3-0.1,2.4,0,3.4
			c0.2,1,0.5,1.8,1,2.5c0.5,0.7,1.1,1.2,1.8,1.5c0.7,0.3,1.6,0.5,2.5,0.5c0.9,0,1.6-0.1,2.2-0.3s1.1-0.4,1.5-0.7
			c0.4-0.2,0.7-0.5,1-0.7c0.2-0.2,0.4-0.3,0.6-0.3c0.2,0,0.3,0.1,0.3,0.2L95.7,99z"/>
		<path fill="#FFFFFF" d="M113.4,83.7c1,0.4,1.7,1.1,2.3,1.9c0.6,0.8,1,1.8,1.2,2.9c0.2,1.1,0.3,2.4,0.1,3.8c-0.2,1.4-0.5,2.7-1,3.8
			c-0.5,1.1-1.2,2.1-2,2.9c-0.8,0.8-1.7,1.4-2.8,1.9c-1.1,0.4-2.3,0.7-3.5,0.7c-1.3,0-2.4-0.2-3.4-0.7c-1-0.4-1.8-1.1-2.4-1.9
			c-0.6-0.8-1-1.8-1.3-2.9c-0.2-1.1-0.3-2.4-0.1-3.8c0.2-1.4,0.5-2.7,1-3.8c0.5-1.1,1.2-2.1,2-2.9c0.8-0.8,1.7-1.4,2.8-1.9
			c1.1-0.4,2.3-0.7,3.5-0.7S112.4,83.3,113.4,83.7z M110.8,99.7c0.8-0.4,1.6-0.9,2.2-1.6c0.6-0.7,1.1-1.5,1.5-2.5
			c0.4-1,0.7-2.1,0.8-3.3c0.1-1.2,0.1-2.3,0-3.3c-0.1-1-0.4-1.8-0.9-2.5c-0.5-0.7-1.1-1.2-1.8-1.6c-0.8-0.4-1.7-0.6-2.7-0.6
			c-1.1,0-2,0.2-2.9,0.6c-0.8,0.4-1.6,0.9-2.2,1.6c-0.6,0.7-1.1,1.5-1.5,2.5c-0.4,1-0.7,2.1-0.8,3.3c-0.1,1.2-0.1,2.3,0,3.3
			c0.2,1,0.5,1.8,0.9,2.5s1.1,1.2,1.8,1.6c0.8,0.4,1.7,0.6,2.7,0.6C109,100.2,109.9,100.1,110.8,99.7z"/>
		<path fill="#FFFFFF" d="M148.2,100.6l-0.1,0.7h-2.6h-1.7l1.4-11.5c0.2-1.8,0-3.1-0.6-4c-0.6-0.9-1.7-1.4-3.1-1.4
			c-0.6,0-1.2,0.1-1.8,0.3c-0.6,0.2-1.1,0.6-1.6,1c-0.5,0.5-0.9,1-1.3,1.7c-0.3,0.7-0.6,1.5-0.7,2.4l-0.7,5.9l-0.7,5.6h0h-1.7
			l1.4-11.5c0.2-1.7,0-3.1-0.6-4c-0.6-0.9-1.5-1.4-2.9-1.4c-1,0-1.9,0.3-2.8,0.9c-0.9,0.6-1.7,1.4-2.5,2.4l-1,8.5l-0.3,2.3l-0.2,1.3
			l-0.2,1.4h-1.7h0l0.2-1.4l1.9-15.1c-0.3,0-0.6,0-0.9,0c-0.3,0-0.4,0-0.5,0c-0.1,0-0.2,0-0.3,0c-0.1,0-0.1,0-0.2,0
			c-0.5,0-0.7-0.2-0.6-0.6l0.1-0.7h2.6l0.9,0c0.3,0,0.5,0.1,0.5,0.5l-0.2,2.6c0.4-0.5,0.8-0.9,1.3-1.4c0.4-0.4,0.9-0.8,1.4-1.1
			c0.5-0.3,1-0.5,1.5-0.7c0.5-0.2,1.1-0.2,1.6-0.2c1.3,0,2.3,0.4,3,1.1c0.7,0.8,1.1,1.8,1.2,3.2c0.3-0.7,0.7-1.4,1.1-1.9
			c0.5-0.5,1-1,1.5-1.3c0.6-0.4,1.1-0.6,1.8-0.8c0.6-0.2,1.2-0.3,1.9-0.3c0.9,0,1.7,0.1,2.3,0.4c0.7,0.3,1.2,0.7,1.7,1.3
			c0.4,0.6,0.7,1.3,0.9,2.1c0.2,0.8,0.2,1.8,0,2.9l-1.2,10.1c0.3,0,0.6,0,0.9,0c0.3,0,0.4,0,0.5,0c0.1,0,0.2,0,0.3,0
			c0.1,0,0.1,0,0.2,0C148.1,100,148.3,100.2,148.2,100.6z"/>
		<path fill="#FFFFFF" d="M170.3,100.6l-0.1,0.7h-2.6h-0.9c-0.3,0-0.5-0.2-0.5-0.5l0.2-2.7c-1,1-2,1.9-3.2,2.5
			c-1.2,0.6-2.4,0.9-3.8,0.9c-1,0-1.9-0.2-2.6-0.5c-0.7-0.3-1.3-0.8-1.7-1.4c-0.4-0.6-0.7-1.3-0.9-2.1c-0.2-0.8-0.2-1.8,0-2.8
			l1.2-10.1c-0.3,0-0.6,0-0.9,0c-0.3,0-0.4,0-0.5,0c-0.1,0-0.2,0-0.3,0c-0.1,0-0.1,0-0.2,0c-0.5,0-0.7-0.2-0.6-0.6l0.1-0.7h2.6
			l1.7,0L156,94.9c-0.2,1.7,0,3,0.7,4c0.7,1,1.8,1.4,3.4,1.4c1.2,0,2.3-0.3,3.4-0.9c1.1-0.6,2.1-1.4,3-2.5l1.5-12.1
			c-0.3,0-0.6,0-0.9,0c-0.3,0-0.4,0-0.5,0c-0.1,0-0.2,0-0.3,0c-0.1,0-0.1,0-0.2,0c-0.5,0-0.7-0.2-0.6-0.6l0.1-0.7h2.6l1.7,0l-2,16.6
			c0.3,0,0.6,0,0.9,0c0.3,0,0.4,0,0.5,0c0.1,0,0.2,0,0.3,0c0.1,0,0.1,0,0.2,0C170.2,100,170.4,100.2,170.3,100.6z"/>
		<path fill="#FFFFFF" d="M192.7,100.6l-0.1,0.7H190h-1.7l1.4-11.5c0.2-1.7,0-3-0.7-4c-0.7-1-1.8-1.4-3.4-1.4
			c-1.2,0-2.3,0.3-3.4,0.9s-2.1,1.4-3,2.5L178,98l-0.4,3.4h-1.7h0l0.2-1.4l1.9-15.1c-0.3,0-0.6,0-0.9,0c-0.3,0-0.4,0-0.5,0
			c-0.1,0-0.2,0-0.3,0c-0.1,0-0.1,0-0.2,0c-0.5,0-0.7-0.2-0.6-0.6l0.1-0.7h2.6l0.9,0c0.3,0,0.5,0.2,0.5,0.5l-0.2,2.7
			c0.9-1,2-1.9,3.2-2.5c1.2-0.6,2.4-1,3.8-1c1,0,1.8,0.2,2.6,0.5c0.7,0.3,1.3,0.8,1.7,1.4c0.4,0.6,0.7,1.3,0.9,2.1
			c0.2,0.8,0.2,1.8,0,2.8l-1.2,10.1c0.3,0,0.6,0,0.9,0c0.3,0,0.4,0,0.5,0c0.1,0,0.2,0,0.3,0c0.1,0,0.1,0,0.2,0
			C192.6,100,192.8,100.2,192.7,100.6z"/>
		<path fill="#FFFFFF" d="M202.5,100.6l-0.1,0.7h-2.6h-1.7l0.4-2.9l1.7-13.7c-0.3,0-0.6,0-0.9,0c-0.3,0-0.4,0-0.5,0
			c-0.1,0-0.2,0-0.3,0s-0.1,0-0.2,0c-0.5,0-0.7-0.2-0.6-0.6l0.1-0.7h2.6h1.7l-2,16.6c0.3,0,0.6,0,0.9,0c0.3,0,0.4,0,0.5,0
			c0.1,0,0.2,0,0.3,0c0.1,0,0.1,0,0.2,0C202.4,100,202.6,100.2,202.5,100.6z M200.4,77.8c-0.1-0.2-0.1-0.4-0.1-0.6
			c0-0.2,0.1-0.4,0.2-0.6c0.1-0.2,0.2-0.4,0.4-0.5c0.2-0.1,0.3-0.3,0.5-0.3c0.2-0.1,0.4-0.1,0.6-0.1s0.4,0,0.6,0.1
			c0.2,0.1,0.3,0.2,0.5,0.3c0.1,0.1,0.2,0.3,0.3,0.5c0.1,0.2,0.1,0.4,0.1,0.6c0,0.2-0.1,0.4-0.2,0.6c-0.1,0.2-0.3,0.4-0.4,0.5
			c-0.2,0.1-0.3,0.3-0.5,0.3c-0.2,0.1-0.4,0.1-0.6,0.1c-0.2,0-0.4,0-0.6-0.1s-0.3-0.2-0.5-0.3C200.6,78.1,200.5,77.9,200.4,77.8z"/>
		<path fill="#FFFFFF" d="M220.3,99c-0.3,0.4-0.7,0.7-1.2,1c-0.5,0.3-1,0.6-1.5,0.8c-0.6,0.2-1.2,0.4-1.8,0.5
			c-0.6,0.1-1.3,0.2-2,0.2c-1.1,0-2.2-0.2-3.1-0.6c-0.9-0.4-1.6-1-2.2-1.8c-0.6-0.8-1-1.8-1.2-2.9c-0.2-1.1-0.3-2.4-0.1-3.9
			c0.2-1.4,0.5-2.6,1-3.8c0.5-1.1,1.1-2.1,1.9-2.9c0.8-0.8,1.7-1.5,2.8-1.9c1.1-0.5,2.2-0.7,3.5-0.7c0.4,0,1,0.1,1.9,0.3
			c0.8,0.2,1.5,0.4,2.1,0.6l0.9,0.3l-0.6,4.5H220c-0.5,0-0.7-0.3-0.7-0.9c0-0.1,0-0.2,0-0.4c0-0.2,0-0.6,0-1c0-0.4,0-0.9,0.1-1.4
			c-1.1-0.4-2.1-0.6-3-0.6c-1,0-2,0.2-2.8,0.6c-0.8,0.4-1.6,0.9-2.2,1.6c-0.6,0.7-1.2,1.5-1.6,2.5c-0.4,1-0.7,2.1-0.8,3.3
			c-0.2,1.3-0.1,2.4,0,3.4c0.2,1,0.5,1.8,1,2.5c0.5,0.7,1.1,1.2,1.8,1.5c0.7,0.3,1.6,0.5,2.5,0.5c0.9,0,1.6-0.1,2.2-0.3
			c0.6-0.2,1.1-0.4,1.5-0.7c0.4-0.2,0.7-0.5,1-0.7c0.2-0.2,0.4-0.3,0.6-0.3c0.2,0,0.3,0.1,0.3,0.2L220.3,99z"/>
		<path fill="#FFFFFF" d="M240.3,100.6l-0.1,0.7h-2.4l-0.4,0H237c-0.2,0-0.4-0.1-0.5-0.2c-0.1-0.1-0.1-0.2-0.1-0.4l0.6-5.7
			c-0.5,1-1,1.8-1.5,2.6c-0.5,0.8-1.1,1.5-1.8,2c-0.6,0.6-1.3,1-2,1.3c-0.7,0.3-1.4,0.5-2.1,0.5c-0.8,0-1.4-0.1-2-0.4
			c-0.6-0.3-1-0.7-1.4-1.3c-0.4-0.5-0.7-1.2-0.9-2c-0.2-0.8-0.3-1.6-0.3-2.6c0-1,0.1-2.1,0.4-3.1c0.3-1,0.6-2,1.1-2.9
			c0.5-0.9,1.1-1.7,1.7-2.5c0.7-0.8,1.4-1.4,2.2-2c0.8-0.6,1.7-1,2.6-1.3c0.9-0.3,1.9-0.5,2.9-0.5c0.7,0,1.4,0.1,2,0.2
			c0.6,0.1,1.2,0.3,1.9,0.7l-1.9,16l0,0c0.3,0,0.6,0,0.8,0c0.3,0,0.5,0,0.6,0c0.1,0,0.2,0,0.3,0C240.2,100,240.4,100.2,240.3,100.6z
			 M237.3,92.1l0.9-7.3c-0.7-0.2-1.5-0.4-2.3-0.4c-0.8,0-1.6,0.1-2.4,0.4c-0.8,0.3-1.5,0.6-2.1,1.1c-0.7,0.5-1.3,1.1-1.8,1.7
			s-1,1.4-1.5,2.2c-0.4,0.8-0.7,1.6-0.9,2.5c-0.2,0.9-0.3,1.8-0.3,2.7c0,1.6,0.3,2.9,0.8,3.8c0.5,0.9,1.4,1.3,2.6,1.3
			c0.7,0,1.4-0.2,2-0.6s1.3-0.9,1.9-1.6c0.6-0.7,1.2-1.6,1.7-2.6C236.4,94.4,236.9,93.3,237.3,92.1z"/>
		<path fill="#FFFFFF" d="M258.3,99c-0.3,0.4-0.7,0.7-1.2,1c-0.5,0.3-1,0.6-1.5,0.8c-0.6,0.2-1.2,0.4-1.8,0.5
			c-0.5,0.1-1,0.2-1.6,0.2l-0.6,1.4c1,0.2,1.8,0.5,2.3,0.8c0.5,0.4,0.7,0.9,0.6,1.6c0,0.4-0.2,0.7-0.4,1c-0.2,0.3-0.5,0.5-0.8,0.7
			c-0.3,0.2-0.7,0.4-1.1,0.5c-0.4,0.1-0.9,0.2-1.4,0.2c-0.5,0-1-0.1-1.4-0.2c-0.5-0.1-0.8-0.3-1.1-0.6l0.2-0.5
			c0.1-0.1,0.2-0.2,0.3-0.2c0.1,0,0.1,0,0.2,0.1c0.1,0.1,0.2,0.1,0.4,0.2c0.2,0.1,0.3,0.2,0.6,0.2c0.2,0.1,0.5,0.1,0.9,0.1
			c0.6,0,1.1-0.1,1.5-0.4c0.4-0.3,0.6-0.6,0.6-1.1c0-0.3,0-0.6-0.1-0.8c-0.1-0.2-0.3-0.4-0.6-0.5c-0.3-0.1-0.6-0.2-1-0.3
			c-0.4-0.1-0.8-0.1-1.3-0.2l0.9-2.1c-0.9-0.1-1.7-0.3-2.4-0.6c-0.9-0.4-1.6-1-2.2-1.8c-0.6-0.8-1-1.8-1.2-2.9
			c-0.2-1.1-0.3-2.4-0.1-3.9c0.2-1.4,0.5-2.6,1-3.8c0.5-1.1,1.1-2.1,1.9-2.9c0.8-0.8,1.7-1.5,2.8-1.9c1.1-0.5,2.2-0.7,3.5-0.7
			c0.4,0,1,0.1,1.9,0.3c0.8,0.2,1.5,0.4,2.1,0.6l0.9,0.3l-0.6,4.5H258c-0.5,0-0.7-0.3-0.7-0.9c0-0.1,0-0.2,0-0.4c0-0.2,0-0.6,0-1
			c0-0.4,0-0.9,0.1-1.4c-1.1-0.4-2.1-0.6-3-0.6c-1,0-2,0.2-2.8,0.6c-0.8,0.4-1.6,0.9-2.2,1.6c-0.6,0.7-1.2,1.5-1.6,2.5
			c-0.4,1-0.7,2.1-0.8,3.3c-0.2,1.3-0.1,2.4,0,3.4c0.2,1,0.5,1.8,1,2.5c0.5,0.7,1.1,1.2,1.8,1.5c0.7,0.3,1.6,0.5,2.5,0.5
			c0.9,0,1.6-0.1,2.2-0.3c0.6-0.2,1.1-0.4,1.5-0.7c0.4-0.2,0.7-0.5,1-0.7c0.2-0.2,0.4-0.3,0.6-0.3c0.2,0,0.3,0.1,0.3,0.2L258.3,99z"
			/>
		<path fill="#FFFFFF" d="M278.3,100.6l-0.1,0.7h-2.4h-0.4v0H275c-0.2,0-0.4-0.1-0.5-0.2c-0.1-0.1-0.1-0.2-0.1-0.4l0.6-5.7
			c-0.5,1-1,1.8-1.5,2.6c-0.5,0.8-1.1,1.5-1.8,2c-0.6,0.6-1.3,1-2,1.3c-0.7,0.3-1.4,0.5-2.1,0.5c-0.8,0-1.4-0.1-2-0.4
			c-0.6-0.3-1-0.7-1.4-1.3c-0.4-0.5-0.7-1.2-0.9-2c-0.2-0.8-0.3-1.6-0.3-2.6c0-1,0.1-2.1,0.4-3.1c0.3-1,0.6-2,1.1-2.9
			c0.5-0.9,1.1-1.7,1.7-2.5c0.7-0.8,1.4-1.4,2.2-2c0.8-0.6,1.7-1,2.6-1.3c0.9-0.3,1.9-0.5,2.9-0.5c0.7,0,1.4,0.1,2,0.2
			c0.6,0.1,1.2,0.3,1.9,0.7l-1.9,16l0,0c0.3,0,0.6,0,0.8,0c0.3,0,0.4,0,0.6,0c0.1,0,0.2,0,0.3,0C278.1,100,278.3,100.2,278.3,100.6z
			 M275.2,92.1l0.9-7.3c-0.7-0.2-1.5-0.4-2.3-0.4c-0.8,0-1.6,0.1-2.4,0.4c-0.8,0.3-1.5,0.6-2.1,1.1c-0.7,0.5-1.3,1.1-1.8,1.7
			s-1,1.4-1.5,2.2c-0.4,0.8-0.7,1.6-0.9,2.5c-0.2,0.9-0.3,1.8-0.3,2.7c0,1.6,0.3,2.9,0.8,3.8c0.5,0.9,1.4,1.3,2.6,1.3
			c0.7,0,1.4-0.2,2-0.6c0.7-0.4,1.3-0.9,1.9-1.6c0.6-0.7,1.2-1.6,1.7-2.6C274.3,94.4,274.8,93.3,275.2,92.1z M275.9,77.7
			c0.3-0.3,0.5-0.8,0.6-1.3h1.1c-0.1,0.4-0.2,0.8-0.3,1.2c-0.2,0.4-0.4,0.7-0.6,1c-0.3,0.3-0.6,0.5-0.9,0.7
			c-0.3,0.2-0.7,0.2-1.1,0.2c-0.4,0-0.8-0.1-1.1-0.3c-0.3-0.2-0.6-0.4-0.9-0.7c-0.3-0.2-0.6-0.5-0.9-0.7c-0.3-0.2-0.6-0.3-0.9-0.3
			c-0.5,0-0.9,0.2-1.2,0.5c-0.3,0.3-0.5,0.8-0.6,1.3h-1.1c0.1-0.4,0.2-0.8,0.3-1.2c0.2-0.4,0.4-0.7,0.6-1c0.3-0.3,0.6-0.5,0.9-0.7
			c0.3-0.2,0.7-0.2,1.1-0.2s0.8,0.1,1.1,0.3c0.3,0.2,0.6,0.4,0.9,0.7c0.3,0.2,0.6,0.5,0.9,0.7c0.3,0.2,0.6,0.3,0.9,0.3
			C275.2,78.2,275.6,78,275.9,77.7z"/>
		<path fill="#FFFFFF" d="M295.8,83.7c1,0.4,1.7,1.1,2.3,1.9c0.6,0.8,1,1.8,1.2,2.9c0.2,1.1,0.3,2.4,0.1,3.8c-0.2,1.4-0.5,2.7-1,3.8
			c-0.5,1.1-1.2,2.1-2,2.9c-0.8,0.8-1.7,1.4-2.8,1.9c-1.1,0.4-2.3,0.7-3.5,0.7c-1.3,0-2.4-0.2-3.4-0.7c-1-0.4-1.8-1.1-2.4-1.9
			c-0.6-0.8-1-1.8-1.3-2.9c-0.2-1.1-0.3-2.4-0.1-3.8c0.2-1.4,0.5-2.7,1-3.8c0.5-1.1,1.2-2.1,2-2.9c0.8-0.8,1.7-1.4,2.8-1.9
			c1.1-0.4,2.3-0.7,3.5-0.7C293.7,83.1,294.9,83.3,295.8,83.7z M293.2,99.7c0.8-0.4,1.6-0.9,2.2-1.6s1.1-1.5,1.5-2.5
			c0.4-1,0.7-2.1,0.8-3.3c0.1-1.2,0.1-2.3,0-3.3s-0.4-1.8-0.9-2.5c-0.5-0.7-1.1-1.2-1.8-1.6c-0.8-0.4-1.7-0.6-2.7-0.6
			c-1.1,0-2,0.2-2.9,0.6c-0.8,0.4-1.6,0.9-2.2,1.6c-0.6,0.7-1.1,1.5-1.5,2.5s-0.7,2.1-0.8,3.3c-0.1,1.2-0.1,2.3,0,3.3
			c0.2,1,0.5,1.8,0.9,2.5c0.5,0.7,1.1,1.2,1.8,1.6c0.8,0.4,1.7,0.6,2.7,0.6C291.4,100.2,292.4,100.1,293.2,99.7z"/>
		<path fill="#FFFFFF" d="M327.1,88.2c-0.1,0.4-0.4,0.9-0.7,1.3c-0.3,0.4-0.8,0.8-1.4,1.1s-1.3,0.7-2.2,1c-0.9,0.3-2,0.6-3.2,0.8
			c-1.3,0.2-2.7,0.4-4.4,0.6c0,0.3,0,0.5-0.1,0.8c0,0.2,0,0.5,0,0.7c0,1.8,0.4,3.2,1.2,4.2c0.8,1,2,1.5,3.7,1.5
			c0.6,0,1.2-0.1,1.7-0.2c0.5-0.1,1-0.3,1.4-0.5s0.8-0.4,1.1-0.7c0.3-0.2,0.6-0.5,0.8-0.7c0.2-0.2,0.4-0.4,0.6-0.5
			c0.2-0.1,0.3-0.2,0.5-0.2c0.1,0,0.3,0.1,0.4,0.2l0.4,0.5c-0.6,0.6-1.2,1.2-1.7,1.6c-0.6,0.5-1.1,0.8-1.7,1.1
			c-0.6,0.3-1.2,0.5-1.8,0.6c-0.6,0.1-1.3,0.2-2,0.2c-1,0-1.9-0.2-2.7-0.5c-0.8-0.3-1.4-0.8-2-1.4c-0.5-0.6-0.9-1.4-1.2-2.2
			c-0.3-0.9-0.4-1.9-0.4-2.9c0-0.9,0.1-1.8,0.3-2.7c0.2-0.9,0.4-1.8,0.8-2.6c0.4-0.8,0.8-1.6,1.3-2.4c0.5-0.7,1.1-1.4,1.8-1.9
			c0.7-0.5,1.4-1,2.2-1.3c0.8-0.3,1.7-0.5,2.7-0.5c0.9,0,1.6,0.1,2.2,0.4c0.6,0.2,1.1,0.6,1.5,0.9c0.4,0.4,0.7,0.8,0.8,1.2
			c0.2,0.4,0.3,0.8,0.3,1.2C327.3,87.3,327.2,87.8,327.1,88.2z M319.8,85c-0.8,0.4-1.5,1-2.1,1.6c-0.6,0.7-1.1,1.5-1.5,2.4
			c-0.4,0.9-0.7,1.8-0.9,2.8c1.5-0.2,2.9-0.4,4-0.6c1.1-0.2,2.1-0.5,2.8-0.7c0.8-0.2,1.4-0.5,1.9-0.8c0.5-0.3,0.8-0.6,1.1-0.9
			c0.3-0.3,0.4-0.6,0.5-0.9c0.1-0.3,0.1-0.7,0.1-1c0-0.3-0.1-0.5-0.2-0.8c-0.1-0.3-0.3-0.6-0.6-0.8c-0.3-0.2-0.6-0.4-1-0.6
			c-0.4-0.2-1-0.2-1.6-0.2C321.4,84.4,320.6,84.6,319.8,85z"/>
		<path fill="#FFFFFF" d="M343.3,96.1c-0.1,0.8-0.3,1.5-0.7,2.2c-0.4,0.7-0.8,1.3-1.4,1.8c-0.6,0.5-1.3,0.9-2.1,1.2
			c-0.8,0.3-1.7,0.4-2.7,0.4c-1.8,0-3.5-0.3-5.2-1l0.5-4.4h0.9c0.5,0,0.7,0.3,0.7,0.9c0,0.1,0,0.2,0,0.4c0,0.2,0,0.5,0,1
			c0,0.4,0,0.8-0.1,1.3c0.9,0.4,2.1,0.6,3.4,0.6c0.8,0,1.4-0.1,2-0.3c0.6-0.2,1.1-0.5,1.6-0.9c0.4-0.4,0.8-0.8,1-1.3
			c0.3-0.5,0.4-1,0.5-1.5c0.1-0.6,0-1.1-0.2-1.5c-0.2-0.4-0.6-0.7-1-1c-0.4-0.3-0.9-0.5-1.5-0.7c-0.6-0.2-1.2-0.4-1.8-0.6
			c-0.6-0.2-1.2-0.4-1.8-0.6c-0.6-0.2-1.1-0.5-1.5-0.9c-0.4-0.3-0.8-0.8-1-1.3c-0.2-0.5-0.3-1.1-0.2-1.9c0.1-0.6,0.3-1.3,0.6-1.8
			c0.3-0.6,0.8-1.1,1.4-1.6c0.6-0.4,1.2-0.8,2-1.1s1.6-0.4,2.5-0.4c1.3,0,2.8,0.3,4.7,1l-0.5,4.3h-0.9c-0.5,0-0.7-0.3-0.7-0.9
			c0-0.1,0-0.2,0-0.4c0-0.2,0-0.5,0-0.9c0-0.4,0-0.8,0.1-1.3c-0.9-0.3-1.9-0.5-2.8-0.5c-0.7,0-1.3,0.1-1.8,0.3
			c-0.6,0.2-1,0.4-1.5,0.7c-0.4,0.3-0.8,0.7-1,1.1c-0.3,0.4-0.4,0.9-0.5,1.3c-0.1,0.6,0,1,0.3,1.4c0.2,0.4,0.6,0.7,1,1
			c0.4,0.3,0.9,0.5,1.5,0.7c0.6,0.2,1.2,0.4,1.8,0.6c0.6,0.2,1.2,0.4,1.8,0.6c0.6,0.2,1.1,0.5,1.5,0.9c0.4,0.3,0.8,0.8,1,1.3
			C343.3,94.8,343.4,95.4,343.3,96.1z"/>
		<path fill="#FFFFFF" d="M350.3,100.6c-0.6-0.7-0.8-1.7-0.6-3.1l1.5-12.3h-2.6c-0.1,0-0.2,0-0.3-0.1c-0.1-0.1-0.1-0.2-0.1-0.3
			l0.1-0.7l3.1-0.2l1.2-6.4c0-0.1,0.1-0.2,0.2-0.3c0.1-0.1,0.2-0.1,0.3-0.1h0.8l-0.8,6.9h5.7l-0.2,1.3h-5.7l-1.5,12.2
			c-0.1,0.5,0,0.9,0,1.3c0.1,0.4,0.2,0.6,0.4,0.9c0.2,0.2,0.4,0.4,0.7,0.5c0.3,0.1,0.6,0.2,1,0.2c0.4,0,0.8-0.1,1.1-0.2
			c0.3-0.1,0.6-0.3,0.9-0.4c0.2-0.1,0.5-0.3,0.6-0.4c0.2-0.1,0.3-0.2,0.4-0.2c0.1,0,0.2,0.1,0.3,0.2l0.4,0.8
			c-0.5,0.5-1.2,0.9-1.9,1.2c-0.7,0.3-1.5,0.5-2.3,0.5C351.8,101.6,350.9,101.3,350.3,100.6z"/>
		<path fill="#FFFFFF" d="M375.3,83.7l-0.4,1.2c-0.1,0.2-0.2,0.3-0.4,0.3c-0.1,0-0.2,0-0.3-0.1c-0.1,0-0.3-0.1-0.5-0.2
			c-0.2-0.1-0.4-0.1-0.7-0.2c-0.3,0-0.6-0.1-1-0.1c-1.4,0-2.5,0.4-3.5,1.3c-1,0.8-1.8,2.1-2.6,3.7l-1.4,11.7h-1.7l0.2-1.4l1.9-15.1
			c-0.3,0-0.6,0-0.9,0c-0.3,0-0.4,0-0.5,0c-0.1,0-0.2,0-0.3,0c-0.1,0-0.1,0-0.2,0c-0.5,0-0.7-0.2-0.6-0.6l0.1-0.7h2.6l0.9,0
			c0.2,0,0.3,0,0.4,0.1c0.1,0.1,0.1,0.2,0.1,0.4l-0.3,3.8c0.8-1.5,1.7-2.6,2.7-3.4c1.1-0.8,2.3-1.2,3.7-1.2c0.5,0,1,0.1,1.5,0.2
			C374.5,83.3,375,83.5,375.3,83.7z"/>
		<path fill="#FFFFFF" d="M393,100.6l-0.1,0.7h-2.4l-0.4,0h-0.4c-0.2,0-0.4-0.1-0.5-0.2c-0.1-0.1-0.1-0.2-0.1-0.4l0.6-5.7
			c-0.5,1-1,1.8-1.5,2.6c-0.5,0.8-1.1,1.5-1.8,2c-0.6,0.6-1.3,1-2,1.3c-0.7,0.3-1.4,0.5-2.1,0.5c-0.8,0-1.4-0.1-2-0.4
			c-0.6-0.3-1-0.7-1.4-1.3c-0.4-0.5-0.7-1.2-0.9-2c-0.2-0.8-0.3-1.6-0.3-2.6c0-1,0.1-2.1,0.4-3.1c0.3-1,0.6-2,1.1-2.9
			c0.5-0.9,1.1-1.7,1.7-2.5c0.7-0.8,1.4-1.4,2.2-2c0.8-0.6,1.7-1,2.6-1.3c0.9-0.3,1.9-0.5,2.9-0.5c0.7,0,1.4,0.1,2,0.2
			c0.6,0.1,1.2,0.3,1.9,0.7l-1.9,16l0,0c0.3,0,0.6,0,0.8,0c0.3,0,0.4,0,0.6,0c0.1,0,0.2,0,0.3,0C392.8,100,393,100.2,393,100.6z
			 M389.9,92.1l0.9-7.3c-0.7-0.2-1.5-0.4-2.3-0.4c-0.8,0-1.6,0.1-2.4,0.4c-0.8,0.3-1.5,0.6-2.1,1.1c-0.7,0.5-1.3,1.1-1.8,1.7
			s-1,1.4-1.5,2.2c-0.4,0.8-0.7,1.6-1,2.5c-0.2,0.9-0.3,1.8-0.3,2.7c0,1.6,0.3,2.9,0.8,3.8c0.5,0.9,1.4,1.3,2.6,1.3
			c0.7,0,1.4-0.2,2-0.6c0.7-0.4,1.3-0.9,1.9-1.6c0.6-0.7,1.2-1.6,1.7-2.6C389,94.4,389.5,93.3,389.9,92.1z"/>
		<path fill="#FFFFFF" d="M399.9,100.6c-0.6-0.7-0.8-1.7-0.6-3.1l1.5-12.3h-2.6c-0.1,0-0.2,0-0.3-0.1c-0.1-0.1-0.1-0.2-0.1-0.3
			l0.1-0.7l3.1-0.2l1.2-6.4c0-0.1,0.1-0.2,0.2-0.3c0.1-0.1,0.2-0.1,0.3-0.1h0.8l-0.8,6.9h5.7l-0.2,1.3h-5.7L401,97.4
			c-0.1,0.5,0,0.9,0,1.3c0.1,0.4,0.2,0.6,0.4,0.9c0.2,0.2,0.4,0.4,0.7,0.5c0.3,0.1,0.6,0.2,1,0.2c0.4,0,0.8-0.1,1.1-0.2
			c0.3-0.1,0.6-0.3,0.9-0.4c0.2-0.1,0.5-0.3,0.6-0.4c0.2-0.1,0.3-0.2,0.4-0.2c0.1,0,0.2,0.1,0.3,0.2l0.4,0.8
			c-0.5,0.5-1.2,0.9-1.9,1.2s-1.5,0.5-2.3,0.5C401.4,101.6,400.5,101.3,399.9,100.6z"/>
		<path fill="#FFFFFF" d="M425.2,88.2c-0.1,0.4-0.4,0.9-0.7,1.3c-0.3,0.4-0.8,0.8-1.4,1.1c-0.6,0.4-1.3,0.7-2.2,1
			c-0.9,0.3-2,0.6-3.2,0.8c-1.3,0.2-2.7,0.4-4.4,0.6c0,0.3,0,0.5-0.1,0.8s0,0.5,0,0.7c0,1.8,0.4,3.2,1.2,4.2c0.8,1,2,1.5,3.7,1.5
			c0.6,0,1.2-0.1,1.7-0.2c0.5-0.1,1-0.3,1.4-0.5s0.8-0.4,1.1-0.7c0.3-0.2,0.6-0.5,0.8-0.7c0.2-0.2,0.4-0.4,0.6-0.5
			c0.2-0.1,0.3-0.2,0.5-0.2c0.1,0,0.3,0.1,0.4,0.2l0.4,0.5c-0.6,0.6-1.2,1.2-1.7,1.6c-0.6,0.5-1.1,0.8-1.7,1.1s-1.2,0.5-1.8,0.6
			c-0.6,0.1-1.3,0.2-2,0.2c-1,0-1.9-0.2-2.7-0.5c-0.8-0.3-1.4-0.8-2-1.4s-0.9-1.4-1.2-2.2c-0.3-0.9-0.4-1.9-0.4-2.9
			c0-0.9,0.1-1.8,0.3-2.7c0.2-0.9,0.4-1.8,0.8-2.6c0.4-0.8,0.8-1.6,1.3-2.4c0.5-0.7,1.1-1.4,1.8-1.9c0.7-0.5,1.4-1,2.2-1.3
			c0.8-0.3,1.7-0.5,2.7-0.5c0.9,0,1.6,0.1,2.2,0.4c0.6,0.2,1.1,0.6,1.5,0.9c0.4,0.4,0.7,0.8,0.8,1.2c0.2,0.4,0.3,0.8,0.3,1.2
			C425.4,87.3,425.3,87.8,425.2,88.2z M417.9,85c-0.8,0.4-1.5,1-2.1,1.6c-0.6,0.7-1.1,1.5-1.5,2.4c-0.4,0.9-0.7,1.8-0.9,2.8
			c1.5-0.2,2.9-0.4,4-0.6c1.1-0.2,2.1-0.5,2.8-0.7c0.8-0.2,1.4-0.5,1.9-0.8s0.8-0.6,1.1-0.9c0.3-0.3,0.4-0.6,0.5-0.9
			c0.1-0.3,0.1-0.7,0.1-1c0-0.3-0.1-0.5-0.2-0.8c-0.1-0.3-0.3-0.6-0.6-0.8c-0.3-0.2-0.6-0.4-1-0.6c-0.4-0.2-1-0.2-1.6-0.2
			C419.5,84.4,418.7,84.6,417.9,85z M420.3,80c-0.1,0.1-0.2,0.2-0.3,0.2c-0.1,0-0.2,0.1-0.4,0.1h-1L422,76c0.2-0.2,0.3-0.4,0.5-0.5
			c0.2-0.1,0.4-0.1,0.7-0.1h1.7L420.3,80z"/>
		<path fill="#FFFFFF" d="M443,89.8c-0.2,0.5-0.4,1-0.6,1.5c-0.2,0.5-0.5,0.9-0.8,1.3c-0.3,0.4-0.5,0.8-0.8,1.1
			c-0.2,0.4-0.4,0.8-0.6,1.1c-0.2,0.4-0.2,0.8-0.2,1.2c0,0.4,0.1,0.7,0.2,1s0.3,0.6,0.5,0.9c0.2,0.3,0.4,0.6,0.7,0.9
			c0.3,0.3,0.5,0.6,0.7,0.9c0.2,0.3,0.4,0.7,0.5,1.1c0.1,0.4,0.2,0.8,0.2,1.3c0,0.8-0.2,1.5-0.6,2.2c-0.4,0.7-0.9,1.3-1.6,1.9
			c-0.7,0.5-1.5,1-2.5,1.3c-1,0.3-2.1,0.5-3.3,0.5c-1,0-1.8-0.1-2.6-0.3c-0.8-0.2-1.5-0.5-2-0.8c-0.6-0.4-1-0.8-1.3-1.3
			c-0.3-0.5-0.5-1.1-0.5-1.8c0-0.9,0.2-1.6,0.7-2.3c0.5-0.7,1.1-1.2,1.8-1.7c0.8-0.5,1.7-0.8,2.7-1c1-0.2,2.1-0.4,3.3-0.4
			c0.4,0,0.8,0,1.2,0c0.4,0,0.8,0.1,1.2,0.1c-0.2-0.3-0.4-0.6-0.5-0.9c-0.1-0.3-0.2-0.7-0.2-1.1c0-0.4,0.1-0.9,0.2-1.3
			c0.1-0.4,0.4-1,0.8-1.6c-0.5,0.3-1,0.6-1.6,0.8c-0.5,0.2-1.1,0.3-1.8,0.3c-0.7,0-1.3-0.1-1.9-0.3s-1.1-0.5-1.5-1
			c-0.4-0.4-0.8-1-1-1.6c-0.2-0.6-0.4-1.3-0.4-2.2c0-0.8,0.1-1.6,0.4-2.5c0.3-0.8,0.7-1.5,1.3-2.1c0.6-0.6,1.3-1.1,2.1-1.5
			c0.8-0.4,1.8-0.6,2.8-0.6c0.6,0,1.2,0.1,1.7,0.2c0.5,0.2,1,0.4,1.4,0.7h4.7l-0.1,0.6c0,0.1-0.1,0.2-0.1,0.3
			c-0.1,0.1-0.2,0.1-0.4,0.2l-2.9,0.2c0.2,0.4,0.4,0.8,0.5,1.2c0.1,0.5,0.2,1,0.2,1.5C443.2,88.7,443.1,89.3,443,89.8z M441,100.7
			c-0.2-0.4-0.4-0.8-0.7-1.2l0,0.1c-0.6-0.1-1.2-0.2-1.7-0.2c-0.5,0-1-0.1-1.5-0.1c-1.2,0-2.2,0.1-3.1,0.3c-0.9,0.2-1.6,0.5-2.2,0.9
			c-0.6,0.4-1,0.8-1.3,1.3c-0.3,0.5-0.4,1-0.4,1.6c0,0.5,0.1,1,0.4,1.4c0.2,0.4,0.6,0.7,1,1c0.4,0.3,1,0.5,1.6,0.6
			c0.6,0.1,1.3,0.2,2,0.2c0.9,0,1.8-0.1,2.6-0.4c0.8-0.3,1.4-0.6,2-1c0.5-0.4,1-0.9,1.3-1.4c0.3-0.5,0.5-1.1,0.5-1.7
			C441.3,101.7,441.2,101.2,441,100.7z M438.8,93.1c0.6-0.3,1.1-0.7,1.5-1.3c0.4-0.5,0.7-1.1,1-1.8c0.2-0.7,0.3-1.3,0.3-2
			c0-1.3-0.3-2.2-1-2.8c-0.7-0.6-1.6-1-2.7-1c-0.8,0-1.5,0.2-2.1,0.5c-0.6,0.3-1.1,0.7-1.5,1.2c-0.4,0.5-0.7,1.1-1,1.7
			c-0.2,0.7-0.3,1.3-0.3,2c0,1.3,0.3,2.2,1,2.9c0.7,0.7,1.5,1,2.7,1C437.5,93.6,438.2,93.5,438.8,93.1z"/>
		<path fill="#FFFFFF" d="M454.6,100.6l-0.1,0.7h-2.6h-1.7l0.4-2.9l1.7-13.7c-0.3,0-0.6,0-0.9,0c-0.3,0-0.4,0-0.5,0
			c-0.1,0-0.2,0-0.3,0s-0.1,0-0.2,0c-0.5,0-0.7-0.2-0.6-0.6l0.1-0.7h2.6h1.7l-2,16.6c0.3,0,0.6,0,0.9,0c0.3,0,0.4,0,0.5,0
			c0.1,0,0.2,0,0.3,0c0.1,0,0.1,0,0.2,0C454.4,100,454.7,100.2,454.6,100.6z M452.5,77.8c-0.1-0.2-0.1-0.4-0.1-0.6
			c0-0.2,0.1-0.4,0.2-0.6c0.1-0.2,0.2-0.4,0.4-0.5c0.2-0.1,0.3-0.3,0.5-0.3c0.2-0.1,0.4-0.1,0.6-0.1s0.4,0,0.6,0.1
			c0.2,0.1,0.3,0.2,0.5,0.3c0.1,0.1,0.2,0.3,0.3,0.5c0.1,0.2,0.1,0.4,0.1,0.6c0,0.2-0.1,0.4-0.2,0.6c-0.1,0.2-0.3,0.4-0.4,0.5
			c-0.2,0.1-0.3,0.3-0.5,0.3c-0.2,0.1-0.4,0.1-0.6,0.1c-0.2,0-0.4,0-0.6-0.1c-0.2-0.1-0.3-0.2-0.5-0.3
			C452.6,78.1,452.5,77.9,452.5,77.8z"/>
		<path fill="#FFFFFF" d="M472.4,99c-0.3,0.4-0.7,0.7-1.2,1c-0.5,0.3-1,0.6-1.5,0.8c-0.6,0.2-1.2,0.4-1.8,0.5
			c-0.6,0.1-1.3,0.2-2,0.2c-1.1,0-2.2-0.2-3.1-0.6c-0.9-0.4-1.6-1-2.2-1.8c-0.6-0.8-1-1.8-1.2-2.9c-0.2-1.1-0.3-2.4-0.1-3.9
			c0.2-1.4,0.5-2.6,1-3.8c0.5-1.1,1.1-2.1,1.9-2.9c0.8-0.8,1.7-1.5,2.8-1.9c1.1-0.5,2.2-0.7,3.5-0.7c0.4,0,1,0.1,1.9,0.3
			c0.8,0.2,1.5,0.4,2.1,0.6l0.9,0.3l-0.6,4.5H472c-0.5,0-0.7-0.3-0.7-0.9c0-0.1,0-0.2,0-0.4c0-0.2,0-0.6,0-1c0-0.4,0-0.9,0.1-1.4
			c-1.1-0.4-2.1-0.6-3-0.6c-1,0-2,0.2-2.8,0.6c-0.8,0.4-1.6,0.9-2.2,1.6c-0.6,0.7-1.2,1.5-1.6,2.5c-0.4,1-0.7,2.1-0.8,3.3
			c-0.2,1.3-0.1,2.4,0,3.4c0.2,1,0.5,1.8,1,2.5c0.5,0.7,1.1,1.2,1.8,1.5c0.7,0.3,1.6,0.5,2.5,0.5c0.9,0,1.6-0.1,2.2-0.3
			c0.6-0.2,1.1-0.4,1.5-0.7c0.4-0.2,0.7-0.5,1-0.7c0.2-0.2,0.4-0.3,0.6-0.3c0.2,0,0.3,0.1,0.3,0.2L472.4,99z"/>
		<path fill="#FFFFFF" d="M492.4,100.6l-0.1,0.7h-2.4l-0.4,0h-0.4c-0.2,0-0.4-0.1-0.5-0.2c-0.1-0.1-0.1-0.2-0.1-0.4l0.6-5.7
			c-0.5,1-1,1.8-1.5,2.6c-0.5,0.8-1.1,1.5-1.8,2c-0.6,0.6-1.3,1-2,1.3c-0.7,0.3-1.4,0.5-2.1,0.5c-0.8,0-1.4-0.1-2-0.4
			c-0.6-0.3-1-0.7-1.4-1.3c-0.4-0.5-0.7-1.2-0.9-2c-0.2-0.8-0.3-1.6-0.3-2.6c0-1,0.1-2.1,0.4-3.1c0.3-1,0.6-2,1.1-2.9
			c0.5-0.9,1.1-1.7,1.7-2.5c0.7-0.8,1.4-1.4,2.2-2c0.8-0.6,1.7-1,2.6-1.3c0.9-0.3,1.9-0.5,2.9-0.5c0.7,0,1.4,0.1,2,0.2
			c0.6,0.1,1.2,0.3,1.9,0.7l-1.9,16l0,0c0.3,0,0.6,0,0.8,0c0.3,0,0.4,0,0.6,0c0.1,0,0.2,0,0.3,0C492.2,100,492.5,100.2,492.4,100.6z
			 M489.4,92.1l0.9-7.3c-0.7-0.2-1.5-0.4-2.3-0.4c-0.8,0-1.6,0.1-2.4,0.4c-0.8,0.3-1.5,0.6-2.1,1.1c-0.7,0.5-1.3,1.1-1.8,1.7
			c-0.6,0.7-1,1.4-1.5,2.2c-0.4,0.8-0.7,1.6-1,2.5c-0.2,0.9-0.3,1.8-0.3,2.7c0,1.6,0.3,2.9,0.8,3.8c0.5,0.9,1.4,1.3,2.6,1.3
			c0.7,0,1.4-0.2,2-0.6c0.7-0.4,1.3-0.9,1.9-1.6c0.6-0.7,1.2-1.6,1.7-2.6C488.5,94.4,488.9,93.3,489.4,92.1z"/>
	</g>
	<path fill="#FFFFFF" d="M58.1,59.7c-0.8,0-1.5,0.2-2.3,0.7c-1.8,1.2-3.6,2.6-5.4,4c-3.5,2.7-8.2,4.7-14.5,4.7
		c-11.7,0-16.7-7.5-16.7-19.5v-1.5c0-0.5,0-1,0.1-1.5c9.4-0.9,17-2.2,23-3.8s10.6-3.4,14-5.5c5.6-3.5,8.9-7.8,8.9-15.7
		c0-1.7-0.4-3.6-1.2-5.5C61.1,9.4,54,5.3,44.2,5.3c-12.8,0-21.6,6.4-27.3,14c-5.7,7.5-10,17.8-10,30.7c0,4.4,0.6,8.5,1.8,12.1
		c0.7,2.2,1.7,4.2,2.9,6L5.8,83.8l15.3-7.2c3.4,1.6,7.5,2.6,12.3,2.6c14.6,0,22.7-6.6,30.1-14.3l-3.1-3.9
		C59.7,60.1,58.9,59.7,58.1,59.7z M23.7,28.9c3.5-7.3,9.4-14.5,19.9-14.5c5.6,0,10.4,2.5,10.4,7.8c0,4.8-2.1,7.1-5.8,9.3
		c-2.4,1.3-5.7,2.6-10.1,3.8c-4.4,1.2-10.2,2.2-17.5,3.1C21.2,34.9,22.3,31.8,23.7,28.9z"/>
	<path fill="#FFFFFF" d="M72.6,48.8c0,0.7-0.1,1.4-0.5,2.1c-0.3,0.7-0.7,1.2-1.2,1.7c-0.5,0.5-1.1,0.9-1.7,1.2
		c-0.7,0.3-1.4,0.4-2.2,0.4c-0.7,0-1.4-0.1-2.1-0.4c-0.7-0.3-1.2-0.7-1.7-1.2s-0.9-1-1.2-1.7c-0.3-0.7-0.4-1.4-0.4-2.1
		c0-0.8,0.1-1.5,0.4-2.2c0.3-0.7,0.7-1.3,1.2-1.7s1.1-0.9,1.7-1.2c0.7-0.3,1.4-0.4,2.1-0.4c0.8,0,1.5,0.1,2.2,0.4
		c0.7,0.3,1.3,0.7,1.7,1.2s0.9,1.1,1.2,1.7C72.5,47.3,72.6,48,72.6,48.8L72.6,48.8z"/>
</g>
</svg>
