<?xml version="1.0" encoding="utf-8"?>
<!-- Generator: Adobe Illustrator 18.0.0, SVG Export Plug-In . SVG Version: 6.00 Build 0)  -->
<!DOCTYPE svg PUBLIC "-//W3C//DTD SVG 1.1//EN" "http://www.w3.org/Graphics/SVG/1.1/DTD/svg11.dtd">
<svg version="1.1" id="Layer_1" xmlns="http://www.w3.org/2000/svg" xmlns:xlink="http://www.w3.org/1999/xlink" x="0px" y="0px"
	 viewBox="0 0 712.7 262.5" enable-background="new 0 0 712.7 262.5" xml:space="preserve">
<g>
	<path fill="#FFFFFF" d="M33.8,53.1c-1.3-1.3-2.3-2-4.1-1.8c-1.7,0.2-2.1,0.7-1.7,2.4c0.6,2.8,1.3,5.6,1.9,8.4
		c0.3,1.7,1,2.9,2.3,4.2c6.5,6.4,12.9,12.9,19.4,19.3c0.4,0.4,1.1,1,1.6,1c4.5,0.1,9,0,13.5,0c0.1-0.2-0.1-0.6-0.5-1
		C55.5,75,44.3,63.8,33.8,53.1z"/>
	<path fill="#FFFFFF" d="M114.6,36C114.7,36,114.4,36,114.6,36L114.6,36z"/>
	<path fill="#FFFFFF" d="M34.7,83.1c0.4,1.9,1.7,3.2,3.5,3.3c3.3,0.2,6.6,0.1,9.4,0.1C42.4,81.2,37,75.8,31.8,70.7
		C32.7,74.5,33.7,78.8,34.7,83.1z"/>
	<path fill="#FFFFFF" d="M70.5,0.8C31.6,0.8,0,32.7,0,72.1c0,23.6,11.3,44.5,28.8,57.5c-1.9,5.3-6.9,16.9-6.9,16.9s14.5-5.2,22-8.3
		c8.2,3.4,17.2,5.2,26.6,5.2c38.9,0,70.5-31.9,70.5-71.3C141,32.7,109.4,0.8,70.5,0.8z M48.1,120.9c-3.8,0-6.9-3.1-6.9-6.9
		c0-3.8,3.1-6.9,6.9-6.9c3.8,0,6.9,3.1,6.9,6.9C55,117.8,51.9,120.9,48.1,120.9z M83.7,120.9c-3.8,0-6.9-3.1-6.9-6.9
		c0-3.8,3.1-6.9,6.9-6.9c3.8,0,6.9,3.1,6.9,6.9C90.6,117.8,87.6,120.9,83.7,120.9z M115.9,36.1c-0.7,0-1.1-0.1-1.2-0.1
		c0,0-0.3,0-1.3,0c-2.9,0-4.4,1.1-5.1,3.9c-3.8,14.8-7.6,29.6-11.5,44.4c-0.3,1.3-1,2.5-1.5,3.9c3.2,2.4,4.7,5.7,3.4,9.7
		c-1.4,4.4-4.7,6.2-9.4,5.7c-51.8,0.1-50.2,0.1-51.8,0.1c-1.9,0-3-1.1-3-2.8c0-1.8,1.1-2.8,3.1-2.8c17.2,0,34.4,0,51.7,0
		c0.5,0,1,0,1.5,0c1.7-0.1,3-1.4,2.9-3c-0.1-1.6-1.2-2.7-3-2.7c-8.4,0-16.9,0-25.3,0c-9-0.1-18-0.2-27-0.3c-3.9-0.1-7.9-3.2-8.8-7.1
		c-2.4-10.3-4.8-20.6-7-31c-1-4.6,2.3-8.4,7-8.4c23.1,0,46.3,0,69.4,0c1.5,0,2.2-0.4,2.5-1.8c0.5-2.1,1.1-4.1,1.7-6.2
		c1.2-4.3,5.1-7.2,9.6-7.3c3.3,0,0,0.1,3.2,0c2.3-0.1,3.4,1.5,3.4,2.8C119.2,34.8,117.9,36.2,115.9,36.1z"/>
	<path fill="#FFFFFF" d="M97.9,56.9c0.5-1.9,0.9-3.6,1.3-5.5c-2.4,0-4.6,0-6.8,0C94.3,53.3,96,55,97.9,56.9z"/>
	<path fill="#FFFFFF" d="M70.1,52.1c-0.4-0.4-0.9-0.7-1.4-0.7c-4.5-0.1-9,0-13.6,0C66.6,62.8,78,74.2,89.6,85.9
		c0.6-1.1,1.3-2.2,1.7-3.4c0.7-2,1-4.1,1.6-6.1c0.3-0.9,0-1.5-0.6-2.2C84.9,66.9,77.5,59.5,70.1,52.1z"/>
	<path fill="#FFFFFF" d="M58.4,59c-2.4-2.4-4.7-4.9-7.1-7.4c-0.2-0.2-0.5-0.3-0.7-0.3c-4.7,0-9.5,0-14.4,0c0.2,0.4,0.3,0.5,0.4,0.6
		c11.3,11.3,22.6,22.7,34,34c0.4,0.4,1.3,0.6,1.9,0.6c3.9,0.1,7.8,0,11.7,0c0.5,0,0.9-0.1,1.4-0.1c0.1-0.1-0.8-1.1-1.2-1.5
		C75.6,76.3,67,67.7,58.4,59z"/>
	<path fill="#FFFFFF" d="M88.8,52.1c-0.4-0.4-1-0.7-1.5-0.7c-4.5-0.1-8.9,0-13.4,0c6.8,6.8,13.5,13.6,20.4,20.4
		c0.8-3.4,1.7-6.8,2.5-10.3c0.1-0.6-0.1-1.4-0.5-1.8C93.8,57.1,91.3,54.6,88.8,52.1z"/>
</g>
<g>
	<path fill="#FFFFFF" d="M31,208.9l2.7-6.7h9.5l2.7,6.7h2.2l-8.9-21.3h-1.7l-8.9,21.3H31z M42.7,200.6h-8.6l4.4-10.5L42.7,200.6z"/>
	<path fill="#FFFFFF" d="M61.5,208c1.1-0.8,1.6-2,1.6-3.4c0-0.7-0.1-1.2-0.4-1.7c-0.3-0.5-0.6-0.8-1.1-1.2c-0.5-0.3-1.1-0.6-1.9-0.8
		c-0.8-0.2-1.6-0.5-2.6-0.7c-0.7-0.2-1.3-0.3-1.8-0.5c-0.5-0.1-0.9-0.3-1.2-0.5c-0.3-0.2-0.5-0.4-0.7-0.7c-0.1-0.3-0.2-0.6-0.2-1
		c0-0.5,0.1-0.9,0.3-1.3c0.2-0.4,0.5-0.7,0.8-0.9c0.3-0.2,0.7-0.4,1.2-0.5c0.5-0.1,1-0.2,1.5-0.2c0.9,0,1.8,0.1,2.6,0.4
		c0.8,0.3,1.5,0.7,2.1,1.3l1-1.2c-0.6-0.6-1.4-1.2-2.4-1.5c-1-0.4-2.1-0.6-3.3-0.6c-0.8,0-1.5,0.1-2.3,0.3c-0.7,0.2-1.3,0.5-1.8,0.9
		c-0.5,0.4-0.9,0.9-1.3,1.5c-0.3,0.6-0.5,1.3-0.5,2.1c0,0.6,0.1,1.1,0.3,1.5c0.2,0.4,0.5,0.8,1,1c0.4,0.3,1,0.5,1.6,0.7
		c0.7,0.2,1.4,0.4,2.3,0.7c0.8,0.2,1.5,0.4,2,0.5c0.6,0.2,1.1,0.4,1.5,0.6c0.4,0.2,0.7,0.5,0.9,0.8c0.2,0.3,0.3,0.7,0.3,1.1
		c0,0.9-0.4,1.7-1.1,2.2c-0.7,0.5-1.7,0.8-3,0.8c-1,0-2-0.2-2.9-0.5c-0.9-0.4-1.8-0.9-2.7-1.6l-0.9,1.4c0.8,0.8,1.8,1.3,3,1.7
		c1.2,0.4,2.3,0.6,3.5,0.6C59,209.2,60.4,208.8,61.5,208z"/>
	<path fill="#FFFFFF" d="M99.9,199.8c0-1-0.1-1.9-0.3-2.8c-0.2-0.8-0.4-1.5-0.8-2.1c-0.4-0.6-0.9-1-1.5-1.4
		c-0.6-0.3-1.3-0.5-2.2-0.5c-2.6,0-4.6,1.3-6,4c-0.2-1.2-0.6-2.2-1.4-2.9c-0.8-0.7-1.8-1.1-3.2-1.1c-1.3,0-2.4,0.3-3.4,1
		c-1,0.7-1.9,1.6-2.5,2.8v-3.5h-1.8v15.6h2v-9.6c0.4-1.3,1.1-2.4,2-3.2c0.9-0.8,2-1.2,3.1-1.2c1.2,0,2,0.4,2.6,1.3
		c0.6,0.8,0.8,2.2,0.8,4v8.7h2v-9.5c0.2-0.7,0.4-1.3,0.8-1.8c0.3-0.5,0.7-1,1.2-1.4c0.4-0.4,0.9-0.7,1.5-0.9
		c0.5-0.2,1.1-0.3,1.7-0.3c1.2,0,2,0.4,2.6,1.3c0.6,0.9,0.9,2.2,0.9,4v8.7h2V199.8z"/>
	<path fill="#FFFFFF" d="M114.4,208.9c0.7-0.2,1.3-0.5,1.9-0.8c0.6-0.3,1.1-0.8,1.5-1.2c0.4-0.5,0.8-1,1-1.6l-1.8-0.5
		c-0.2,0.4-0.4,0.8-0.8,1.2c-0.3,0.3-0.7,0.6-1.1,0.9c-0.4,0.2-0.9,0.4-1.4,0.6c-0.5,0.1-1,0.2-1.5,0.2c-0.8,0-1.5-0.1-2.1-0.4
		c-0.7-0.3-1.3-0.7-1.8-1.2c-0.5-0.5-0.9-1.1-1.3-1.8c-0.3-0.7-0.5-1.5-0.6-2.3h13.3c0-0.1,0-0.2,0-0.3c0-0.2,0-0.3,0-0.5
		c0-1.1-0.2-2.1-0.6-3.1c-0.4-1-0.9-1.8-1.6-2.5c-0.7-0.7-1.5-1.3-2.4-1.8c-0.9-0.4-2-0.6-3.1-0.6c-1.1,0-2.2,0.2-3.1,0.6
		c-0.9,0.4-1.8,1-2.5,1.7c-0.7,0.7-1.2,1.6-1.6,2.5c-0.4,1-0.6,2-0.6,3.1c0,1.1,0.2,2.2,0.6,3.1c0.4,1,0.9,1.8,1.6,2.6
		c0.7,0.8,1.5,1.3,2.5,1.8c1,0.4,2,0.6,3.1,0.6C112.9,209.2,113.7,209.1,114.4,208.9z M106.5,200.3c0.1-0.8,0.2-1.6,0.6-2.3
		c0.3-0.7,0.7-1.3,1.2-1.8c0.5-0.5,1.1-0.9,1.8-1.2c0.7-0.3,1.4-0.4,2.1-0.4c0.8,0,1.5,0.1,2.1,0.4c0.7,0.3,1.3,0.7,1.8,1.2
		c0.5,0.5,0.9,1.1,1.3,1.8c0.3,0.7,0.5,1.5,0.6,2.3H106.5z"/>
	<path fill="#FFFFFF" d="M124.3,206.1c0,1,0.3,1.7,0.8,2.2c0.5,0.5,1.3,0.8,2.2,0.8c0.4,0,0.9,0,1.4-0.1c0.5-0.1,1-0.2,1.4-0.4
		l-0.4-1.6c-0.3,0.1-0.5,0.2-0.8,0.2c-0.3,0.1-0.6,0.1-0.8,0.1c-0.6,0-1-0.2-1.3-0.5c-0.3-0.3-0.5-0.8-0.5-1.4v-18.3h-2V206.1z"/>
	<path fill="#FFFFFF" d="M146.5,199.8c0-1-0.1-1.9-0.3-2.7c-0.2-0.8-0.5-1.5-0.8-2.1c-0.4-0.6-0.9-1-1.5-1.4
		c-0.6-0.3-1.4-0.5-2.3-0.5c-1.3,0-2.4,0.3-3.5,1c-1.1,0.7-2,1.6-2.6,2.8v-9.8h-2v21.9h2v-9.6c0.2-0.6,0.5-1.2,0.8-1.8
		c0.4-0.5,0.8-1,1.3-1.4c0.5-0.4,1-0.7,1.6-0.9c0.6-0.2,1.1-0.3,1.7-0.3c1.2,0,2.1,0.4,2.7,1.3c0.6,0.9,0.9,2.2,0.9,4v8.7h2V199.8z"
		/>
	<path fill="#FFFFFF" d="M161.9,208.6c0.9-0.4,1.8-1,2.4-1.8c0.7-0.7,1.2-1.6,1.6-2.6c0.4-1,0.6-2,0.6-3.1c0-1.1-0.2-2.1-0.6-3.1
		c-0.4-1-0.9-1.8-1.6-2.6c-0.7-0.7-1.5-1.3-2.4-1.8c-0.9-0.4-2-0.7-3.1-0.7c-1.1,0-2.1,0.2-3.1,0.7c-0.9,0.4-1.8,1-2.4,1.8
		c-0.7,0.7-1.2,1.6-1.6,2.6c-0.4,1-0.6,2-0.6,3.1c0,1.1,0.2,2.1,0.6,3.1c0.4,1,0.9,1.8,1.6,2.6c0.7,0.7,1.5,1.3,2.4,1.8
		c0.9,0.4,2,0.6,3.1,0.6C159.9,209.2,160.9,209,161.9,208.6z M153.6,198.7c0.3-0.8,0.7-1.4,1.2-2c0.5-0.6,1.1-1,1.8-1.4
		c0.7-0.3,1.4-0.5,2.2-0.5c0.8,0,1.5,0.2,2.2,0.5c0.7,0.3,1.3,0.8,1.8,1.3c0.5,0.6,0.9,1.2,1.2,2c0.3,0.8,0.4,1.6,0.4,2.4
		c0,0.9-0.1,1.7-0.4,2.5c-0.3,0.8-0.7,1.4-1.2,2c-0.5,0.6-1.1,1-1.8,1.3c-0.7,0.3-1.4,0.5-2.2,0.5c-0.8,0-1.5-0.2-2.2-0.5
		c-0.7-0.3-1.3-0.8-1.8-1.3c-0.5-0.6-0.9-1.2-1.2-2c-0.3-0.8-0.4-1.6-0.4-2.4C153.2,200.3,153.3,199.5,153.6,198.7z"/>
	<path fill="#FFFFFF" d="M178.9,193.3c-0.1,0-0.2,0-0.4,0c-0.2,0-0.3,0-0.5,0c-1,0-2,0.4-2.8,1.1c-0.9,0.7-1.6,1.6-2.1,2.7v-3.7
		h-1.9v15.6h2v-9.7c0.4-1.3,1.1-2.2,2.1-3c1-0.7,2.2-1.1,3.6-1.1V193.3z"/>
	<path fill="#FFFFFF" d="M191.9,208.9c0.7-0.2,1.3-0.5,1.9-0.8c0.6-0.3,1.1-0.8,1.5-1.2s0.8-1,1-1.6l-1.8-0.5
		c-0.2,0.4-0.4,0.8-0.8,1.2c-0.3,0.3-0.7,0.6-1.1,0.9c-0.4,0.2-0.9,0.4-1.4,0.6c-0.5,0.1-1,0.2-1.5,0.2c-0.8,0-1.5-0.1-2.1-0.4
		c-0.7-0.3-1.3-0.7-1.8-1.2c-0.5-0.5-0.9-1.1-1.3-1.8c-0.3-0.7-0.5-1.5-0.6-2.3h13.3c0-0.1,0-0.2,0-0.3c0-0.2,0-0.3,0-0.5
		c0-1.1-0.2-2.1-0.6-3.1c-0.4-1-0.9-1.8-1.6-2.5c-0.7-0.7-1.5-1.3-2.4-1.8c-0.9-0.4-2-0.6-3.1-0.6c-1.1,0-2.2,0.2-3.1,0.6
		c-0.9,0.4-1.8,1-2.5,1.7c-0.7,0.7-1.2,1.6-1.6,2.5c-0.4,1-0.6,2-0.6,3.1c0,1.1,0.2,2.2,0.6,3.1c0.4,1,0.9,1.8,1.6,2.6
		c0.7,0.8,1.5,1.3,2.5,1.8c1,0.4,2,0.6,3.1,0.6C190.5,209.2,191.2,209.1,191.9,208.9z M184.1,200.3c0.1-0.8,0.2-1.6,0.6-2.3
		c0.3-0.7,0.7-1.3,1.2-1.8c0.5-0.5,1.1-0.9,1.8-1.2c0.7-0.3,1.4-0.4,2.1-0.4c0.8,0,1.5,0.1,2.1,0.4c0.7,0.3,1.3,0.7,1.8,1.2
		c0.5,0.5,0.9,1.1,1.3,1.8c0.3,0.7,0.5,1.5,0.6,2.3H184.1z"/>
	<path fill="#FFFFFF" d="M211.5,208c1.1-0.8,1.6-2,1.6-3.4c0-0.7-0.1-1.2-0.4-1.7c-0.3-0.5-0.6-0.8-1.1-1.2
		c-0.5-0.3-1.1-0.6-1.9-0.8c-0.8-0.2-1.6-0.5-2.6-0.7c-0.7-0.2-1.3-0.3-1.8-0.5c-0.5-0.1-0.9-0.3-1.2-0.5c-0.3-0.2-0.5-0.4-0.7-0.7
		c-0.1-0.3-0.2-0.6-0.2-1c0-0.5,0.1-0.9,0.3-1.3c0.2-0.4,0.5-0.7,0.8-0.9c0.3-0.2,0.8-0.4,1.2-0.5c0.5-0.1,1-0.2,1.5-0.2
		c0.9,0,1.8,0.1,2.6,0.4c0.8,0.3,1.5,0.7,2.1,1.3l1-1.2c-0.6-0.6-1.4-1.2-2.4-1.5c-1-0.4-2.1-0.6-3.3-0.6c-0.8,0-1.5,0.1-2.3,0.3
		c-0.7,0.2-1.3,0.5-1.8,0.9c-0.5,0.4-0.9,0.9-1.3,1.5c-0.3,0.6-0.5,1.3-0.5,2.1c0,0.6,0.1,1.1,0.3,1.5c0.2,0.4,0.5,0.8,1,1
		c0.4,0.3,1,0.5,1.6,0.7c0.7,0.2,1.4,0.4,2.3,0.7c0.8,0.2,1.5,0.4,2,0.5c0.6,0.2,1.1,0.4,1.5,0.6c0.4,0.2,0.7,0.5,0.9,0.8
		c0.2,0.3,0.3,0.7,0.3,1.1c0,0.9-0.4,1.7-1.1,2.2c-0.7,0.5-1.7,0.8-3,0.8c-1,0-2-0.2-2.9-0.5c-0.9-0.4-1.8-0.9-2.7-1.6l-0.9,1.4
		c0.8,0.8,1.8,1.3,3,1.7c1.2,0.4,2.3,0.6,3.5,0.6C208.9,209.2,210.4,208.8,211.5,208z"/>
	<path fill="#FFFFFF" d="M237.5,208.6c0.9-0.4,1.6-1,2.2-1.8c0.6-0.7,1.1-1.6,1.4-2.6c0.3-1,0.5-2,0.5-3.1c0-1-0.2-2-0.6-3
		c-0.4-1-0.9-1.8-1.5-2.6c-0.7-0.7-1.4-1.3-2.3-1.8c-0.9-0.4-1.9-0.7-3-0.7c-1.2,0-2.3,0.3-3.3,0.9c-1,0.6-1.8,1.4-2.5,2.4v-3h-1.8
		v22h2v-9.6c0.6,1,1.4,1.9,2.4,2.5c1,0.7,2.2,1,3.5,1C235.7,209.2,236.6,209,237.5,208.6z M232.4,207.1c-0.5-0.2-1.1-0.5-1.5-0.8
		c-0.5-0.3-0.9-0.8-1.3-1.2c-0.4-0.5-0.7-1-0.9-1.6v-4.8c0.1-0.5,0.3-1,0.6-1.5c0.3-0.5,0.8-0.9,1.3-1.2c0.5-0.3,1-0.6,1.6-0.8
		c0.6-0.2,1.1-0.3,1.6-0.3c0.8,0,1.6,0.2,2.3,0.5c0.7,0.3,1.3,0.8,1.8,1.4c0.5,0.6,0.9,1.2,1.2,2c0.3,0.8,0.4,1.6,0.4,2.4
		c0,0.8-0.1,1.6-0.4,2.3c-0.3,0.7-0.6,1.4-1.1,2c-0.5,0.6-1.1,1.1-1.7,1.4c-0.7,0.4-1.4,0.5-2.3,0.5
		C233.5,207.4,232.9,207.3,232.4,207.1z"/>
	<path fill="#FFFFFF" d="M254.1,193.3c-0.1,0-0.2,0-0.4,0c-0.2,0-0.3,0-0.5,0c-1,0-2,0.4-2.8,1.1c-0.9,0.7-1.6,1.6-2.1,2.7v-3.7
		h-1.9v15.6h2v-9.7c0.4-1.3,1.1-2.2,2.1-3c1-0.7,2.2-1.1,3.6-1.1V193.3z"/>
	<path fill="#FFFFFF" d="M265.6,208.5c1.1-0.5,2-1.2,2.7-2.1l0.1,1.2c0,0.5,0.2,0.8,0.6,1.1c0.3,0.2,0.7,0.4,1.1,0.4
		c0.1,0,0.2,0,0.4,0c0.1,0,0.3,0,0.4,0v-1.8c-0.5,0-0.7-0.3-0.7-0.8v-7c0-1.9-0.6-3.5-1.7-4.6c-1.1-1.1-2.6-1.6-4.5-1.6
		c-1,0-2,0.2-3,0.5c-1,0.3-1.9,0.8-3,1.5l0.7,1.3c0.9-0.6,1.7-1.1,2.5-1.4c0.8-0.3,1.7-0.5,2.5-0.5c1.3,0,2.4,0.4,3.2,1.2
		c0.8,0.8,1.2,1.9,1.2,3.3v1.4c-0.6-0.3-1.4-0.5-2.2-0.6c-0.8-0.1-1.6-0.2-2.4-0.2c-1,0-1.9,0.1-2.7,0.3c-0.8,0.2-1.5,0.6-2.1,1
		c-0.6,0.4-1,0.9-1.3,1.5c-0.3,0.6-0.5,1.2-0.5,2c0,0.6,0.1,1.2,0.4,1.8c0.3,0.6,0.6,1.1,1.1,1.5c0.5,0.4,1,0.8,1.7,1
		c0.7,0.2,1.4,0.4,2.2,0.4C263.4,209.2,264.5,209,265.6,208.5z M261.1,207.4c-0.5-0.2-0.9-0.5-1.2-0.8c-0.3-0.3-0.6-0.7-0.7-1.1
		c-0.2-0.4-0.2-0.8-0.2-1.2c0-1,0.5-1.9,1.4-2.4c0.9-0.6,2.1-0.9,3.5-0.9c0.7,0,1.4,0.1,2.1,0.2c0.7,0.1,1.4,0.3,2.1,0.6v2.5
		c0,0.2,0,0.4-0.1,0.6c-0.1,0.2-0.2,0.4-0.4,0.6c-0.5,0.7-1.2,1.2-2.1,1.6c-0.9,0.4-1.8,0.6-2.7,0.6
		C262.1,207.7,261.6,207.6,261.1,207.4z M266.6,187.1h-2.1l-1.8,2.8l1.3,0.5L266.6,187.1z"/>
	<path fill="#FFFFFF" d="M282.8,206.5c-0.1,0.1-0.4,0.2-0.8,0.4c-0.4,0.2-0.9,0.3-1.5,0.3c-0.5,0-0.9-0.1-1.3-0.4
		c-0.4-0.3-0.6-0.7-0.6-1.3v-10.6h3.6v-1.6h-3.6V188h-2v5.3h-2.1v1.6h2.1v11.2c0,0.5,0.1,0.9,0.3,1.3c0.2,0.4,0.4,0.7,0.7,0.9
		c0.3,0.2,0.6,0.4,1,0.6c0.4,0.1,0.8,0.2,1.3,0.2c0.4,0,0.8,0,1.2-0.1c0.4-0.1,0.7-0.2,1-0.3c0.3-0.1,0.6-0.2,0.8-0.3
		c0.2-0.1,0.4-0.2,0.5-0.2L282.8,206.5z"/>
	<path fill="#FFFFFF" d="M289.1,208.9v-15.6h-2v15.6H289.1z M289.1,190.1v-3h-2v3H289.1z"/>
	<path fill="#FFFFFF" d="M294.4,204.2c0.4,1,0.9,1.8,1.6,2.6c0.7,0.8,1.5,1.3,2.5,1.8c1,0.4,2,0.6,3.1,0.6c0.7,0,1.4-0.1,2.1-0.3
		c0.7-0.2,1.3-0.5,1.9-0.8c0.6-0.3,1.1-0.8,1.5-1.2c0.4-0.5,0.7-1,1-1.5l-2-0.6c-0.1,0.4-0.3,0.7-0.6,1c-0.3,0.3-0.7,0.6-1.1,0.9
		c-0.4,0.2-0.9,0.4-1.4,0.6c-0.5,0.1-1,0.2-1.5,0.2c-0.8,0-1.5-0.2-2.2-0.5c-0.7-0.3-1.3-0.8-1.8-1.3c-0.5-0.6-0.9-1.2-1.2-2
		c-0.3-0.8-0.4-1.6-0.4-2.5c0-0.9,0.1-1.7,0.4-2.5c0.3-0.8,0.7-1.4,1.2-2c0.5-0.5,1.1-1,1.8-1.3c0.7-0.3,1.4-0.5,2.2-0.5
		c1,0,1.8,0.2,2.6,0.7c0.8,0.5,1.4,1.1,1.8,1.9l2-0.6c-0.6-1.1-1.4-2-2.5-2.7c-1.1-0.7-2.4-1-3.8-1c-1.2,0-2.2,0.2-3.2,0.6
		c-1,0.4-1.8,1-2.5,1.7c-0.7,0.7-1.2,1.6-1.6,2.6c-0.4,1-0.6,2-0.6,3.1C293.8,202.2,294,203.2,294.4,204.2z"/>
	<path fill="#FFFFFF" d="M320,208.5c1.1-0.5,2-1.2,2.7-2.1l0.1,1.2c0,0.5,0.2,0.8,0.6,1.1c0.3,0.2,0.7,0.4,1.1,0.4
		c0.1,0,0.2,0,0.4,0c0.1,0,0.3,0,0.4,0v-1.8c-0.5,0-0.7-0.3-0.7-0.8v-7c0-1.9-0.6-3.5-1.7-4.6c-1.1-1.1-2.6-1.6-4.5-1.6
		c-1,0-2,0.2-3,0.5c-1,0.3-1.9,0.8-3,1.5l0.7,1.3c0.9-0.6,1.7-1.1,2.5-1.4c0.8-0.3,1.7-0.5,2.5-0.5c1.3,0,2.4,0.4,3.2,1.2
		c0.8,0.8,1.2,1.9,1.2,3.3v1.4c-0.6-0.3-1.4-0.5-2.2-0.6c-0.8-0.1-1.6-0.2-2.4-0.2c-1,0-1.9,0.1-2.7,0.3c-0.8,0.2-1.5,0.6-2.1,1
		c-0.6,0.4-1,0.9-1.3,1.5c-0.3,0.6-0.5,1.2-0.5,2c0,0.6,0.1,1.2,0.4,1.8c0.3,0.6,0.6,1.1,1.1,1.5c0.5,0.4,1,0.8,1.7,1
		c0.7,0.2,1.4,0.4,2.2,0.4C317.8,209.2,318.9,209,320,208.5z M315.5,207.4c-0.5-0.2-0.9-0.5-1.2-0.8c-0.3-0.3-0.6-0.7-0.7-1.1
		c-0.2-0.4-0.2-0.8-0.2-1.2c0-1,0.5-1.9,1.4-2.4c0.9-0.6,2.1-0.9,3.5-0.9c0.7,0,1.4,0.1,2.1,0.2c0.7,0.1,1.4,0.3,2.1,0.6v2.5
		c0,0.2,0,0.4-0.1,0.6c-0.1,0.2-0.2,0.4-0.4,0.6c-0.5,0.7-1.2,1.2-2.1,1.6c-0.9,0.4-1.8,0.6-2.7,0.6
		C316.5,207.7,316,207.6,315.5,207.4z"/>
	<path fill="#FFFFFF" d="M339.9,208c1.1-0.8,1.6-2,1.6-3.4c0-0.7-0.1-1.2-0.4-1.7c-0.3-0.5-0.6-0.8-1.1-1.2
		c-0.5-0.3-1.1-0.6-1.9-0.8c-0.8-0.2-1.6-0.5-2.6-0.7c-0.7-0.2-1.3-0.3-1.8-0.5c-0.5-0.1-0.9-0.3-1.2-0.5c-0.3-0.2-0.5-0.4-0.7-0.7
		c-0.1-0.3-0.2-0.6-0.2-1c0-0.5,0.1-0.9,0.3-1.3c0.2-0.4,0.5-0.7,0.8-0.9c0.3-0.2,0.8-0.4,1.2-0.5c0.5-0.1,1-0.2,1.5-0.2
		c0.9,0,1.8,0.1,2.6,0.4c0.8,0.3,1.5,0.7,2.1,1.3l1-1.2c-0.6-0.6-1.4-1.2-2.4-1.5c-1-0.4-2.1-0.6-3.3-0.6c-0.8,0-1.5,0.1-2.3,0.3
		c-0.7,0.2-1.3,0.5-1.9,0.9c-0.5,0.4-0.9,0.9-1.3,1.5c-0.3,0.6-0.5,1.3-0.5,2.1c0,0.6,0.1,1.1,0.3,1.5c0.2,0.4,0.5,0.8,1,1
		c0.4,0.3,1,0.5,1.6,0.7c0.7,0.2,1.4,0.4,2.3,0.7c0.8,0.2,1.5,0.4,2,0.5c0.6,0.2,1.1,0.4,1.5,0.6c0.4,0.2,0.7,0.5,0.9,0.8
		c0.2,0.3,0.3,0.7,0.3,1.1c0,0.9-0.4,1.7-1.1,2.2c-0.7,0.5-1.7,0.8-3,0.8c-1,0-2-0.2-2.9-0.5c-0.9-0.4-1.8-0.9-2.7-1.6l-0.9,1.4
		c0.8,0.8,1.8,1.3,3,1.7c1.2,0.4,2.3,0.6,3.5,0.6C337.3,209.2,338.8,208.8,339.9,208z"/>
	<path fill="#FFFFFF" d="M364.8,208.3c1-0.6,1.9-1.4,2.5-2.4v1.6c0,0.4,0.2,0.7,0.5,1c0.3,0.3,0.7,0.4,1.2,0.4c0.2,0,0.5,0,0.8-0.1
		v-1.8c-0.5,0-0.7-0.3-0.7-0.8v-19.2h-2v9.5c-0.6-1-1.4-1.8-2.4-2.5c-1-0.7-2.2-1-3.5-1c-1,0-2,0.2-2.8,0.6c-0.9,0.4-1.6,1-2.2,1.8
		c-0.6,0.7-1.1,1.6-1.5,2.6c-0.4,1-0.5,2-0.5,3.1c0,1.1,0.2,2.1,0.6,3c0.4,1,0.9,1.8,1.6,2.6c0.7,0.7,1.5,1.3,2.4,1.8
		c0.9,0.4,1.9,0.7,3,0.7C362.7,209.2,363.8,208.9,364.8,208.3z M359.7,206.9c-0.7-0.3-1.3-0.8-1.8-1.4c-0.5-0.6-0.9-1.2-1.2-2
		c-0.3-0.8-0.4-1.6-0.4-2.4c0-0.8,0.1-1.6,0.4-2.3c0.3-0.8,0.6-1.4,1.1-2c0.5-0.6,1.1-1.1,1.7-1.4c0.7-0.4,1.4-0.5,2.3-0.5
		c0.5,0,1.1,0.1,1.6,0.3c0.5,0.2,1.1,0.5,1.6,0.8c0.5,0.4,0.9,0.8,1.3,1.2c0.4,0.5,0.7,1,0.9,1.5v4.8c-0.1,0.5-0.3,1-0.7,1.5
		c-0.4,0.5-0.8,0.9-1.3,1.2c-0.5,0.3-1,0.6-1.6,0.8c-0.6,0.2-1.1,0.3-1.6,0.3C361.2,207.4,360.4,207.3,359.7,206.9z"/>
	<path fill="#FFFFFF" d="M384.8,208.6c0.9-0.4,1.8-1,2.4-1.8c0.7-0.7,1.2-1.6,1.6-2.6c0.4-1,0.6-2,0.6-3.1c0-1.1-0.2-2.1-0.6-3.1
		c-0.4-1-0.9-1.8-1.6-2.6c-0.7-0.7-1.5-1.3-2.4-1.8c-0.9-0.4-2-0.7-3.1-0.7s-2.1,0.2-3.1,0.7c-0.9,0.4-1.8,1-2.4,1.8
		c-0.7,0.7-1.2,1.6-1.6,2.6c-0.4,1-0.6,2-0.6,3.1c0,1.1,0.2,2.1,0.6,3.1c0.4,1,0.9,1.8,1.6,2.6c0.7,0.7,1.5,1.3,2.4,1.8
		c0.9,0.4,2,0.6,3.1,0.6C382.9,209.2,383.9,209,384.8,208.6z M376.6,198.7c0.3-0.8,0.7-1.4,1.2-2c0.5-0.6,1.1-1,1.8-1.4
		c0.7-0.3,1.4-0.5,2.2-0.5c0.8,0,1.5,0.2,2.2,0.5c0.7,0.3,1.3,0.8,1.8,1.3c0.5,0.6,0.9,1.2,1.2,2c0.3,0.8,0.4,1.6,0.4,2.4
		c0,0.9-0.1,1.7-0.4,2.5c-0.3,0.8-0.7,1.4-1.2,2c-0.5,0.6-1.1,1-1.8,1.3c-0.7,0.3-1.4,0.5-2.2,0.5c-0.8,0-1.5-0.2-2.2-0.5
		c-0.7-0.3-1.3-0.8-1.8-1.3c-0.5-0.6-0.9-1.2-1.2-2c-0.3-0.8-0.4-1.6-0.4-2.4C376.1,200.3,376.3,199.5,376.6,198.7z"/>
	<path fill="#FFFFFF" d="M402.7,204.2c0.4,1,0.9,1.8,1.6,2.6c0.7,0.8,1.5,1.3,2.5,1.8c1,0.4,2,0.6,3.1,0.6c0.7,0,1.4-0.1,2.1-0.3
		c0.7-0.2,1.3-0.5,1.9-0.8c0.6-0.3,1.1-0.8,1.5-1.2c0.4-0.5,0.7-1,1-1.5l-2-0.6c-0.1,0.4-0.3,0.7-0.6,1c-0.3,0.3-0.7,0.6-1.1,0.9
		c-0.4,0.2-0.9,0.4-1.4,0.6c-0.5,0.1-1,0.2-1.5,0.2c-0.8,0-1.5-0.2-2.2-0.5c-0.7-0.3-1.3-0.8-1.8-1.3c-0.5-0.6-0.9-1.2-1.2-2
		c-0.3-0.8-0.4-1.6-0.4-2.5c0-0.9,0.1-1.7,0.4-2.5c0.3-0.8,0.7-1.4,1.2-2c0.5-0.5,1.1-1,1.8-1.3c0.7-0.3,1.4-0.5,2.2-0.5
		c1,0,1.8,0.2,2.6,0.7c0.8,0.5,1.4,1.1,1.8,1.9l2-0.6c-0.6-1.1-1.4-2-2.5-2.7c-1.1-0.7-2.4-1-3.8-1c-1.2,0-2.2,0.2-3.2,0.6
		c-1,0.4-1.8,1-2.5,1.7c-0.7,0.7-1.2,1.6-1.6,2.6c-0.4,1-0.6,2-0.6,3.1C402.1,202.2,402.3,203.2,402.7,204.2z"/>
	<path fill="#FFFFFF" d="M430.5,208.6c0.9-0.4,1.8-1,2.4-1.8c0.7-0.7,1.2-1.6,1.6-2.6c0.4-1,0.6-2,0.6-3.1c0-1.1-0.2-2.1-0.6-3.1
		c-0.4-1-0.9-1.8-1.6-2.6c-0.7-0.7-1.5-1.3-2.4-1.8c-0.9-0.4-2-0.7-3.1-0.7c-1.1,0-2.1,0.2-3.1,0.7c-0.9,0.4-1.8,1-2.4,1.8
		c-0.7,0.7-1.2,1.6-1.6,2.6s-0.6,2-0.6,3.1c0,1.1,0.2,2.1,0.6,3.1c0.4,1,0.9,1.8,1.6,2.6c0.7,0.7,1.5,1.3,2.4,1.8
		c0.9,0.4,2,0.6,3.1,0.6C428.5,209.2,429.5,209,430.5,208.6z M422.2,198.7c0.3-0.8,0.7-1.4,1.2-2c0.5-0.6,1.1-1,1.8-1.4
		c0.7-0.3,1.4-0.5,2.2-0.5c0.8,0,1.5,0.2,2.2,0.5c0.7,0.3,1.3,0.8,1.8,1.3c0.5,0.6,0.9,1.2,1.2,2c0.3,0.8,0.4,1.6,0.4,2.4
		c0,0.9-0.1,1.7-0.4,2.5c-0.3,0.8-0.7,1.4-1.2,2c-0.5,0.6-1.1,1-1.8,1.3c-0.7,0.3-1.4,0.5-2.2,0.5c-0.8,0-1.5-0.2-2.2-0.5
		c-0.7-0.3-1.3-0.8-1.8-1.3c-0.5-0.6-0.9-1.2-1.2-2c-0.3-0.8-0.4-1.6-0.4-2.4C421.7,200.3,421.9,199.5,422.2,198.7z"/>
	<path fill="#FFFFFF" d="M462.9,199.8c0-1-0.1-1.9-0.3-2.8c-0.2-0.8-0.4-1.5-0.8-2.1c-0.4-0.6-0.9-1-1.5-1.4
		c-0.6-0.3-1.3-0.5-2.2-0.5c-2.6,0-4.6,1.3-6,4c-0.2-1.2-0.6-2.2-1.4-2.9c-0.8-0.7-1.9-1.1-3.2-1.1c-1.3,0-2.4,0.3-3.4,1
		c-1,0.7-1.9,1.6-2.5,2.8v-3.5h-1.8v15.6h2v-9.6c0.4-1.3,1.1-2.4,2-3.2c0.9-0.8,2-1.2,3.1-1.2c1.2,0,2,0.4,2.6,1.3
		c0.6,0.8,0.8,2.2,0.8,4v8.7h2v-9.5c0.2-0.7,0.4-1.3,0.8-1.8c0.3-0.5,0.7-1,1.2-1.4c0.4-0.4,0.9-0.7,1.5-0.9
		c0.5-0.2,1.1-0.3,1.7-0.3c1.2,0,2,0.4,2.6,1.3c0.6,0.9,0.9,2.2,0.9,4v8.7h2V199.8z"/>
	<path fill="#FFFFFF" d="M477.8,187.1h-2.1l-1.8,2.8l1.3,0.5L477.8,187.1z M477.4,208.9c0.7-0.2,1.3-0.5,1.9-0.8
		c0.6-0.3,1.1-0.8,1.5-1.2c0.4-0.5,0.8-1,1-1.6l-1.8-0.5c-0.2,0.4-0.4,0.8-0.8,1.2c-0.3,0.3-0.7,0.6-1.1,0.9
		c-0.4,0.2-0.9,0.4-1.4,0.6c-0.5,0.1-1,0.2-1.5,0.2c-0.8,0-1.5-0.1-2.1-0.4c-0.7-0.3-1.3-0.7-1.8-1.2c-0.5-0.5-0.9-1.1-1.3-1.8
		c-0.3-0.7-0.5-1.5-0.6-2.3h13.3c0-0.1,0-0.2,0-0.3c0-0.2,0-0.3,0-0.5c0-1.1-0.2-2.1-0.6-3.1c-0.4-1-0.9-1.8-1.6-2.5
		c-0.7-0.7-1.5-1.3-2.4-1.8c-0.9-0.4-2-0.6-3.1-0.6c-1.1,0-2.2,0.2-3.1,0.6c-0.9,0.4-1.8,1-2.5,1.7c-0.7,0.7-1.2,1.6-1.6,2.5
		c-0.4,1-0.6,2-0.6,3.1c0,1.1,0.2,2.2,0.6,3.1c0.4,1,0.9,1.8,1.6,2.6c0.7,0.8,1.5,1.3,2.5,1.8c1,0.4,2,0.6,3.1,0.6
		C476,209.2,476.7,209.1,477.4,208.9z M469.5,200.3c0.1-0.8,0.2-1.6,0.6-2.3c0.3-0.7,0.7-1.3,1.2-1.8c0.5-0.5,1.1-0.9,1.8-1.2
		c0.7-0.3,1.4-0.4,2.1-0.4c0.8,0,1.5,0.1,2.1,0.4c0.7,0.3,1.3,0.7,1.8,1.2c0.5,0.5,0.9,1.1,1.3,1.8c0.3,0.7,0.5,1.5,0.6,2.3H469.5z"
		/>
	<path fill="#FFFFFF" d="M495,193.3c-0.1,0-0.2,0-0.4,0c-0.2,0-0.3,0-0.5,0c-1,0-2,0.4-2.8,1.1c-0.9,0.7-1.6,1.6-2.1,2.7v-3.7h-1.9
		v15.6h2v-9.7c0.4-1.3,1.1-2.2,2.1-3c1-0.7,2.2-1.1,3.6-1.1V193.3z"/>
	<path fill="#FFFFFF" d="M498.6,204.2c0.4,1,0.9,1.8,1.6,2.6c0.7,0.8,1.5,1.3,2.5,1.8c1,0.4,2,0.6,3.1,0.6c0.7,0,1.4-0.1,2.1-0.3
		c0.7-0.2,1.3-0.5,1.9-0.8c0.6-0.3,1.1-0.8,1.5-1.2c0.4-0.5,0.7-1,1-1.5l-2-0.6c-0.1,0.4-0.3,0.7-0.6,1c-0.3,0.3-0.7,0.6-1.1,0.9
		c-0.4,0.2-0.9,0.4-1.4,0.6c-0.5,0.1-1,0.2-1.5,0.2c-0.8,0-1.5-0.2-2.2-0.5c-0.7-0.3-1.3-0.8-1.8-1.3c-0.5-0.6-0.9-1.2-1.2-2
		c-0.3-0.8-0.4-1.6-0.4-2.5c0-0.9,0.1-1.7,0.4-2.5c0.3-0.8,0.7-1.4,1.2-2c0.5-0.5,1.1-1,1.8-1.3c0.7-0.3,1.4-0.5,2.2-0.5
		c1,0,1.8,0.2,2.6,0.7c0.8,0.5,1.4,1.1,1.8,1.9l2-0.6c-0.6-1.1-1.4-2-2.5-2.7c-1.1-0.7-2.4-1-3.8-1c-1.2,0-2.2,0.2-3.2,0.6
		c-1,0.4-1.8,1-2.5,1.7c-0.7,0.7-1.2,1.6-1.6,2.6c-0.4,1-0.6,2-0.6,3.1C498.1,202.2,498.3,203.2,498.6,204.2z"/>
	<path fill="#FFFFFF" d="M518.9,208.9v-15.6h-2v15.6H518.9z M518.9,190.1v-3h-2v3H518.9z"/>
	<path fill="#FFFFFF" d="M534.3,208.6c0.9-0.4,1.8-1,2.4-1.8c0.7-0.7,1.2-1.6,1.6-2.6c0.4-1,0.6-2,0.6-3.1c0-1.1-0.2-2.1-0.6-3.1
		c-0.4-1-0.9-1.8-1.6-2.6c-0.7-0.7-1.5-1.3-2.4-1.8c-0.9-0.4-2-0.7-3.1-0.7c-1.1,0-2.1,0.2-3.1,0.7c-0.9,0.4-1.8,1-2.4,1.8
		c-0.7,0.7-1.2,1.6-1.6,2.6c-0.4,1-0.6,2-0.6,3.1c0,1.1,0.2,2.1,0.6,3.1c0.4,1,0.9,1.8,1.6,2.6c0.7,0.7,1.5,1.3,2.4,1.8
		c0.9,0.4,2,0.6,3.1,0.6C532.4,209.2,533.4,209,534.3,208.6z M526.1,198.7c0.3-0.8,0.7-1.4,1.2-2c0.5-0.6,1.1-1,1.8-1.4
		c0.7-0.3,1.4-0.5,2.2-0.5c0.8,0,1.5,0.2,2.2,0.5c0.7,0.3,1.3,0.8,1.8,1.3c0.5,0.6,0.9,1.2,1.2,2c0.3,0.8,0.4,1.6,0.4,2.4
		c0,0.9-0.1,1.7-0.4,2.5c-0.3,0.8-0.7,1.4-1.2,2c-0.5,0.6-1.1,1-1.8,1.3c-0.7,0.3-1.4,0.5-2.2,0.5c-0.8,0-1.5-0.2-2.2-0.5
		c-0.7-0.3-1.3-0.8-1.8-1.3c-0.5-0.6-0.9-1.2-1.2-2c-0.3-0.8-0.4-1.6-0.4-2.4C525.6,200.3,525.8,199.5,526.1,198.7z"/>
	<path fill="#FFFFFF" d="M561.6,208.9c0.7-0.2,1.3-0.5,1.9-0.8c0.6-0.3,1.1-0.8,1.5-1.2c0.4-0.5,0.8-1,1-1.6l-1.8-0.5
		c-0.2,0.4-0.4,0.8-0.8,1.2c-0.3,0.3-0.7,0.6-1.1,0.9c-0.4,0.2-0.9,0.4-1.4,0.6c-0.5,0.1-1,0.2-1.5,0.2c-0.8,0-1.5-0.1-2.1-0.4
		c-0.7-0.3-1.3-0.7-1.8-1.2c-0.5-0.5-0.9-1.1-1.3-1.8c-0.3-0.7-0.5-1.5-0.6-2.3H567c0-0.1,0-0.2,0-0.3c0-0.2,0-0.3,0-0.5
		c0-1.1-0.2-2.1-0.6-3.1c-0.4-1-0.9-1.8-1.6-2.5c-0.7-0.7-1.5-1.3-2.4-1.8c-0.9-0.4-2-0.6-3.1-0.6c-1.1,0-2.2,0.2-3.1,0.6
		c-0.9,0.4-1.8,1-2.5,1.7c-0.7,0.7-1.2,1.6-1.6,2.5c-0.4,1-0.6,2-0.6,3.1c0,1.1,0.2,2.2,0.6,3.1c0.4,1,0.9,1.8,1.6,2.6
		c0.7,0.8,1.5,1.3,2.5,1.8c1,0.4,2,0.6,3.1,0.6C560.1,209.2,560.9,209.1,561.6,208.9z M553.7,200.3c0.1-0.8,0.2-1.6,0.6-2.3
		c0.3-0.7,0.7-1.3,1.2-1.8c0.5-0.5,1.1-0.9,1.8-1.2c0.7-0.3,1.4-0.4,2.1-0.4c0.8,0,1.5,0.1,2.1,0.4c0.7,0.3,1.3,0.7,1.8,1.2
		c0.5,0.5,0.9,1.1,1.3,1.8c0.3,0.7,0.5,1.5,0.6,2.3H553.7z"/>
	<path fill="#FFFFFF" d="M571.6,206.1c0,1,0.3,1.7,0.8,2.2c0.5,0.5,1.3,0.8,2.2,0.8c0.4,0,0.9,0,1.4-0.1c0.5-0.1,1-0.2,1.4-0.4
		l-0.4-1.6c-0.3,0.1-0.5,0.2-0.8,0.2c-0.3,0.1-0.6,0.1-0.8,0.1c-0.6,0-1-0.2-1.3-0.5c-0.3-0.3-0.5-0.8-0.5-1.4v-18.3h-2V206.1z"/>
	<path fill="#FFFFFF" d="M589.6,208.9c0.7-0.2,1.3-0.5,1.9-0.8c0.6-0.3,1.1-0.8,1.5-1.2c0.4-0.5,0.8-1,1-1.6l-1.8-0.5
		c-0.2,0.4-0.4,0.8-0.8,1.2c-0.3,0.3-0.7,0.6-1.1,0.9c-0.4,0.2-0.9,0.4-1.4,0.6c-0.5,0.1-1,0.2-1.5,0.2c-0.8,0-1.5-0.1-2.1-0.4
		c-0.7-0.3-1.3-0.7-1.8-1.2c-0.5-0.5-0.9-1.1-1.3-1.8c-0.3-0.7-0.5-1.5-0.6-2.3h13.3c0-0.1,0-0.2,0-0.3c0-0.2,0-0.3,0-0.5
		c0-1.1-0.2-2.1-0.6-3.1c-0.4-1-0.9-1.8-1.6-2.5c-0.7-0.7-1.5-1.3-2.4-1.8c-0.9-0.4-2-0.6-3.1-0.6c-1.1,0-2.2,0.2-3.1,0.6
		c-0.9,0.4-1.8,1-2.5,1.7c-0.7,0.7-1.2,1.6-1.6,2.5c-0.4,1-0.6,2-0.6,3.1c0,1.1,0.2,2.2,0.6,3.1c0.4,1,0.9,1.8,1.6,2.6
		c0.7,0.8,1.5,1.3,2.5,1.8c1,0.4,2,0.6,3.1,0.6C588.2,209.2,588.9,209.1,589.6,208.9z M581.8,200.3c0.1-0.8,0.2-1.6,0.6-2.3
		c0.3-0.7,0.7-1.3,1.2-1.8c0.5-0.5,1.1-0.9,1.8-1.2c0.7-0.3,1.4-0.4,2.1-0.4c0.8,0,1.5,0.1,2.1,0.4c0.7,0.3,1.3,0.7,1.8,1.2
		c0.5,0.5,0.9,1.1,1.3,1.8c0.3,0.7,0.5,1.5,0.6,2.3H581.8z"/>
	<path fill="#FFFFFF" d="M606.4,206.5c-0.1,0.1-0.4,0.2-0.8,0.4c-0.4,0.2-0.9,0.3-1.5,0.3c-0.5,0-0.9-0.1-1.3-0.4
		c-0.4-0.3-0.6-0.7-0.6-1.3v-10.6h3.6v-1.6h-3.6V188h-2v5.3h-2.1v1.6h2.1v11.2c0,0.5,0.1,0.9,0.3,1.3c0.2,0.4,0.4,0.7,0.7,0.9
		c0.3,0.2,0.6,0.4,1,0.6c0.4,0.1,0.8,0.2,1.3,0.2c0.4,0,0.8,0,1.2-0.1c0.4-0.1,0.7-0.2,1-0.3c0.3-0.1,0.6-0.2,0.8-0.3
		c0.2-0.1,0.4-0.2,0.5-0.2L606.4,206.5z"/>
	<path fill="#FFFFFF" d="M618.4,193.3c-0.1,0-0.2,0-0.4,0c-0.2,0-0.3,0-0.5,0c-1,0-2,0.4-2.8,1.1c-0.9,0.7-1.6,1.6-2.1,2.7v-3.7
		h-1.9v15.6h2v-9.7c0.4-1.3,1.1-2.2,2.1-3c1-0.7,2.2-1.1,3.6-1.1V193.3z"/>
	<path fill="#FFFFFF" d="M626.6,190.2l2.5-1.9l2.5,1.9l1.2-0.6l-3-2.5h-1.5l-2.9,2.5L626.6,190.2z M632.2,208.6
		c0.9-0.4,1.8-1,2.4-1.8c0.7-0.7,1.2-1.6,1.6-2.6c0.4-1,0.6-2,0.6-3.1c0-1.1-0.2-2.1-0.6-3.1c-0.4-1-0.9-1.8-1.6-2.6
		c-0.7-0.7-1.5-1.3-2.4-1.8c-0.9-0.4-2-0.7-3.1-0.7c-1.1,0-2.1,0.2-3.1,0.7c-0.9,0.4-1.8,1-2.4,1.8c-0.7,0.7-1.2,1.6-1.6,2.6
		c-0.4,1-0.6,2-0.6,3.1c0,1.1,0.2,2.1,0.6,3.1c0.4,1,0.9,1.8,1.6,2.6c0.7,0.7,1.5,1.3,2.4,1.8c0.9,0.4,2,0.6,3.1,0.6
		C630.3,209.2,631.3,209,632.2,208.6z M624,198.7c0.3-0.8,0.7-1.4,1.2-2c0.5-0.6,1.1-1,1.8-1.4c0.7-0.3,1.4-0.5,2.2-0.5
		c0.8,0,1.5,0.2,2.2,0.5c0.7,0.3,1.3,0.8,1.8,1.3c0.5,0.6,0.9,1.2,1.2,2c0.3,0.8,0.4,1.6,0.4,2.4c0,0.9-0.1,1.7-0.4,2.5
		c-0.3,0.8-0.7,1.4-1.2,2c-0.5,0.6-1.1,1-1.8,1.3c-0.7,0.3-1.4,0.5-2.2,0.5c-0.8,0-1.5-0.2-2.2-0.5c-0.7-0.3-1.3-0.8-1.8-1.3
		c-0.5-0.6-0.9-1.2-1.2-2c-0.3-0.8-0.4-1.6-0.4-2.4C623.5,200.3,623.7,199.5,624,198.7z"/>
	<path fill="#FFFFFF" d="M654.6,199.8c0-1-0.1-1.9-0.2-2.8c-0.2-0.8-0.4-1.5-0.8-2.1c-0.4-0.6-0.8-1-1.4-1.3
		c-0.6-0.3-1.3-0.5-2.2-0.5c-0.7,0-1.4,0.1-2,0.3c-0.6,0.2-1.3,0.4-1.8,0.8c-0.6,0.3-1.1,0.7-1.6,1.2c-0.5,0.5-0.9,1-1.2,1.5v-3.5
		h-1.8v15.6h2v-9.6c0.2-0.6,0.5-1.2,0.9-1.8c0.4-0.5,0.8-1,1.4-1.4c0.5-0.4,1.1-0.7,1.7-0.9c0.6-0.2,1.2-0.3,1.8-0.3
		c1.1,0,2,0.4,2.5,1.3c0.5,0.8,0.8,2.2,0.8,4v8.7h2V199.8z"/>
	<path fill="#FFFFFF" d="M662.2,208.9v-15.6h-2v15.6H662.2z M662.2,190.1v-3h-2v3H662.2z"/>
	<path fill="#FFFFFF" d="M667.4,204.2c0.4,1,0.9,1.8,1.6,2.6c0.7,0.8,1.5,1.3,2.5,1.8c1,0.4,2,0.6,3.1,0.6c0.7,0,1.4-0.1,2.1-0.3
		c0.7-0.2,1.3-0.5,1.9-0.8c0.6-0.3,1.1-0.8,1.5-1.2c0.4-0.5,0.7-1,1-1.5l-2-0.6c-0.1,0.4-0.3,0.7-0.6,1c-0.3,0.3-0.7,0.6-1.1,0.9
		c-0.4,0.2-0.9,0.4-1.4,0.6c-0.5,0.1-1,0.2-1.5,0.2c-0.8,0-1.5-0.2-2.2-0.5c-0.7-0.3-1.3-0.8-1.8-1.3c-0.5-0.6-0.9-1.2-1.2-2
		c-0.3-0.8-0.4-1.6-0.4-2.5c0-0.9,0.1-1.7,0.4-2.5c0.3-0.8,0.7-1.4,1.2-2c0.5-0.5,1.1-1,1.8-1.3c0.7-0.3,1.4-0.5,2.2-0.5
		c1,0,1.8,0.2,2.6,0.7c0.8,0.5,1.4,1.1,1.8,1.9l2-0.6c-0.6-1.1-1.4-2-2.5-2.7c-1.1-0.7-2.4-1-3.8-1c-1.2,0-2.2,0.2-3.2,0.6
		c-1,0.4-1.8,1-2.5,1.7c-0.7,0.7-1.2,1.6-1.6,2.6c-0.4,1-0.6,2-0.6,3.1C666.8,202.2,667,203.2,667.4,204.2z"/>
	<path fill="#FFFFFF" d="M695.2,208.6c0.9-0.4,1.8-1,2.4-1.8c0.7-0.7,1.2-1.6,1.6-2.6c0.4-1,0.6-2,0.6-3.1c0-1.1-0.2-2.1-0.6-3.1
		c-0.4-1-0.9-1.8-1.6-2.6c-0.7-0.7-1.5-1.3-2.4-1.8c-0.9-0.4-2-0.7-3.1-0.7c-1.1,0-2.1,0.2-3.1,0.7c-0.9,0.4-1.8,1-2.4,1.8
		c-0.7,0.7-1.2,1.6-1.6,2.6s-0.6,2-0.6,3.1c0,1.1,0.2,2.1,0.6,3.1c0.4,1,0.9,1.8,1.6,2.6c0.7,0.7,1.5,1.3,2.4,1.8
		c0.9,0.4,2,0.6,3.1,0.6C693.3,209.2,694.3,209,695.2,208.6z M686.9,198.7c0.3-0.8,0.7-1.4,1.2-2c0.5-0.6,1.1-1,1.8-1.4
		c0.7-0.3,1.4-0.5,2.2-0.5c0.8,0,1.5,0.2,2.2,0.5c0.7,0.3,1.3,0.8,1.8,1.3c0.5,0.6,0.9,1.2,1.2,2c0.3,0.8,0.4,1.6,0.4,2.4
		c0,0.9-0.1,1.7-0.4,2.5c-0.3,0.8-0.7,1.4-1.2,2c-0.5,0.6-1.1,1-1.8,1.3c-0.7,0.3-1.4,0.5-2.2,0.5c-0.8,0-1.5-0.2-2.2-0.5
		c-0.7-0.3-1.3-0.8-1.8-1.3c-0.5-0.6-0.9-1.2-1.2-2c-0.3-0.8-0.4-1.6-0.4-2.4C686.5,200.3,686.7,199.5,686.9,198.7z"/>
	<path fill="#FFFFFF" d="M218.8,136c3.4-2.1,5.9-4.7,7.4-8l-7.8-2.2c-0.4,1-1,1.9-1.8,2.7c-0.8,0.8-1.7,1.5-2.6,2.1s-2.1,1-3.3,1.3
		c-1.2,0.3-2.4,0.5-3.6,0.5c-1.7,0-3.2-0.3-4.8-0.9c-1.5-0.6-2.9-1.5-4.1-2.6c-1.2-1.1-2.2-2.5-2.9-4c-0.7-1.6-1.2-3.3-1.4-5.2h34.7
		c0.1-0.4,0.1-0.9,0.2-1.5c0.1-0.6,0.1-1.2,0.1-1.9c0-2.9-0.5-5.7-1.5-8.4c-1-2.7-2.5-5-4.4-7.1c-1.9-2-4.3-3.6-7-4.9
		c-2.7-1.2-5.8-1.8-9.1-1.8c-3.4,0-6.5,0.6-9.3,1.8c-2.8,1.2-5.1,2.8-7.1,4.9c-2,2.1-3.5,4.5-4.6,7.2c-1.1,2.7-1.6,5.6-1.6,8.7
		c0,3,0.5,5.9,1.6,8.6c1.1,2.7,2.6,5.1,4.6,7.1c2,2,4.3,3.7,7.1,4.9c2.8,1.2,5.8,1.8,9.2,1.8C211.3,139.1,215.3,138,218.8,136z
		 M193.7,113.2c0.2-1.8,0.6-3.5,1.3-5.1c0.7-1.6,1.7-2.9,2.8-3.9c1.2-1.1,2.5-1.9,4-2.5c1.5-0.6,3.1-0.9,4.8-0.9
		c1.7,0,3.3,0.3,4.9,0.9c1.5,0.6,2.9,1.5,4.1,2.5c1.2,1.1,2.1,2.4,2.9,3.9c0.7,1.6,1.2,3.2,1.4,5.1H193.7z"/>
	<path fill="#FFFFFF" d="M242.1,119.4c1.3,3.6,3.3,6.9,5.7,9.7c2.5,2.9,5.4,5.2,8.7,6.9c3.4,1.8,7.1,2.7,11.2,2.7
		c2.3,0,4.7-0.3,7-0.9c2.4-0.6,4.6-1.5,6.7-2.7c2.1-1.2,4-2.6,5.7-4.3c1.7-1.7,3-3.6,3.9-5.9l-7.7-4.4c-0.8,1.7-1.7,3.2-2.9,4.4
		c-1.2,1.2-2.4,2.2-3.8,3c-1.4,0.8-2.8,1.4-4.3,1.7c-1.5,0.4-3,0.5-4.3,0.5c-2.7,0-5.2-0.6-7.5-1.8c-2.3-1.2-4.2-2.8-5.9-4.8
		c-1.7-2-2.9-4.3-3.8-6.9c-0.9-2.6-1.4-5.3-1.4-8.2c0-2.5,0.4-5.1,1.2-7.6c0.8-2.5,1.9-4.8,3.5-6.9c1.5-2,3.5-3.7,5.8-4.9
		c2.3-1.2,4.9-1.9,7.9-1.9c1.4,0,2.8,0.2,4.2,0.5c1.4,0.3,2.8,0.8,4.2,1.5c1.4,0.7,2.6,1.7,3.8,2.9c1.2,1.2,2.1,2.7,2.9,4.5l7.3-4.9
		c-1.9-3.8-4.7-6.9-8.5-9.3c-3.8-2.4-8.3-3.6-13.5-3.6c-4.4,0-8.4,0.9-11.8,2.6c-3.5,1.7-6.4,4-8.8,6.8c-2.4,2.8-4.2,6-5.5,9.5
		c-1.3,3.5-1.9,7-1.9,10.6C240.1,112.1,240.8,115.8,242.1,119.4z"/>
	<path fill="#FFFFFF" d="M333.1,137.2c2.7-1.2,5.1-2.9,7-4.9c2-2,3.5-4.4,4.5-7.2c1-2.7,1.6-5.6,1.6-8.6c0-3-0.5-5.9-1.6-8.6
		c-1-2.7-2.6-5.1-4.5-7.2c-2-2-4.3-3.7-7-4.9c-2.7-1.2-5.8-1.8-9.1-1.8c-3.4,0-6.4,0.6-9.1,1.8c-2.7,1.2-5.1,2.9-7,4.9
		c-2,2.1-3.5,4.4-4.5,7.2c-1,2.7-1.6,5.6-1.6,8.6c0,3,0.5,5.9,1.6,8.6c1,2.7,2.5,5.1,4.5,7.2c1.9,2,4.3,3.7,7,4.9
		c2.7,1.2,5.8,1.8,9.2,1.8C327.3,139.1,330.3,138.5,333.1,137.2z M312,110.9c0.7-1.8,1.6-3.4,2.8-4.7c1.2-1.3,2.5-2.4,4.1-3.2
		c1.6-0.8,3.2-1.2,5-1.2c1.8,0,3.5,0.4,5.1,1.1c1.6,0.7,2.9,1.8,4.1,3.1c1.2,1.3,2.1,2.9,2.7,4.7c0.7,1.8,1,3.7,1,5.8
		c0,2.1-0.3,4-1,5.8c-0.7,1.8-1.6,3.3-2.7,4.7c-1.2,1.3-2.5,2.4-4.1,3.1c-1.6,0.7-3.3,1.1-5.1,1.1c-1.8,0-3.5-0.4-5.1-1.1
		c-1.6-0.7-2.9-1.8-4.1-3.1c-1.2-1.3-2.1-2.8-2.7-4.6c-0.7-1.8-1-3.7-1-5.8C311,114.6,311.4,112.7,312,110.9z"/>
	<path fill="#FFFFFF" d="M426.6,111.7c0-2.4-0.2-4.6-0.6-6.8c-0.4-2.1-1.1-4-2.1-5.6c-1-1.6-2.3-2.9-4-3.9c-1.7-1-3.8-1.5-6.3-1.5
		c-3.5,0-6.6,0.8-9.4,2.5c-2.8,1.7-5,4.1-6.9,7.4c-0.6-2.8-1.9-5.2-3.9-7.1c-2-1.9-4.9-2.8-8.5-2.8c-3.6,0-6.8,0.8-9.6,2.5
		c-2.8,1.6-5,4-6.7,7v-8.7h-8.3v43.5h9.1v-25.8c0.9-3,2.5-5.5,4.7-7.4c2.2-1.9,4.5-2.8,7.1-2.8c2.5,0,4.5,0.9,5.8,2.8
		c1.3,1.9,1.9,4.8,1.9,8.9v24.3h9.1v-25.8c0.9-3,2.5-5.5,4.6-7.4c2.2-1.9,4.5-2.9,7.1-2.9c2.5,0,4.4,0.9,5.8,2.8
		c1.4,1.9,2,4.8,2,8.9v24.3h9.1V111.7z"/>
	<path fill="#FFFFFF" d="M509.2,111.7c0-2.4-0.2-4.6-0.6-6.8c-0.4-2.1-1.1-4-2.1-5.6c-1-1.6-2.3-2.9-4-3.9c-1.7-1-3.8-1.5-6.3-1.5
		c-3.5,0-6.6,0.8-9.4,2.5c-2.8,1.7-5.1,4.1-6.9,7.4c-0.6-2.8-1.8-5.2-3.9-7.1c-2-1.9-4.9-2.8-8.5-2.8c-3.6,0-6.8,0.8-9.6,2.5
		c-2.8,1.6-5,4-6.7,7v-8.7h-8.3v43.5h9.1v-25.8c0.9-3,2.5-5.5,4.7-7.4c2.2-1.9,4.5-2.8,7.1-2.8c2.5,0,4.5,0.9,5.8,2.8
		c1.3,1.9,1.9,4.8,1.9,8.9v24.3h9.1v-25.8c0.9-3,2.5-5.5,4.6-7.4c2.2-1.9,4.5-2.9,7.1-2.9c2.5,0,4.4,0.9,5.8,2.8
		c1.4,1.9,2,4.8,2,8.9v24.3h9.1V111.7z"/>
	<path fill="#FFFFFF" d="M557.5,136c3.4-2.1,5.9-4.7,7.4-8l-7.8-2.2c-0.4,1-1,1.9-1.8,2.7c-0.8,0.8-1.7,1.5-2.6,2.1
		c-1,0.6-2.1,1-3.3,1.3c-1.2,0.3-2.4,0.5-3.6,0.5c-1.7,0-3.2-0.3-4.8-0.9c-1.5-0.6-2.9-1.5-4.1-2.6c-1.2-1.1-2.2-2.5-2.9-4
		c-0.7-1.6-1.2-3.3-1.4-5.2h34.7c0.1-0.4,0.1-0.9,0.2-1.5c0.1-0.6,0.1-1.2,0.1-1.9c0-2.9-0.5-5.7-1.5-8.4c-1-2.7-2.5-5-4.4-7.1
		c-1.9-2-4.3-3.6-7-4.9c-2.7-1.2-5.8-1.8-9.1-1.8c-3.4,0-6.5,0.6-9.3,1.8c-2.8,1.2-5.1,2.8-7.1,4.9c-2,2.1-3.5,4.5-4.6,7.2
		c-1.1,2.7-1.6,5.6-1.6,8.7c0,3,0.5,5.9,1.6,8.6c1.1,2.7,2.6,5.1,4.6,7.1c2,2,4.3,3.7,7.1,4.9c2.8,1.2,5.8,1.8,9.2,1.8
		C550,139.1,554,138,557.5,136z M532.4,113.2c0.2-1.8,0.6-3.5,1.3-5.1c0.7-1.6,1.7-2.9,2.8-3.9c1.2-1.1,2.5-1.9,4-2.5
		c1.5-0.6,3.1-0.9,4.8-0.9c1.7,0,3.3,0.3,4.9,0.9c1.5,0.6,2.9,1.5,4.1,2.5c1.2,1.1,2.1,2.4,2.9,3.9c0.7,1.6,1.2,3.2,1.4,5.1H532.4z"
		/>
	<path fill="#FFFFFF" d="M605.4,94.5c-0.3-0.1-0.6-0.1-1-0.1c-0.4,0-0.8,0-1.4,0c-2.7,0-5.3,0.9-7.7,2.8c-2.4,1.9-4.4,4.3-5.9,7.3
		v-9.7h-8.4v43.5h9.1v-26.6c1.2-2.8,3.2-5,5.9-6.5c2.7-1.5,5.8-2.3,9.4-2.5V94.5z"/>
	<path fill="#FFFFFF" d="M617.2,125.1c1.1,2.7,2.6,5.1,4.6,7.2c2,2.1,4.3,3.7,7.1,4.9c2.8,1.2,5.8,1.8,9.2,1.8c4.6,0,8.6-1,11.9-3.1
		c3.4-2.1,5.8-4.7,7.2-8l-8.9-2.7c-0.3,0.8-0.8,1.6-1.5,2.3c-0.7,0.7-1.5,1.4-2.4,1.9c-0.9,0.6-1.9,1-3,1.3
		c-1.1,0.3-2.2,0.5-3.3,0.5c-1.8,0-3.4-0.4-5-1.1c-1.6-0.7-3-1.8-4.1-3.1c-1.2-1.3-2.1-2.9-2.8-4.7c-0.7-1.8-1-3.8-1-5.9
		c0-2.2,0.3-4.1,1-5.9c0.7-1.8,1.6-3.3,2.7-4.6c1.2-1.3,2.5-2.3,4.1-3c1.6-0.7,3.3-1.1,5.1-1.1c2.2,0,4.1,0.5,5.9,1.5
		c1.8,1,3.2,2.5,4.2,4.3l8.9-2.8c-1.6-3.3-4-5.9-7.2-7.9c-3.2-2-7.1-2.9-11.5-2.9c-3.4,0-6.5,0.6-9.3,1.8c-2.8,1.2-5.1,2.8-7.1,4.9
		c-2,2-3.5,4.4-4.5,7.1c-1,2.7-1.6,5.6-1.6,8.6C615.6,119.5,616.1,122.4,617.2,125.1z"/>
	<path fill="#FFFFFF" d="M702.6,136c3.4-2.1,5.9-4.7,7.4-8l-7.8-2.2c-0.4,1-1,1.9-1.8,2.7c-0.8,0.8-1.7,1.5-2.6,2.1
		c-1,0.6-2.1,1-3.3,1.3c-1.2,0.3-2.4,0.5-3.6,0.5c-1.7,0-3.2-0.3-4.8-0.9c-1.5-0.6-2.9-1.5-4.1-2.6c-1.2-1.1-2.2-2.5-2.9-4
		c-0.7-1.6-1.2-3.3-1.4-5.2h34.7c0.1-0.4,0.1-0.9,0.2-1.5c0.1-0.6,0.1-1.2,0.1-1.9c0-2.9-0.5-5.7-1.5-8.4c-1-2.7-2.5-5-4.4-7.1
		c-1.9-2-4.3-3.6-7-4.9c-2.7-1.2-5.8-1.8-9.1-1.8c-3.4,0-6.5,0.6-9.3,1.8c-2.8,1.2-5.1,2.8-7.1,4.9c-2,2.1-3.5,4.5-4.6,7.2
		c-1.1,2.7-1.6,5.6-1.6,8.7c0,3,0.5,5.9,1.6,8.6c1.1,2.7,2.6,5.1,4.6,7.1c2,2,4.3,3.7,7.1,4.9c2.8,1.2,5.8,1.8,9.2,1.8
		C695.1,139.1,699.1,138,702.6,136z M677.5,113.2c0.2-1.8,0.6-3.5,1.3-5.1c0.7-1.6,1.7-2.9,2.8-3.9c1.2-1.1,2.5-1.9,4-2.5
		c1.5-0.6,3.1-0.9,4.8-0.9c1.7,0,3.3,0.3,4.9,0.9c1.5,0.6,2.9,1.5,4.1,2.5c1.2,1.1,2.1,2.4,2.9,3.9c0.7,1.6,1.2,3.2,1.4,5.1H677.5z"
		/>
	<path fill="#FFFFFF" d="M208.3,8.2c-2.4-2.4-5-4.2-7.8-5.3c-2.8-1.1-6.2-1.7-10-1.7c-3.1,0-6,0.4-8.5,1.1c-2.5,0.7-4.7,1.8-6.5,3.1
		c-1.8,1.4-3.2,3-4.2,5.1c-1,2-1.5,4.3-1.5,6.9c0,2.4,0.4,4.5,1.3,6.1c0.9,1.6,2.1,3,3.8,4.1c1.7,1.1,3.8,2,6.2,2.7
		c2.5,0.7,5.3,1.4,8.5,2.1c3.3,0.7,6.1,1.4,8.4,2.1c2.4,0.7,4.3,1.6,5.9,2.7c1.6,1,2.7,2.3,3.5,3.7c0.8,1.5,1.2,3.3,1.2,5.4
		c0,4.2-1.6,7.2-4.8,9.3c-3.2,2-7.5,3-13,3c-4.5,0-8.5-0.7-12-2.2c-3.5-1.4-6.7-3.6-9.4-6.4l-1.7,2.1c3.1,3,6.6,5.3,10.3,6.8
		c3.8,1.5,8,2.2,12.7,2.2c3.1,0,6-0.3,8.6-1c2.6-0.6,4.8-1.6,6.6-2.9c1.8-1.3,3.2-2.9,4.2-4.7c1-1.9,1.5-4.1,1.5-6.6
		c0-2.6-0.5-4.8-1.5-6.6c-1-1.8-2.4-3.3-4.2-4.4c-1.8-1.2-4-2.2-6.6-2.9c-2.6-0.8-5.5-1.5-8.7-2.2c-3.1-0.7-5.9-1.3-8.1-2
		c-2.3-0.6-4.1-1.4-5.6-2.4c-1.5-0.9-2.5-2.1-3.2-3.4c-0.7-1.4-1-3-1-5c0-4,1.4-7.2,4.2-9.6c2.8-2.4,7.4-3.6,13.7-3.6
		c3.5,0,6.5,0.5,9.1,1.5c2.6,1,4.9,2.6,7,5L208.3,8.2z"/>
	<path fill="#FFFFFF" d="M244,56.3c-0.1,0.1-0.3,0.2-0.7,0.4c-0.4,0.2-0.9,0.5-1.5,0.7c-0.6,0.2-1.4,0.5-2.2,0.7
		c-0.8,0.2-1.6,0.3-2.5,0.3c-1.4,0-2.7-0.4-3.8-1.2c-1.1-0.8-1.7-2-1.8-3.7V19.9h10.3v-2.5h-10.3V2.6h-2.8v14.9h-6.1v2.5h6.1v34
		c0,1.1,0.2,2.1,0.7,3c0.4,0.9,1,1.6,1.7,2.2c0.7,0.6,1.6,1.1,2.5,1.4c1,0.3,2,0.5,3,0.5c1.2,0,2.2-0.1,3.2-0.3
		c1-0.2,1.8-0.5,2.6-0.8c0.7-0.3,1.4-0.6,1.8-0.8c0.5-0.2,0.8-0.4,0.9-0.5L244,56.3z"/>
	<path fill="#FFFFFF" d="M279.2,59.4c3.2-1.4,5.7-3.4,7.7-6v3.8c0,1,0.3,1.8,1,2.5c0.7,0.7,1.5,1,2.4,1c0.3,0,0.5,0,0.7-0.1V58
		c-1,0-1.5-0.6-1.5-1.8V33.6c0-5.2-1.4-9.3-4.3-12.3c-2.9-3-6.9-4.5-11.9-4.5c-4.6,0-9.7,1.9-15.3,5.6l1.3,2.1
		c2.4-1.7,4.8-3,7.2-3.9c2.3-0.9,4.6-1.4,6.7-1.4c4.1,0,7.4,1.3,9.9,3.9c2.5,2.6,3.7,6,3.7,10.3v4.7c-1.9-0.8-4.1-1.4-6.6-1.7
		c-2.5-0.4-4.9-0.6-7.3-0.6c-2.6,0-5.1,0.3-7.2,0.9c-2.2,0.6-4.1,1.5-5.6,2.6c-1.6,1.1-2.8,2.4-3.7,3.9c-0.9,1.5-1.3,3.2-1.3,5
		c0,1.9,0.4,3.6,1.1,5.2c0.7,1.6,1.7,3,3,4.2c1.3,1.2,2.8,2.1,4.5,2.8c1.7,0.7,3.6,1,5.5,1C272.6,61.5,276,60.8,279.2,59.4z
		 M264.7,58.2c-1.4-0.6-2.7-1.3-3.7-2.3c-1-1-1.8-2.2-2.4-3.5c-0.6-1.3-0.9-2.8-0.9-4.3c0-3.1,1.4-5.6,4.2-7.4
		c2.8-1.9,6.5-2.8,11-2.8c4.9,0,9.5,0.8,13.7,2.5v8.1c0,1.1-0.4,2.2-1.3,3.3c-1.4,2.2-3.6,4-6.5,5.3c-2.9,1.3-6,2-9.5,2
		C267.7,59.1,266.2,58.8,264.7,58.2z"/>
	<path fill="#FFFFFF" d="M343,36.2c0-6.5-1-11.3-3-14.6c-2-3.2-5.2-4.9-9.8-4.9c-1.9,0-3.8,0.3-5.7,0.8c-1.9,0.6-3.6,1.3-5.3,2.3
		c-1.7,1-3.2,2.2-4.5,3.6c-1.4,1.4-2.5,3-3.4,4.7V17.4h-2.6v43.2h2.8v-27c0.6-2,1.4-3.9,2.7-5.7c1.2-1.7,2.7-3.2,4.3-4.5
		c1.6-1.3,3.4-2.3,5.3-3c1.9-0.7,3.8-1.1,5.8-1.1c3.6,0,6.3,1.4,7.9,4.1c1.7,2.7,2.5,7.1,2.5,13v24.1h2.8V36.2z"/>
	<path fill="#FFFFFF" d="M384.6,60.8c1.6-0.5,3.1-1.1,4.6-2c1.4-0.8,2.8-1.8,4-3c1.2-1.2,2.3-2.5,3.2-3.9v5.3c0,0.9,0.3,1.7,1,2.5
		c0.7,0.7,1.5,1.1,2.4,1.1c0.3,0,0.6,0,0.7-0.1V58c-1,0-1.5-0.6-1.5-1.8V0h-2.8v27.3c-0.9-1.4-1.9-2.7-3.1-4
		c-1.2-1.3-2.5-2.4-3.9-3.4c-1.4-1-3-1.7-4.7-2.3c-1.7-0.6-3.5-0.8-5.5-0.8c-2.9,0-5.5,0.6-7.9,1.8c-2.4,1.2-4.5,2.9-6.3,4.9
		c-1.8,2-3.1,4.4-4.1,7.1c-1,2.7-1.5,5.6-1.5,8.6c0,2.8,0.5,5.6,1.5,8.2c1,2.7,2.5,5,4.3,7.1c1.8,2.1,4,3.8,6.6,5
		c2.5,1.3,5.3,1.9,8.3,1.9C381.4,61.5,383,61.2,384.6,60.8z M373,57.2c-2.2-1.1-4.1-2.5-5.8-4.3c-1.7-1.8-3-3.9-3.9-6.2
		c-0.9-2.4-1.4-4.8-1.4-7.4c0-2.5,0.4-4.9,1.2-7.3c0.8-2.4,2-4.5,3.5-6.3c1.5-1.9,3.4-3.4,5.5-4.5c2.2-1.1,4.6-1.7,7.2-1.7
		c1.7,0,3.4,0.3,5.1,1c1.7,0.6,3.4,1.5,4.9,2.6c1.5,1.1,2.9,2.4,4.1,3.8c1.2,1.5,2.1,3,2.7,4.7v14.9c-0.2,1.7-0.8,3.3-1.9,4.8
		c-1.1,1.5-2.4,2.9-4,4c-1.6,1.1-3.3,2-5.1,2.7c-1.8,0.7-3.5,1-5.1,1C377.6,58.8,375.2,58.3,373,57.2z"/>
	<path fill="#FFFFFF" d="M461.3,56c-2.7-1.6-4.9-3.6-6.6-6.1c-1.7-2.5-2.8-5.4-3.5-8.6c-0.7-3.2-1-6.6-1-10V1.7h-2.8v29.6
		c0,3.7,0.4,7.4,1.2,10.9c0.8,3.6,2.1,6.8,4,9.6c1.9,2.8,4.4,5.1,7.5,6.8c3.1,1.7,7,2.6,11.6,2.6c4.5,0,8.3-0.8,11.4-2.5
		c3.1-1.6,5.6-3.8,7.5-6.6c1.9-2.7,3.3-5.9,4.1-9.5c0.8-3.6,1.2-7.4,1.2-11.3V1.7H493v29.6c0,3.3-0.3,6.6-1,9.8
		c-0.7,3.2-1.8,6.1-3.4,8.7c-1.6,2.5-3.8,4.6-6.6,6.2c-2.8,1.6-6.3,2.4-10.5,2.4C467.4,58.3,464,57.5,461.3,56z"/>
	<path fill="#FFFFFF" d="M544,59.7c2.4-1.2,4.5-2.8,6.2-4.9c1.7-2,3.1-4.4,4.1-7.1c1-2.7,1.4-5.6,1.4-8.6c0-2.8-0.5-5.5-1.5-8.2
		c-1-2.7-2.4-5.1-4.3-7.2c-1.8-2.1-4-3.8-6.5-5.1c-2.5-1.3-5.3-1.9-8.4-1.9c-1.7,0-3.3,0.2-4.8,0.7c-1.6,0.5-3.1,1.1-4.6,2
		c-1.5,0.9-2.8,1.9-4,3.1c-1.2,1.2-2.3,2.5-3.1,3.9v-9h-2.6v60.9h2.8V51c0.9,1.4,1.9,2.8,3.1,4.1c1.2,1.3,2.6,2.4,4,3.3
		c1.5,0.9,3,1.7,4.7,2.2c1.7,0.6,3.5,0.8,5.3,0.8C538.9,61.5,541.6,60.9,544,59.7z M530.2,57.9c-1.7-0.6-3.3-1.5-4.8-2.6
		c-1.5-1.1-2.8-2.4-3.9-3.8c-1.2-1.5-2.1-3-2.8-4.7V31.9c0.2-1.7,0.8-3.2,1.9-4.7c1.1-1.5,2.4-2.8,4-3.9c1.6-1.1,3.3-2,5.1-2.7
		c1.8-0.7,3.5-1,5.1-1c2.5,0,4.9,0.5,7.1,1.6c2.2,1.1,4.1,2.5,5.8,4.4c1.6,1.8,2.9,3.9,3.8,6.3c0.9,2.4,1.4,4.8,1.4,7.4
		c0,2.4-0.4,4.8-1.2,7.2c-0.8,2.4-2,4.5-3.5,6.3c-1.5,1.9-3.3,3.4-5.5,4.5c-2.2,1.1-4.6,1.7-7.2,1.7
		C533.7,58.8,531.9,58.5,530.2,57.9z"/>
</g>
<g>
	<path fill="#FFFFFF" d="M425,245.5h-4.6v3.8h4.5c0.5,0,1-0.2,1.3-0.5c0.3-0.3,0.5-0.8,0.5-1.4c0-0.5-0.2-1-0.5-1.4
		C425.9,245.7,425.5,245.5,425,245.5z"/>
	<path fill="#FFFFFF" d="M352.4,240.4c-0.4-0.5-0.8-0.9-1.3-1.2c-0.5-0.3-1.1-0.4-1.8-0.4c-0.7,0-1.3,0.2-1.8,0.5
		c-0.5,0.3-1,0.7-1.3,1.2c-0.4,0.5-0.6,1.1-0.8,1.7c-0.2,0.6-0.3,1.3-0.3,1.9c0,0.7,0.1,1.3,0.3,2c0.2,0.6,0.5,1.2,0.8,1.7
		c0.4,0.5,0.8,0.9,1.3,1.2c0.5,0.3,1.1,0.4,1.8,0.4c0.7,0,1.3-0.2,1.8-0.5c0.5-0.3,1-0.7,1.3-1.2c0.4-0.5,0.6-1.1,0.8-1.7
		c0.2-0.6,0.3-1.3,0.3-1.9c0-0.7-0.1-1.3-0.3-2C353.1,241.4,352.8,240.8,352.4,240.4z"/>
	<path fill="#FFFFFF" d="M425.5,241.9c0.3-0.3,0.5-0.8,0.5-1.4c0-0.6-0.1-1-0.5-1.3c-0.3-0.3-0.7-0.5-1.1-0.5h-4.1v3.6h3.9
		C424.8,242.3,425.2,242.2,425.5,241.9z"/>
	<path fill="#FFFFFF" d="M462.4,240.4c-0.4-0.5-0.8-0.9-1.3-1.2c-0.5-0.3-1.1-0.4-1.8-0.4c-0.7,0-1.3,0.2-1.8,0.5
		c-0.5,0.3-1,0.7-1.3,1.2c-0.4,0.5-0.6,1.1-0.8,1.7c-0.2,0.6-0.3,1.3-0.3,1.9c0,0.7,0.1,1.3,0.3,2c0.2,0.6,0.5,1.2,0.8,1.7
		c0.4,0.5,0.8,0.9,1.3,1.2c0.5,0.3,1.1,0.4,1.8,0.4c0.7,0,1.3-0.2,1.8-0.5c0.5-0.3,1-0.7,1.3-1.2c0.4-0.5,0.6-1.1,0.8-1.7
		c0.2-0.6,0.3-1.3,0.3-1.9c0-0.7-0.1-1.3-0.3-2C463,241.4,462.7,240.8,462.4,240.4z"/>
	<path fill="#FFFFFF" d="M593.4,241.9c0.3-0.3,0.5-0.8,0.5-1.4c0-0.6-0.2-1-0.5-1.3c-0.3-0.3-0.7-0.5-1.1-0.5h-4.1v3.6h3.9
		C592.7,242.3,593.1,242.2,593.4,241.9z"/>
	<path fill="#FFFFFF" d="M521.8,240.4c-0.4-0.5-0.8-0.9-1.3-1.2c-0.5-0.3-1.1-0.4-1.8-0.4c-0.7,0-1.3,0.2-1.8,0.5
		c-0.5,0.3-1,0.7-1.3,1.2c-0.4,0.5-0.6,1.1-0.8,1.7c-0.2,0.6-0.3,1.3-0.3,1.9c0,0.7,0.1,1.3,0.3,2c0.2,0.6,0.5,1.2,0.8,1.7
		c0.4,0.5,0.8,0.9,1.3,1.2c0.5,0.3,1.1,0.4,1.8,0.4c0.7,0,1.3-0.2,1.8-0.5c0.5-0.3,1-0.7,1.3-1.2c0.4-0.5,0.6-1.1,0.8-1.7
		c0.2-0.6,0.3-1.3,0.3-1.9c0-0.7-0.1-1.3-0.3-2C522.4,241.4,522.2,240.8,521.8,240.4z"/>
	<path fill="#FFFFFF" d="M140.3,240.4c-0.4-0.5-0.8-0.9-1.3-1.2c-0.5-0.3-1.1-0.4-1.8-0.4c-0.7,0-1.3,0.2-1.8,0.5
		c-0.5,0.3-1,0.7-1.3,1.2c-0.4,0.5-0.6,1.1-0.8,1.7c-0.2,0.6-0.3,1.3-0.3,1.9c0,0.7,0.1,1.3,0.3,2c0.2,0.6,0.5,1.2,0.8,1.7
		c0.4,0.5,0.8,0.9,1.3,1.2c0.5,0.3,1.1,0.4,1.8,0.4c0.7,0,1.3-0.2,1.8-0.5c0.5-0.3,1-0.7,1.3-1.2c0.4-0.5,0.6-1.1,0.8-1.7
		c0.2-0.6,0.3-1.3,0.3-1.9c0-0.7-0.1-1.3-0.3-2C141,241.4,140.7,240.8,140.3,240.4z"/>
	<path fill="#FFFFFF" d="M87.6,238.8H84v4.8h3.7c0.5,0,0.9-0.2,1.2-0.7c0.3-0.5,0.5-1,0.5-1.7c0-0.7-0.2-1.3-0.6-1.7
		C88.5,239,88,238.8,87.6,238.8z"/>
	<path fill="#FFFFFF" d="M290.5,240.3c-0.4-0.5-0.9-0.8-1.4-1.1c-0.6-0.2-1.2-0.4-1.9-0.4h-2.5v10.4h2.5c0.7,0,1.4-0.1,2-0.4
		c0.6-0.3,1-0.6,1.4-1.1c0.4-0.5,0.7-1,0.9-1.6c0.2-0.6,0.3-1.3,0.3-2.1c0-0.8-0.1-1.5-0.3-2.1C291.2,241.3,290.9,240.7,290.5,240.3
		z"/>
	<path fill="#FFFFFF" d="M175.9,240.4c-0.4-0.5-0.8-0.9-1.3-1.2c-0.5-0.3-1.1-0.4-1.8-0.4c-0.7,0-1.3,0.2-1.8,0.5
		c-0.5,0.3-1,0.7-1.3,1.2c-0.4,0.5-0.6,1.1-0.8,1.7c-0.2,0.6-0.3,1.3-0.3,1.9c0,0.7,0.1,1.3,0.3,2c0.2,0.6,0.5,1.2,0.8,1.7
		c0.4,0.5,0.8,0.9,1.3,1.2c0.5,0.3,1.1,0.4,1.8,0.4c0.7,0,1.3-0.2,1.8-0.5c0.5-0.3,1-0.7,1.3-1.2c0.4-0.5,0.6-1.1,0.8-1.7
		c0.2-0.6,0.3-1.3,0.3-1.9c0-0.7-0.1-1.3-0.3-2C176.5,241.4,176.3,240.8,175.9,240.4z"/>
	<path fill="#FFFFFF" d="M157.5,239.4c-0.2-0.2-0.4-0.3-0.6-0.4c-0.2-0.1-0.5-0.1-0.7-0.1h-3.1v4.8h3.3c0.5,0,0.9-0.2,1.2-0.6
		c0.3-0.4,0.5-1,0.5-1.8c0-0.4-0.1-0.8-0.2-1.1C157.9,239.8,157.7,239.6,157.5,239.4z"/>
	<path fill="#FFFFFF" d="M441.9,238.8h-3.5v4.8h3.7c0.5,0,0.9-0.2,1.2-0.7c0.3-0.5,0.5-1,0.5-1.7c0-0.7-0.2-1.3-0.6-1.7
		C442.8,239,442.4,238.8,441.9,238.8z"/>
	<path fill="#FFFFFF" d="M678.3,238.8h-3.5v4.8h3.7c0.5,0,0.9-0.2,1.2-0.7c0.3-0.5,0.5-1,0.5-1.7c0-0.7-0.2-1.3-0.6-1.7
		C679.2,239,678.8,238.8,678.3,238.8z"/>
	<polygon fill="#FFFFFF" points="649,246 653.1,246 651.1,239.6 	"/>
	<path fill="#FFFFFF" d="M26.2,225.5v37h673.7v-37H26.2z M137.2,230.3h3.5l-2.3,3.9l-2.5-0.7L137.2,230.3z M60.9,238.8h-5.3v13.9h-4
		v-13.9h-5.3v-3.5h14.6V238.8z M76.3,252.7H64.1v-17.4h12v3.5h-8v3.4H75v3.3h-6.8v3.7h8.2V252.7z M90.2,252.7l-3.5-5.6H84v5.6h-4
		v-17.4h7.8c0.8,0,1.6,0.2,2.3,0.5c0.7,0.3,1.3,0.8,1.8,1.4c0.5,0.6,0.9,1.2,1.2,1.9c0.3,0.7,0.4,1.4,0.4,2.1c0,0.5-0.1,1.1-0.2,1.6
		c-0.1,0.5-0.3,1-0.6,1.4c-0.2,0.4-0.5,0.8-0.9,1.2c-0.4,0.4-0.7,0.6-1.2,0.9l4,6.5H90.2z M110.1,252.7H97.9v-17.4h12v3.5h-8v3.4
		h6.8v3.3h-6.8v3.7h8.2V252.7z M125.8,250.1c-0.4,0.7-0.9,1.2-1.5,1.6c-0.6,0.4-1.3,0.7-2.1,0.9c-0.8,0.2-1.6,0.3-2.4,0.3
		c-0.6,0-1.3,0-1.9-0.1c-0.7-0.1-1.3-0.2-1.9-0.4c-0.6-0.2-1.3-0.4-1.9-0.7c-0.6-0.3-1.2-0.6-1.7-0.9l1.8-3.5
		c0.1,0.1,0.3,0.2,0.7,0.5c0.4,0.2,0.8,0.5,1.3,0.7c0.5,0.2,1.1,0.4,1.8,0.6c0.7,0.2,1.3,0.3,2,0.3c1.4,0,2.1-0.4,2.1-1.3
		c0-0.3-0.1-0.6-0.3-0.8c-0.2-0.2-0.5-0.4-0.9-0.6c-0.4-0.2-0.8-0.3-1.3-0.5c-0.5-0.1-1.1-0.3-1.7-0.5c-0.8-0.2-1.5-0.5-2.1-0.8
		c-0.6-0.3-1.1-0.6-1.5-1c-0.4-0.4-0.7-0.8-0.9-1.3c-0.2-0.5-0.3-1.1-0.3-1.7c0-0.9,0.2-1.7,0.5-2.4c0.3-0.7,0.8-1.3,1.4-1.8
		c0.6-0.5,1.3-0.8,2-1.1c0.8-0.2,1.6-0.4,2.5-0.4c0.6,0,1.2,0.1,1.8,0.2c0.6,0.1,1.1,0.3,1.7,0.4c0.5,0.2,1,0.4,1.5,0.6
		c0.5,0.2,0.9,0.5,1.3,0.7l-1.7,3.3c-0.1-0.1-0.2-0.2-0.5-0.4c-0.3-0.2-0.7-0.4-1.1-0.6c-0.4-0.2-0.9-0.4-1.4-0.5
		c-0.5-0.1-1-0.2-1.6-0.2c-0.7,0-1.2,0.1-1.6,0.4c-0.4,0.2-0.6,0.6-0.6,1.1c0,0.3,0.1,0.5,0.2,0.7c0.2,0.2,0.4,0.4,0.7,0.5
		c0.3,0.2,0.7,0.3,1.1,0.4c0.4,0.1,1,0.3,1.6,0.4c0.8,0.2,1.6,0.5,2.3,0.7c0.7,0.3,1.2,0.6,1.7,1c0.5,0.4,0.8,0.9,1.1,1.5
		c0.3,0.6,0.4,1.3,0.4,2.1C126.4,248.6,126.2,249.4,125.8,250.1z M144.9,247.4c-0.4,1.1-1,2-1.7,2.8c-0.7,0.8-1.6,1.5-2.6,2
		c-1,0.5-2.1,0.7-3.3,0.7c-1.2,0-2.4-0.3-3.4-0.8c-1-0.5-1.9-1.2-2.6-2c-0.7-0.8-1.3-1.8-1.7-2.8c-0.4-1.1-0.6-2.2-0.6-3.3
		c0-1.1,0.2-2.3,0.6-3.3c0.4-1.1,1-2,1.7-2.8c0.7-0.8,1.6-1.5,2.6-1.9c1-0.5,2.1-0.7,3.3-0.7c1.2,0,2.4,0.3,3.4,0.8
		c1,0.5,1.9,1.2,2.6,2c0.7,0.8,1.3,1.8,1.7,2.8c0.4,1.1,0.6,2.1,0.6,3.2C145.5,245.2,145.3,246.3,144.9,247.4z M161.8,243.4
		c-0.3,0.7-0.6,1.3-1.1,1.9c-0.5,0.6-1.1,1-1.7,1.3c-0.7,0.3-1.4,0.5-2.3,0.5h-3.5v5.6h-4v-17.4h7.4c0.8,0,1.6,0.2,2.3,0.5
		c0.7,0.3,1.3,0.8,1.8,1.4c0.5,0.6,0.9,1.2,1.2,1.9c0.3,0.7,0.4,1.4,0.4,2.1C162.2,242,162.1,242.7,161.8,243.4z M180.5,247.4
		c-0.4,1.1-1,2-1.7,2.8c-0.7,0.8-1.6,1.5-2.6,2c-1,0.5-2.1,0.7-3.3,0.7c-1.2,0-2.4-0.3-3.4-0.8c-1-0.5-1.9-1.2-2.6-2
		c-0.7-0.8-1.3-1.8-1.7-2.8c-0.4-1.1-0.6-2.2-0.6-3.3c0-1.1,0.2-2.3,0.6-3.3c0.4-1.1,1-2,1.7-2.8c0.7-0.8,1.6-1.5,2.6-1.9
		c1-0.5,2.1-0.7,3.3-0.7c1.2,0,2.4,0.3,3.4,0.8c1,0.5,1.9,1.2,2.6,2c0.7,0.8,1.3,1.8,1.7,2.8c0.4,1.1,0.6,2.1,0.6,3.2
		C181.1,245.2,180.9,246.3,180.5,247.4z M197.1,252.7h-12.4v-17.4h4v13.9h8.4V252.7z M204.3,252.7h-4v-17.4h4V252.7z M221,250.1
		c-0.4,0.7-0.9,1.2-1.5,1.6c-0.6,0.4-1.3,0.7-2.1,0.9c-0.8,0.2-1.6,0.3-2.4,0.3c-0.6,0-1.3,0-1.9-0.1c-0.7-0.1-1.3-0.2-1.9-0.4
		c-0.6-0.2-1.3-0.4-1.9-0.7c-0.6-0.3-1.2-0.6-1.7-0.9l1.8-3.5c0.1,0.1,0.3,0.2,0.7,0.5c0.4,0.2,0.8,0.5,1.3,0.7
		c0.5,0.2,1.1,0.4,1.8,0.6c0.7,0.2,1.3,0.3,2,0.3c1.4,0,2.1-0.4,2.1-1.3c0-0.3-0.1-0.6-0.3-0.8c-0.2-0.2-0.5-0.4-0.9-0.6
		c-0.4-0.2-0.8-0.3-1.3-0.5c-0.5-0.1-1.1-0.3-1.7-0.5c-0.8-0.2-1.5-0.5-2.1-0.8c-0.6-0.3-1.1-0.6-1.5-1c-0.4-0.4-0.7-0.8-0.9-1.3
		c-0.2-0.5-0.3-1.1-0.3-1.7c0-0.9,0.2-1.7,0.5-2.4c0.3-0.7,0.8-1.3,1.4-1.8c0.6-0.5,1.3-0.8,2-1.1c0.8-0.2,1.6-0.4,2.5-0.4
		c0.6,0,1.2,0.1,1.8,0.2c0.6,0.1,1.1,0.3,1.7,0.4c0.5,0.2,1,0.4,1.5,0.6c0.5,0.2,0.9,0.5,1.3,0.7l-1.7,3.3c-0.1-0.1-0.2-0.2-0.5-0.4
		c-0.3-0.2-0.7-0.4-1.1-0.6c-0.4-0.2-0.9-0.4-1.4-0.5c-0.5-0.1-1-0.2-1.6-0.2c-0.7,0-1.2,0.1-1.6,0.4c-0.4,0.2-0.6,0.6-0.6,1.1
		c0,0.3,0.1,0.5,0.2,0.7c0.2,0.2,0.4,0.4,0.7,0.5c0.3,0.2,0.7,0.3,1.1,0.4c0.4,0.1,1,0.3,1.6,0.4c0.8,0.2,1.6,0.5,2.2,0.7
		c0.7,0.3,1.2,0.6,1.7,1c0.5,0.4,0.8,0.9,1.1,1.5c0.3,0.6,0.4,1.3,0.4,2.1C221.6,248.6,221.4,249.4,221,250.1z M233.7,247.6
		c-1.5,0-2.7-1.2-2.7-2.7c0-1.5,1.2-2.7,2.7-2.7c1.5,0,2.7,1.2,2.7,2.7C236.4,246.4,235.2,247.6,233.7,247.6z M256.3,252.7h-10.6
		v-4.2h3.5V241c-0.1,0.2-0.4,0.5-0.7,0.7c-0.3,0.2-0.7,0.5-1,0.7c-0.4,0.2-0.8,0.4-1.2,0.5c-0.4,0.1-0.8,0.2-1.1,0.2v-4.4
		c0.3,0,0.6-0.1,1-0.3c0.4-0.2,0.8-0.5,1.2-0.8c0.4-0.3,0.8-0.6,1.1-0.9c0.3-0.3,0.5-0.6,0.6-0.8h4v12.6h3.1V252.7z M270.2,252.7
		h-10.6v-4.2h3.5V241c-0.1,0.2-0.4,0.5-0.7,0.7c-0.3,0.2-0.7,0.5-1,0.7c-0.4,0.2-0.8,0.4-1.2,0.5c-0.4,0.1-0.8,0.2-1.1,0.2v-4.4
		c0.3,0,0.6-0.1,1-0.3c0.4-0.2,0.8-0.5,1.2-0.8c0.4-0.3,0.8-0.6,1.1-0.9c0.3-0.3,0.5-0.6,0.6-0.8h4v12.6h3.1V252.7z M295.1,247.6
		c-0.4,1.1-1,2-1.7,2.8c-0.8,0.8-1.7,1.4-2.7,1.8c-1.1,0.4-2.3,0.6-3.6,0.6h-6.5v-17.4h6.5c1.4,0,2.7,0.2,3.8,0.7
		c1.1,0.5,2,1.1,2.7,1.9c0.7,0.8,1.3,1.7,1.6,2.8c0.4,1.1,0.6,2.2,0.6,3.4C295.8,245.3,295.6,246.5,295.1,247.6z M311.6,252.7h-12.2
		v-17.4h12v3.5h-8v3.4h6.8v3.3h-6.8v3.7h8.2V252.7z M337.5,252.7h-3.2l-8-10v10h-4v-17.4h3.1l8.1,10.2v-10.2h4V252.7z M357,247.4
		c-0.4,1.1-1,2-1.7,2.8c-0.7,0.8-1.6,1.5-2.6,2c-1,0.5-2.1,0.7-3.3,0.7c-1.2,0-2.4-0.3-3.4-0.8c-1-0.5-1.9-1.2-2.6-2
		c-0.7-0.8-1.3-1.8-1.7-2.8c-0.4-1.1-0.6-2.2-0.6-3.3c0-1.1,0.2-2.3,0.6-3.3c0.4-1.1,1-2,1.7-2.8c0.7-0.8,1.6-1.5,2.6-1.9
		c1-0.5,2.1-0.7,3.3-0.7c1.2,0,2.4,0.3,3.4,0.8c1,0.5,1.9,1.2,2.6,2c0.7,0.8,1.3,1.8,1.7,2.8c0.4,1.1,0.6,2.1,0.6,3.2
		C357.6,245.2,357.4,246.3,357,247.4z M368.8,252.7h-3.4l-6.7-17.4h4.2l4.1,12.4l4-12.4h4.2L368.8,252.7z M390.4,252.7h-12.2v-17.4
		h12v3.5h-8v3.4h6.8v3.3h-6.8v3.7h8.2V252.7z M411.8,252.7h-4v-10.4l-3.8,7.6h-2.2l-3.8-7.6v10.4h-4v-17.4h4.4l4.5,9.1l4.5-9.1h4.3
		V252.7z M430.3,250.2c-0.3,0.6-0.7,1-1.3,1.4c-0.5,0.4-1.2,0.6-1.9,0.8c-0.7,0.2-1.5,0.3-2.3,0.3h-8.5v-17.4h9.7
		c0.6,0,1.1,0.1,1.6,0.4c0.5,0.3,0.9,0.6,1.2,1c0.3,0.4,0.6,0.9,0.8,1.4c0.2,0.5,0.3,1.1,0.3,1.6c0,0.8-0.2,1.6-0.6,2.4
		c-0.4,0.7-1,1.3-1.9,1.7c1,0.3,1.8,0.8,2.4,1.6c0.6,0.8,0.9,1.7,0.9,2.9C430.7,249,430.6,249.7,430.3,250.2z M444.5,252.7l-3.5-5.6
		h-2.6v5.6h-4v-17.4h7.8c0.8,0,1.6,0.2,2.3,0.5c0.7,0.3,1.3,0.8,1.8,1.4c0.5,0.6,0.9,1.2,1.2,1.9c0.3,0.7,0.4,1.4,0.4,2.1
		c0,0.5-0.1,1.1-0.2,1.6c-0.1,0.5-0.3,1-0.6,1.4c-0.2,0.4-0.5,0.8-0.9,1.2c-0.4,0.4-0.7,0.6-1.2,0.9l4,6.5H444.5z M466.9,247.4
		c-0.4,1.1-1,2-1.7,2.8c-0.7,0.8-1.6,1.5-2.6,2c-1,0.5-2.1,0.7-3.3,0.7c-1.2,0-2.4-0.3-3.4-0.8c-1-0.5-1.9-1.2-2.6-2
		c-0.7-0.8-1.3-1.8-1.7-2.8c-0.4-1.1-0.6-2.2-0.6-3.3c0-1.1,0.2-2.3,0.6-3.3c0.4-1.1,1-2,1.7-2.8c0.7-0.8,1.6-1.5,2.6-1.9
		c1-0.5,2.1-0.7,3.3-0.7c1.2,0,2.4,0.3,3.4,0.8c1,0.5,1.9,1.2,2.6,2c0.7,0.8,1.3,1.8,1.7,2.8c0.4,1.1,0.6,2.1,0.6,3.2
		C467.6,245.2,467.3,246.3,466.9,247.4z M479.6,247.6c-1.5,0-2.7-1.2-2.7-2.7c0-1.5,1.2-2.7,2.7-2.7c1.5,0,2.7,1.2,2.7,2.7
		C482.3,246.4,481.1,247.6,479.6,247.6z M506.8,252.7h-4v-7.1h-6.9v7.1h-4v-17.4h4v6.8h6.9v-6.8h4V252.7z M526.4,247.4
		c-0.4,1.1-1,2-1.7,2.8c-0.7,0.8-1.6,1.5-2.6,2c-1,0.5-2.1,0.7-3.3,0.7c-1.2,0-2.4-0.3-3.4-0.8c-1-0.5-1.9-1.2-2.6-2
		c-0.7-0.8-1.3-1.8-1.7-2.8c-0.4-1.1-0.6-2.2-0.6-3.3c0-1.1,0.2-2.3,0.6-3.3c0.4-1.1,1-2,1.7-2.8c0.7-0.8,1.6-1.5,2.6-1.9
		c1-0.5,2.1-0.7,3.3-0.7c1.2,0,2.4,0.3,3.4,0.8c1,0.5,1.9,1.2,2.6,2c0.7,0.8,1.3,1.8,1.7,2.8c0.4,1.1,0.6,2.1,0.6,3.2
		C527,245.2,526.8,246.3,526.4,247.4z M543.3,238.8H538v13.9h-4v-13.9h-5.3v-3.5h14.6V238.8z M558.7,252.7h-12.2v-17.4h12v3.5h-8
		v3.4h6.8v3.3h-6.8v3.7h8.2V252.7z M574.9,252.7h-12.4v-17.4h4v13.9h8.4V252.7z M598.2,250.2c-0.3,0.6-0.7,1-1.3,1.4
		c-0.5,0.4-1.2,0.6-1.9,0.8c-0.7,0.2-1.5,0.3-2.3,0.3h-8.5v-17.4h9.7c0.6,0,1.2,0.1,1.6,0.4c0.5,0.3,0.9,0.6,1.2,1
		c0.3,0.4,0.6,0.9,0.8,1.4c0.2,0.5,0.3,1.1,0.3,1.6c0,0.8-0.2,1.6-0.6,2.4c-0.4,0.7-1,1.3-1.9,1.7c1,0.3,1.8,0.8,2.4,1.6
		c0.6,0.8,0.9,1.7,0.9,2.9C598.7,249,598.5,249.7,598.2,250.2z M614.5,252.7h-12.2v-17.4h12v3.5h-8v3.4h6.8v3.3h-6.8v3.7h8.2V252.7z
		 M630.6,252.7h-12.4v-17.4h4v13.9h8.4V252.7z M640.6,247.7h-7.5v-3.5h7.5V247.7z M655.1,252.7l-1.3-3.9h-5.4l-1.3,3.9h-4.3
		l6.7-17.4h3.3l6.7,17.4H655.1z M666.2,252.7h-4v-17.4h4V252.7z M680.9,252.7l-3.5-5.6h-2.6v5.6h-4v-17.4h7.8c0.8,0,1.6,0.2,2.3,0.5
		c0.7,0.3,1.3,0.8,1.8,1.4c0.5,0.6,0.9,1.2,1.2,1.9c0.3,0.7,0.4,1.4,0.4,2.1c0,0.5-0.1,1.1-0.2,1.6c-0.1,0.5-0.3,1-0.6,1.4
		c-0.2,0.4-0.5,0.8-0.9,1.2c-0.4,0.4-0.7,0.6-1.2,0.9l4,6.5H680.9z"/>
	<path fill="#FFFFFF" d="M592.9,245.5h-4.6v3.8h4.5c0.5,0,1-0.2,1.3-0.5c0.3-0.3,0.5-0.8,0.5-1.4c0-0.5-0.2-1-0.5-1.4
		C593.8,245.7,593.4,245.5,592.9,245.5z"/>
</g>
<g>
	<defs>
		<path id="SVGID_1_" d="M70.5,0.8c38.9,0,70.5,31.9,70.5,71.3c0,39.4-31.6,71.3-70.5,71.3c-9.4,0-18.4-1.9-26.6-5.2
			c-7.5,3.1-22,8.3-22,8.3s5-11.6,6.9-16.9C11.3,116.6,0,95.7,0,72.1C0,32.7,31.6,0.8,70.5,0.8z"/>
	</defs>
	<clipPath id="SVGID_2_">
		<use xlink:href="#SVGID_1_"  overflow="visible"/>
	</clipPath>
	<g opacity="0.15" clip-path="url(#SVGID_2_)">
		<linearGradient id="SVGID_3_" gradientUnits="userSpaceOnUse" x1="43.7634" y1="50.1539" x2="109.6538" y2="122.542">
			<stop  offset="0" style="stop-color:#000000"/>
			<stop  offset="1" style="stop-color:#000000;stop-opacity:0.5"/>
		</linearGradient>
		<path fill="url(#SVGID_3_)" d="M72.4,86.5c3.9,0.1,7.8,0,11.7,0c0.5,0,0.9-0.1,1.4-0.1c0.1-0.1-0.8-1.1-1.2-1.5
			C75.6,76.3,67,67.7,58.4,59c-2.4-2.4-4.7-4.9-7.1-7.4c-0.2-0.2-0.5-0.3-0.7-0.3c-4.7,0-9.5,0-14.4,0c0.2,0.4,0.3,0.5,0.4,0.6
			c11.3,11.3,22.6,22.7,34,34C70.9,86.3,71.7,86.5,72.4,86.5z"/>
		<linearGradient id="SVGID_4_" gradientUnits="userSpaceOnUse" x1="61.9378" y1="49.8637" x2="116.3404" y2="109.631">
			<stop  offset="0" style="stop-color:#000000"/>
			<stop  offset="1" style="stop-color:#000000;stop-opacity:0.5"/>
		</linearGradient>
		<path fill="url(#SVGID_4_)" d="M91.4,82.6c0.7-2,1-4.1,1.6-6.1c0.3-0.9,0-1.5-0.6-2.2c-7.4-7.4-14.8-14.9-22.3-22.3
			c-0.4-0.4-0.9-0.7-1.4-0.7c-4.5-0.1-9,0-13.6,0C66.6,62.8,78,74.2,89.6,85.9C90.2,84.8,91,83.8,91.4,82.6z"/>
		<linearGradient id="SVGID_5_" gradientUnits="userSpaceOnUse" x1="79.2723" y1="49.1543" x2="111.3475" y2="84.3925">
			<stop  offset="0" style="stop-color:#000000"/>
			<stop  offset="1" style="stop-color:#000000;stop-opacity:0.5"/>
		</linearGradient>
		<path fill="url(#SVGID_5_)" d="M96.7,61.4c0.1-0.6-0.1-1.4-0.5-1.8c-2.4-2.6-4.9-5-7.5-7.5c-0.4-0.4-1-0.7-1.5-0.7
			c-4.5-0.1-8.9,0-13.4,0c6.8,6.8,13.5,13.6,20.4,20.4C95,68.3,95.9,64.9,96.7,61.4z"/>
		<linearGradient id="SVGID_6_" gradientUnits="userSpaceOnUse" x1="30.1355" y1="55.0594" x2="87.5542" y2="118.1403">
			<stop  offset="0" style="stop-color:#000000"/>
			<stop  offset="1" style="stop-color:#000000;stop-opacity:0.5"/>
		</linearGradient>
		<path fill="url(#SVGID_6_)" d="M53.1,86.5c4.5,0.1,9,0,13.5,0c0.1-0.2-0.1-0.6-0.5-1C55.5,75,44.3,63.8,33.8,53.1
			c-1.3-1.3-2.3-2-4.1-1.8c-1.7,0.2-2.1,0.7-1.7,2.4c0.6,2.8,1.3,5.6,1.9,8.4c0.3,1.7,1,2.9,2.3,4.2c6.5,6.4,12.9,12.9,19.4,19.3
			C51.9,86,52.5,86.5,53.1,86.5z"/>
		<linearGradient id="SVGID_7_" gradientUnits="userSpaceOnUse" x1="30.7393" y1="73.8267" x2="55.5998" y2="101.1388">
			<stop  offset="0" style="stop-color:#000000"/>
			<stop  offset="1" style="stop-color:#000000;stop-opacity:0.5"/>
		</linearGradient>
		<path fill="url(#SVGID_7_)" d="M34.7,83.1c0.4,1.9,1.7,3.2,3.5,3.3c3.3,0.2,6.6,0.1,9.4,0.1C42.4,81.2,37,75.8,31.8,70.7
			C32.7,74.5,33.7,78.8,34.7,83.1z"/>
		<linearGradient id="SVGID_8_" gradientUnits="userSpaceOnUse" x1="114.5518" y1="35.9762" x2="114.6515" y2="36.0858">
			<stop  offset="0" style="stop-color:#000000"/>
			<stop  offset="1" style="stop-color:#000000;stop-opacity:0.5"/>
		</linearGradient>
		<path fill="url(#SVGID_8_)" d="M114.6,36C114.7,36,114.4,36,114.6,36L114.6,36z"/>
		<linearGradient id="SVGID_9_" gradientUnits="userSpaceOnUse" x1="78.6359" y1="71.0923" x2="120.5736" y2="117.1655">
			<stop  offset="0" style="stop-color:#000000"/>
			<stop  offset="1" style="stop-color:#000000;stop-opacity:0.5"/>
		</linearGradient>
		<path fill="url(#SVGID_9_)" d="M118.6,31.5L118.6,31.5c0.4,0.5,0.6,1.1,0.6,1.7c0,1.6-1.3,3-3.3,2.9c-0.7,0-1.1-0.1-1.2-0.1
			c0,0-0.3,0-1.3,0c-2.9,0-4.4,1.1-5.1,3.9c-3.8,14.8-7.6,29.6-11.5,44.4c-0.3,1.3-1,2.5-1.5,3.9c3.2,2.4,4.7,5.7,3.4,9.7
			c-1.4,4.4-4.7,6.2-9.4,5.7c-51.8,0.1-50.2,0.1-51.8,0.1c-0.9,0-1.6-0.3-2.1-0.7l0,0l7.1,7.2c1.2-1.9,3.4-3.1,5.8-3.1
			c3.8,0,6.9,3.1,6.9,6.9c0,3.8-3.1,6.9-6.9,6.9c-1.7,0-3.3-0.6-4.5-1.7l0,0l33.2,33.3l50.4-29.2l24.8-58.3L118.6,31.5z M83.7,120.9
			c-3.8,0-6.9-3.1-6.9-6.9c0-3.8,3.1-6.9,6.9-6.9c3.8,0,6.9,3.1,6.9,6.9C90.6,117.8,87.6,120.9,83.7,120.9z"/>
		<linearGradient id="SVGID_10_" gradientUnits="userSpaceOnUse" x1="94.6674" y1="50.1588" x2="103.2754" y2="59.6157">
			<stop  offset="0" style="stop-color:#000000"/>
			<stop  offset="1" style="stop-color:#000000;stop-opacity:0.5"/>
		</linearGradient>
		<path fill="url(#SVGID_10_)" d="M99.3,51.4c-2.4,0-4.6,0-6.8,0c1.8,1.8,3.6,3.6,5.5,5.5C98.4,55.1,98.8,53.3,99.3,51.4z"/>
		<linearGradient id="SVGID_11_" gradientUnits="userSpaceOnUse" x1="50.0756" y1="77.8444" x2="101.783" y2="134.6507">
			<stop  offset="0" style="stop-color:#000000"/>
			<stop  offset="1" style="stop-color:#000000;stop-opacity:0.5"/>
		</linearGradient>
		<path fill="url(#SVGID_11_)" d="M40.8,98.2c16.1,0,32.3,0,48.4,0c0.5,0,1,0,1.5,0c1.7-0.1,3-1.4,2.9-3c-0.1-1.6-1.2-2.7-3-2.7
			c-8.4,0-16.9,0-25.3,0c-9-0.1-18-0.2-27-0.3c-2.2,0-4.4-1-6.1-2.6l0,0L40.8,98.2L40.8,98.2z"/>
	</g>
</g>
</svg>
