<?xml version="1.0" encoding="utf-8"?>
<!-- Generator: Adobe Illustrator 18.0.0, SVG Export Plug-In . SVG Version: 6.00 Build 0)  -->
<!DOCTYPE svg PUBLIC "-//W3C//DTD SVG 1.1//EN" "http://www.w3.org/Graphics/SVG/1.1/DTD/svg11.dtd">
<svg version="1.1" id="Camada_1" xmlns="http://www.w3.org/2000/svg" xmlns:xlink="http://www.w3.org/1999/xlink" x="0px" y="0px"
	 viewBox="0 0 500 500" enable-background="new 0 0 500 500" xml:space="preserve">
<symbol  id="grid" viewBox="-21.4 -21.4 42.8 42.8">
	<path fill="#FFFFFF" d="M21.4-21.4h-42.8v42.8h42.8V-21.4z M-21.1-21.1h42.3v42.3h-42.3V-21.1z"/>
	<polygon fill="#FFFFFF" points="0.1,-21.3 -0.1,-21.3 -0.1,21.3 0.1,21.3 	"/>
	<polygon fill="#FFFFFF" points="21.3,-0.1 -21.3,-0.1 -21.3,0.1 21.3,0.1 	"/>
	<path fill="#FFFFFF" d="M0-15.3c-8.5,0-15.3,6.9-15.3,15.3c0,8.5,6.9,15.3,15.3,15.3S15.3,8.5,15.3,0C15.3-8.5,8.5-15.3,0-15.3z
		 M0,15.1c-8.3,0-15.1-6.8-15.1-15.1c0-8.3,6.8-15.1,15.1-15.1S15.1-8.3,15.1,0C15.1,8.3,8.3,15.1,0,15.1z"/>
	<path fill="#FFFFFF" d="M14.3-14.3h-28.6v28.6h28.6V-14.3z M-14-14H14V14H-14V-14z"/>
	<polygon fill="#FFFFFF" points="-21.2,-21.3 -21.3,-21.2 21.2,21.3 21.3,21.2 	"/>
	<polygon fill="#FFFFFF" points="21.2,-21.3 -21.3,21.2 -21.2,21.3 21.3,-21.2 	"/>
	<path fill="#FFFFFF" d="M14.7-0.6C14.3-0.6,14-0.4,14,0s0.3,0.6,0.6,0.6c0.4,0,0.6-0.3,0.6-0.6S15-0.6,14.7-0.6z M14.7,0.4
		c-0.2,0-0.4-0.2-0.4-0.4s0.2-0.4,0.4-0.4c0.2,0,0.4,0.2,0.4,0.4S14.9,0.4,14.7,0.4z"/>
	<path fill="#FFFFFF" d="M15.7-0.6c-0.4,0-0.6,0.3-0.6,0.6s0.3,0.6,0.6,0.6c0.4,0,0.6-0.3,0.6-0.6S16.1-0.6,15.7-0.6z M15.7,0.4
		c-0.2,0-0.4-0.2-0.4-0.4s0.2-0.4,0.4-0.4c0.2,0,0.4,0.2,0.4,0.4S15.9,0.4,15.7,0.4z"/>
	<path fill="#FFFFFF" d="M-15.7-0.6c-0.4,0-0.6,0.3-0.6,0.6s0.3,0.6,0.6,0.6c0.4,0,0.6-0.3,0.6-0.6S-15.4-0.6-15.7-0.6z M-15.7,0.4
		c-0.2,0-0.4-0.2-0.4-0.4s0.2-0.4,0.4-0.4c0.2,0,0.4,0.2,0.4,0.4S-15.5,0.4-15.7,0.4z"/>
	<path fill="#FFFFFF" d="M-14.7-0.6c-0.4,0-0.6,0.3-0.6,0.6s0.3,0.6,0.6,0.6c0.4,0,0.6-0.3,0.6-0.6S-14.3-0.6-14.7-0.6z M-14.7,0.4
		c-0.2,0-0.4-0.2-0.4-0.4s0.2-0.4,0.4-0.4c0.2,0,0.4,0.2,0.4,0.4S-14.5,0.4-14.7,0.4z"/>
	<path fill="#FFFFFF" d="M0,15.1c-0.4,0-0.6,0.3-0.6,0.6s0.3,0.6,0.6,0.6s0.6-0.3,0.6-0.6S0.4,15.1,0,15.1z M0,16.1
		c-0.2,0-0.4-0.2-0.4-0.4s0.2-0.4,0.4-0.4s0.4,0.2,0.4,0.4S0.2,16.1,0,16.1z"/>
	<path fill="#FFFFFF" d="M0,14c-0.4,0-0.6,0.3-0.6,0.6s0.3,0.6,0.6,0.6s0.6-0.3,0.6-0.6S0.4,14,0,14z M0,15.1
		c-0.2,0-0.4-0.2-0.4-0.4s0.2-0.4,0.4-0.4s0.4,0.2,0.4,0.4S0.2,15.1,0,15.1z"/>
	<path fill="#FFFFFF" d="M0-15.3c-0.4,0-0.6,0.3-0.6,0.6c0,0.4,0.3,0.6,0.6,0.6s0.6-0.3,0.6-0.6C0.6-15,0.4-15.3,0-15.3z M0-14.3
		c-0.2,0-0.4-0.2-0.4-0.4c0-0.2,0.2-0.4,0.4-0.4s0.4,0.2,0.4,0.4C0.4-14.5,0.2-14.3,0-14.3z"/>
	<path fill="#FFFFFF" d="M0-16.4c-0.4,0-0.6,0.3-0.6,0.6s0.3,0.6,0.6,0.6s0.6-0.3,0.6-0.6S0.4-16.4,0-16.4z M0-15.3
		c-0.2,0-0.4-0.2-0.4-0.4s0.2-0.4,0.4-0.4s0.4,0.2,0.4,0.4S0.2-15.3,0-15.3z"/>
	<path fill="#FFFFFF" d="M16.4-10.9h-32.7v21.8h32.7V-10.9z M-16.1-10.6h32.2v21.3h-32.2V-10.6z"/>
	<path fill="#FFFFFF" d="M10.9-16.4h-21.8v32.7h21.8V-16.4z M-10.6-16.1h21.3v32.2h-21.3V-16.1z"/>
</symbol>
<symbol  id="icone-pin-preto" viewBox="-10.7 -16.1 21.4 32.3">
	<path fill="#FFFFFF" d="M7.6,13c-4.2,4.2-10.9,4.2-15.1,0c-4.2-4.2-4.2-10.9,0-15.1l0,0c0,0,0,0,0,0c2.3-3.2,5.7-8.6,6.5-13
		c0,0,0,0,0,0c0,0,0,0,0,0c0-0.6,0.5-1,1-1c0.6,0,1,0.5,1,1c0,0,0,0,0,0c0,0,0,0,0,0c0.8,4.4,4.3,9.8,6.5,13
		C11.7,2.1,11.7,8.8,7.6,13z M6.1-0.7C6.1-0.7,6.1-0.7,6.1-0.7C3.7-3.6,1.5-6.9,0-10.9c-1.5,4-3.6,7.2-6.1,10.2
		c-3.4,3.4-3.4,8.8,0,12.2c3.4,3.4,8.8,3.4,12.2,0C9.5,8.2,9.5,2.7,6.1-0.7z"/>
	<path fill="#FFFFFF" d="M-4.8,3.2c-0.1,0-0.2,0-0.3,0.1c-0.1,0.1-0.1,0.2-0.2,0.3l-0.3,1l-0.3-1c-0.1-0.2-0.2-0.4-0.5-0.4h-0.9
		l-1.1,3.7h1.1c0.1,0,0.2,0,0.3-0.1c0.1-0.1,0.2-0.2,0.2-0.3l0.2-0.9l0.3,0.9c0,0.1,0.1,0.2,0.2,0.3C-6,6.8-5.9,6.9-5.8,6.9h0.4
		c0.1,0,0.2,0,0.3-0.1c0.1-0.1,0.2-0.2,0.2-0.3l0.2-0.9l0.2,0.9c0,0.1,0.1,0.2,0.2,0.3c0.1,0.1,0.2,0.1,0.3,0.1h1.1l-1.1-3.7H-4.8z"
		/>
	<path fill="#FFFFFF" d="M0.7,3.2c-0.1,0-0.2,0-0.3,0.1C0.4,3.4,0.3,3.5,0.3,3.6L0,4.5l-0.3-1c-0.1-0.2-0.2-0.4-0.5-0.4h-0.9
		l-1.1,3.7h1.1c0.1,0,0.2,0,0.3-0.1c0.1-0.1,0.2-0.2,0.2-0.3L-1,5.6l0.3,0.9c0,0.1,0.1,0.2,0.2,0.3c0.1,0.1,0.2,0.1,0.3,0.1h0.4
		c0.1,0,0.2,0,0.3-0.1c0.1-0.1,0.2-0.2,0.2-0.3L1,5.6l0.2,0.9c0,0.1,0.1,0.2,0.2,0.3c0.1,0.1,0.2,0.1,0.3,0.1h1.1L1.7,3.2H0.7z"/>
	<path fill="#FFFFFF" d="M6.3,3.2c-0.1,0-0.2,0-0.3,0.1C5.9,3.4,5.9,3.5,5.8,3.6l-0.3,1l-0.3-1C5.2,3.3,5,3.2,4.8,3.2H3.9L2.7,6.9
		h1.1c0.1,0,0.2,0,0.3-0.1c0.1-0.1,0.2-0.2,0.2-0.3l0.2-0.9l0.3,0.9c0,0.1,0.1,0.2,0.2,0.3c0.1,0.1,0.2,0.1,0.3,0.1h0.4
		c0.1,0,0.2,0,0.3-0.1c0.1-0.1,0.2-0.2,0.2-0.3l0.2-0.9l0.2,0.9c0,0.1,0.1,0.2,0.2,0.3c0.1,0.1,0.2,0.1,0.3,0.1h1.1L7.2,3.2H6.3z"/>
</symbol>
<use xlink:href="#icone-pin-preto"  width="21.4" height="32.3" id="XMLID_2_" x="-10.7" y="-16.1" transform="matrix(11.7588 0 0 -11.7586 250.0049 250.0043)" overflow="visible"/>
<use xlink:href="#grid"  width="42.8" height="42.8" id="XMLID_1_" x="-21.4" y="-21.4" transform="matrix(11.6906 0 0 -11.6904 249.9992 249.9971)" overflow="visible"/>
</svg>
