<?xml version="1.0" encoding="utf-8"?>
<!-- Generator: Adobe Illustrator 18.0.0, SVG Export Plug-In . SVG Version: 6.00 Build 0)  -->
<!DOCTYPE svg PUBLIC "-//W3C//DTD SVG 1.1//EN" "http://www.w3.org/Graphics/SVG/1.1/DTD/svg11.dtd">
<svg version="1.1" id="Camada_1" xmlns="http://www.w3.org/2000/svg" xmlns:xlink="http://www.w3.org/1999/xlink" x="0px" y="0px"
	 viewBox="0 0 500 500" enable-background="new 0 0 500 500" xml:space="preserve">
<symbol  id="grid" viewBox="-21.4 -21.4 42.8 42.8">
	<path fill="#FFFFFF" d="M21.4-21.4h-42.8v42.8h42.8V-21.4z M-21.1-21.1h42.3v42.3h-42.3V-21.1z"/>
	<polygon fill="#FFFFFF" points="0.1,-21.3 -0.1,-21.3 -0.1,21.3 0.1,21.3 	"/>
	<polygon fill="#FFFFFF" points="21.3,-0.1 -21.3,-0.1 -21.3,0.1 21.3,0.1 	"/>
	<path fill="#FFFFFF" d="M0-15.3c-8.5,0-15.3,6.9-15.3,15.3c0,8.5,6.9,15.3,15.3,15.3S15.3,8.5,15.3,0C15.3-8.5,8.5-15.3,0-15.3z
		 M0,15.1c-8.3,0-15.1-6.8-15.1-15.1c0-8.3,6.8-15.1,15.1-15.1S15.1-8.3,15.1,0C15.1,8.3,8.3,15.1,0,15.1z"/>
	<path fill="#FFFFFF" d="M14.3-14.3h-28.6v28.6h28.6V-14.3z M-14-14H14V14H-14V-14z"/>
	<polygon fill="#FFFFFF" points="-21.2,-21.3 -21.3,-21.2 21.2,21.3 21.3,21.2 	"/>
	<polygon fill="#FFFFFF" points="21.2,-21.3 -21.3,21.2 -21.2,21.3 21.3,-21.2 	"/>
	<path fill="#FFFFFF" d="M14.7-0.6C14.3-0.6,14-0.4,14,0s0.3,0.6,0.6,0.6c0.4,0,0.6-0.3,0.6-0.6S15-0.6,14.7-0.6z M14.7,0.4
		c-0.2,0-0.4-0.2-0.4-0.4s0.2-0.4,0.4-0.4c0.2,0,0.4,0.2,0.4,0.4S14.9,0.4,14.7,0.4z"/>
	<path fill="#FFFFFF" d="M15.7-0.6c-0.4,0-0.6,0.3-0.6,0.6s0.3,0.6,0.6,0.6c0.4,0,0.6-0.3,0.6-0.6S16.1-0.6,15.7-0.6z M15.7,0.4
		c-0.2,0-0.4-0.2-0.4-0.4s0.2-0.4,0.4-0.4c0.2,0,0.4,0.2,0.4,0.4S15.9,0.4,15.7,0.4z"/>
	<path fill="#FFFFFF" d="M-15.7-0.6c-0.4,0-0.6,0.3-0.6,0.6s0.3,0.6,0.6,0.6c0.4,0,0.6-0.3,0.6-0.6S-15.4-0.6-15.7-0.6z M-15.7,0.4
		c-0.2,0-0.4-0.2-0.4-0.4s0.2-0.4,0.4-0.4c0.2,0,0.4,0.2,0.4,0.4S-15.5,0.4-15.7,0.4z"/>
	<path fill="#FFFFFF" d="M-14.7-0.6c-0.4,0-0.6,0.3-0.6,0.6s0.3,0.6,0.6,0.6c0.4,0,0.6-0.3,0.6-0.6S-14.3-0.6-14.7-0.6z M-14.7,0.4
		c-0.2,0-0.4-0.2-0.4-0.4s0.2-0.4,0.4-0.4c0.2,0,0.4,0.2,0.4,0.4S-14.5,0.4-14.7,0.4z"/>
	<path fill="#FFFFFF" d="M0,15.1c-0.4,0-0.6,0.3-0.6,0.6s0.3,0.6,0.6,0.6s0.6-0.3,0.6-0.6S0.4,15.1,0,15.1z M0,16.1
		c-0.2,0-0.4-0.2-0.4-0.4s0.2-0.4,0.4-0.4s0.4,0.2,0.4,0.4S0.2,16.1,0,16.1z"/>
	<path fill="#FFFFFF" d="M0,14c-0.4,0-0.6,0.3-0.6,0.6s0.3,0.6,0.6,0.6s0.6-0.3,0.6-0.6S0.4,14,0,14z M0,15.1
		c-0.2,0-0.4-0.2-0.4-0.4s0.2-0.4,0.4-0.4s0.4,0.2,0.4,0.4S0.2,15.1,0,15.1z"/>
	<path fill="#FFFFFF" d="M0-15.3c-0.4,0-0.6,0.3-0.6,0.6c0,0.4,0.3,0.6,0.6,0.6s0.6-0.3,0.6-0.6C0.6-15,0.4-15.3,0-15.3z M0-14.3
		c-0.2,0-0.4-0.2-0.4-0.4c0-0.2,0.2-0.4,0.4-0.4s0.4,0.2,0.4,0.4C0.4-14.5,0.2-14.3,0-14.3z"/>
	<path fill="#FFFFFF" d="M0-16.4c-0.4,0-0.6,0.3-0.6,0.6s0.3,0.6,0.6,0.6s0.6-0.3,0.6-0.6S0.4-16.4,0-16.4z M0-15.3
		c-0.2,0-0.4-0.2-0.4-0.4s0.2-0.4,0.4-0.4s0.4,0.2,0.4,0.4S0.2-15.3,0-15.3z"/>
	<path fill="#FFFFFF" d="M16.4-10.9h-32.7v21.8h32.7V-10.9z M-16.1-10.6h32.2v21.3h-32.2V-10.6z"/>
	<path fill="#FFFFFF" d="M10.9-16.4h-21.8v32.7h21.8V-16.4z M-10.6-16.1h21.3v32.2h-21.3V-16.1z"/>
</symbol>
<symbol  id="icone-link-preto" viewBox="-12.3 -12.3 24.7 24.7">
	<path fill="#FFFFFF" d="M7.1-2.4l2.2-2.2c1.3-1.3,1.3-3.4,0-4.7c-1.3-1.3-3.4-1.3-4.7,0l-7,7c-1.3,1.3-1.3,3.4,0,4.7
		C-2,2.7-1.7,2.9-1.3,3.1l-1.5,1.5c-0.3-0.2-0.7-0.5-1-0.8c-2.1-2.1-2.1-5.5,0-7.6c1.6-1.6,5.4-5.4,7-7c2.1-2.1,5.5-2.1,7.6,0
		c2.1,2.1,2.1,5.5,0,7.6C10-2.4,7.5,0.1,7.5,0.1L7.1-2.4z"/>
	<path fill="#FFFFFF" d="M-7.1,2.4l-2.2,2.2c-1.3,1.3-1.3,3.4,0,4.7c1.3,1.3,3.4,1.3,4.7,0l7-7c1.3-1.3,1.3-3.4,0-4.7
		C2-2.7,1.7-2.9,1.3-3.1l1.5-1.5c0.3,0.2,0.7,0.5,1,0.8c2.1,2.1,2.1,5.5,0,7.6c-1.6,1.6-5.4,5.4-7,7c-2.1,2.1-5.5,2.1-7.6,0
		c-2.1-2.1-2.1-5.5,0-7.6c0.7-0.7,3.2-3.2,3.2-3.2L-7.1,2.4z"/>
</symbol>
<use xlink:href="#icone-link-preto"  width="24.7" height="24.7" id="XMLID_5_" x="-12.3" y="-12.3" transform="matrix(11.7588 0 0 -11.7586 249.9947 250)" overflow="visible"/>
<use xlink:href="#grid"  width="42.8" height="42.8" id="XMLID_3_" x="-21.4" y="-21.4" transform="matrix(11.6906 0 0 -11.6904 249.9992 249.9971)" overflow="visible"/>
</svg>
