<?xml version="1.0" encoding="utf-8"?>
<!-- Generator: Adobe Illustrator 18.0.0, SVG Export Plug-In . SVG Version: 6.00 Build 0)  -->
<!DOCTYPE svg PUBLIC "-//W3C//DTD SVG 1.1//EN" "http://www.w3.org/Graphics/SVG/1.1/DTD/svg11.dtd">
<svg version="1.1" id="Camada_1" xmlns="http://www.w3.org/2000/svg" xmlns:xlink="http://www.w3.org/1999/xlink" x="0px" y="0px"
	 viewBox="0 0 500 500" enable-background="new 0 0 500 500" xml:space="preserve">
<symbol  id="grid_2" viewBox="-21.4 -21.4 42.8 42.8">
	<path fill="#FFFFFF" d="M21.4-21.4h-42.8v42.8h42.8V-21.4z M-21.1-21.1h42.3v42.3h-42.3V-21.1z"/>
	<polygon fill="#FFFFFF" points="0.1,-21.3 -0.1,-21.3 -0.1,21.3 0.1,21.3 	"/>
	<polygon fill="#FFFFFF" points="21.3,-0.1 -21.3,-0.1 -21.3,0.1 21.3,0.1 	"/>
	<path fill="#FFFFFF" d="M0-15.3c-8.5,0-15.3,6.9-15.3,15.3S-8.5,15.3,0,15.3c8.5,0,15.3-6.9,15.3-15.3S8.5-15.3,0-15.3z M0,15.1
		c-8.3,0-15.1-6.8-15.1-15.1S-8.3-15.1,0-15.1c8.3,0,15.1,6.8,15.1,15.1S8.3,15.1,0,15.1z"/>
	<path fill="#FFFFFF" d="M14.3-14.3h-28.6v28.6h28.6V-14.3z M-14-14H14V14H-14V-14z"/>
	<polygon fill="#FFFFFF" points="-21.2,-21.3 -21.3,-21.2 21.2,21.3 21.3,21.2 	"/>
	<polygon fill="#FFFFFF" points="21.2,-21.3 -21.3,21.2 -21.2,21.3 21.3,-21.2 	"/>
	<path fill="#FFFFFF" d="M14.7-0.6C14.3-0.6,14-0.4,14,0s0.3,0.6,0.6,0.6s0.6-0.3,0.6-0.6S15-0.6,14.7-0.6z M14.7,0.4
		c-0.2,0-0.4-0.2-0.4-0.4s0.2-0.4,0.4-0.4s0.4,0.2,0.4,0.4S14.9,0.4,14.7,0.4z"/>
	<path fill="#FFFFFF" d="M15.7-0.6c-0.4,0-0.6,0.3-0.6,0.6s0.3,0.6,0.6,0.6s0.6-0.3,0.6-0.6S16.1-0.6,15.7-0.6z M15.7,0.4
		c-0.2,0-0.4-0.2-0.4-0.4s0.2-0.4,0.4-0.4s0.4,0.2,0.4,0.4S15.9,0.4,15.7,0.4z"/>
	<path fill="#FFFFFF" d="M-15.7-0.6c-0.4,0-0.6,0.3-0.6,0.6s0.3,0.6,0.6,0.6s0.6-0.3,0.6-0.6S-15.4-0.6-15.7-0.6z M-15.7,0.4
		c-0.2,0-0.4-0.2-0.4-0.4s0.2-0.4,0.4-0.4s0.4,0.2,0.4,0.4S-15.5,0.4-15.7,0.4z"/>
	<path fill="#FFFFFF" d="M-14.7-0.6c-0.4,0-0.6,0.3-0.6,0.6s0.3,0.6,0.6,0.6S-14,0.4-14,0S-14.3-0.6-14.7-0.6z M-14.7,0.4
		c-0.2,0-0.4-0.2-0.4-0.4s0.2-0.4,0.4-0.4s0.4,0.2,0.4,0.4S-14.5,0.4-14.7,0.4z"/>
	<path fill="#FFFFFF" d="M0,15.1c-0.4,0-0.6,0.3-0.6,0.6s0.3,0.6,0.6,0.6s0.6-0.3,0.6-0.6S0.4,15.1,0,15.1z M0,16.1
		c-0.2,0-0.4-0.2-0.4-0.4s0.2-0.4,0.4-0.4s0.4,0.2,0.4,0.4S0.2,16.1,0,16.1z"/>
	<path fill="#FFFFFF" d="M0,14c-0.4,0-0.6,0.3-0.6,0.6s0.3,0.6,0.6,0.6s0.6-0.3,0.6-0.6S0.4,14,0,14z M0,15.1
		c-0.2,0-0.4-0.2-0.4-0.4s0.2-0.4,0.4-0.4s0.4,0.2,0.4,0.4S0.2,15.1,0,15.1z"/>
	<path fill="#FFFFFF" d="M0-15.3c-0.4,0-0.6,0.3-0.6,0.6c0,0.4,0.3,0.6,0.6,0.6s0.6-0.3,0.6-0.6C0.6-15,0.4-15.3,0-15.3z M0-14.3
		c-0.2,0-0.4-0.2-0.4-0.4c0-0.2,0.2-0.4,0.4-0.4s0.4,0.2,0.4,0.4C0.4-14.5,0.2-14.3,0-14.3z"/>
	<path fill="#FFFFFF" d="M0-16.4c-0.4,0-0.6,0.3-0.6,0.6s0.3,0.6,0.6,0.6s0.6-0.3,0.6-0.6S0.4-16.4,0-16.4z M0-15.3
		c-0.2,0-0.4-0.2-0.4-0.4s0.2-0.4,0.4-0.4s0.4,0.2,0.4,0.4S0.2-15.3,0-15.3z"/>
	<path fill="#FFFFFF" d="M16.4-10.9h-32.7v21.8h32.7V-10.9z M-16.1-10.6h32.2v21.3h-32.2V-10.6z"/>
	<path fill="#FFFFFF" d="M10.9-16.4h-21.8v32.7h21.8V-16.4z M-10.6-16.1h21.3v32.2h-21.3V-16.1z"/>
</symbol>
<symbol  id="icone-letra-G-branco" viewBox="-13.4 -15.2 26.8 30.4">
	<g>
		<path fill="#FFFFFF" d="M2.3-9.9c1,0,1.8,0.1,2.5,0.2C5.6-9.5,6.3-9.3,6.9-9v4.5H4c-0.4,0-0.8,0.1-1,0.3C2.7-3.9,2.6-3.6,2.6-3.3
			v3.8h10.6V-12c-0.8-0.6-1.6-1-2.4-1.4c-0.8-0.4-1.7-0.7-2.6-1c-0.9-0.3-1.9-0.4-3-0.6c-1.1-0.1-2.2-0.2-3.4-0.2
			c-2.2,0-4.2,0.4-6,1.2c-1.9,0.8-3.5,1.8-4.8,3.2c-1.4,1.4-2.4,3-3.2,4.8C-13-4.2-13.4-2.2-13.4,0c0,2.2,0.4,4.3,1.1,6.1
			c0.7,1.9,1.8,3.5,3.2,4.8c1.4,1.3,3,2.4,5,3.1c1.9,0.7,4.1,1.1,6.5,1.1c1.2,0,2.4-0.1,3.5-0.3c1.1-0.2,2.1-0.5,3-0.8
			c0.9-0.4,1.8-0.8,2.5-1.3c0.8-0.5,1.4-1,2-1.6l-2-3c-0.2-0.3-0.4-0.5-0.7-0.7c-0.3-0.2-0.6-0.2-0.9-0.2C9.4,7.2,9,7.4,8.6,7.7
			C8,8,7.5,8.3,7,8.5c-0.5,0.2-1,0.4-1.5,0.6C5.1,9.2,4.5,9.3,4,9.4C3.4,9.5,2.8,9.5,2.1,9.5c-1.3,0-2.5-0.2-3.5-0.7
			c-1-0.5-1.9-1.1-2.6-1.9c-0.7-0.8-1.3-1.8-1.7-3C-6.1,2.7-6.3,1.4-6.3,0c0-1.6,0.2-3,0.7-4.2c0.4-1.2,1-2.3,1.8-3.1
			c0.8-0.8,1.7-1.5,2.7-1.9C-0.1-9.7,1.1-9.9,2.3-9.9z"/>
	</g>
</symbol>
<use xlink:href="#icone-letra-G-branco"  width="26.8" height="30.4" x="-13.4" y="-15.2" transform="matrix(11.7585 0 0 -11.7588 250.0029 249.9971)" overflow="visible"/>
<use xlink:href="#grid_2"  width="42.8" height="42.8" id="XMLID_6_" x="-21.4" y="-21.4" transform="matrix(11.6903 0 0 -11.6906 249.9998 250.0001)" overflow="visible"/>
</svg>
