<?xml version="1.0" encoding="utf-8"?>
<!-- Generator: Adobe Illustrator 18.0.0, SVG Export Plug-In . SVG Version: 6.00 Build 0)  -->
<!DOCTYPE svg PUBLIC "-//W3C//DTD SVG 1.1//EN" "http://www.w3.org/Graphics/SVG/1.1/DTD/svg11.dtd">
<svg version="1.1" id="Camada_1" xmlns="http://www.w3.org/2000/svg" xmlns:xlink="http://www.w3.org/1999/xlink" x="0px" y="0px"
	 viewBox="0 0 500 166.7" enable-background="new 0 0 500 166.7" xml:space="preserve">
<symbol  id="box-cor-1" viewBox="-21.3 -21.3 42.5 42.5">
	<polygon fill="#A6214D" points="21.3,-21.3 -21.3,-21.3 -21.3,21.3 21.3,21.3 	"/>
</symbol>
<symbol  id="box-cor-2" viewBox="-21.3 -21.3 42.5 42.5">
	<polygon fill="#971D3D" points="21.3,-21.3 -21.3,-21.3 -21.3,21.3 21.3,21.3 	"/>
</symbol>
<symbol  id="icone-letra-G-branco" viewBox="-13.4 -15.2 26.8 30.4">
	<g>
		<path fill="#FFFFFF" d="M2.3-9.9c1,0,1.8,0.1,2.5,0.2C5.6-9.5,6.3-9.3,6.9-9v4.5H4c-0.4,0-0.8,0.1-1,0.3C2.7-3.9,2.6-3.6,2.6-3.3
			v3.8h10.6V-12c-0.8-0.6-1.6-1-2.4-1.4c-0.8-0.4-1.7-0.7-2.6-1c-0.9-0.3-1.9-0.4-3-0.6c-1.1-0.1-2.2-0.2-3.4-0.2
			c-2.2,0-4.2,0.4-6,1.2c-1.9,0.8-3.5,1.8-4.8,3.2c-1.4,1.4-2.4,3-3.2,4.8C-13-4.2-13.4-2.2-13.4,0c0,2.2,0.4,4.3,1.1,6.1
			c0.7,1.9,1.8,3.5,3.2,4.8c1.4,1.3,3,2.4,5,3.1c1.9,0.7,4.1,1.1,6.5,1.1c1.2,0,2.4-0.1,3.5-0.3c1.1-0.2,2.1-0.5,3-0.8
			c0.9-0.4,1.8-0.8,2.5-1.3c0.8-0.5,1.4-1,2-1.6l-2-3c-0.2-0.3-0.4-0.5-0.7-0.7c-0.3-0.2-0.6-0.2-0.9-0.2C9.4,7.2,9,7.4,8.6,7.7
			C8,8,7.5,8.3,7,8.5c-0.5,0.2-1,0.4-1.5,0.6C5.1,9.2,4.5,9.3,4,9.4C3.4,9.5,2.8,9.5,2.1,9.5c-1.3,0-2.5-0.2-3.5-0.7
			c-1-0.5-1.9-1.1-2.6-1.9c-0.7-0.8-1.3-1.8-1.7-3C-6.1,2.7-6.3,1.4-6.3,0c0-1.6,0.2-3,0.7-4.2c0.4-1.2,1-2.3,1.8-3.1
			c0.8-0.8,1.7-1.5,2.7-1.9C-0.1-9.7,1.1-9.9,2.3-9.9z"/>
	</g>
</symbol>
<symbol  id="icone-letra-H-branco" viewBox="-12.4 -14.2 24.7 28.3">
	<g>
		<path fill="#FFFFFF" d="M12.4-14.2H5.8v12H-5.8v-12h-6.6v28.3h6.6V2.3H5.8v11.8h6.6V-14.2z"/>
	</g>
</symbol>
<symbol  id="icone-mail-branco" viewBox="-16.2 -10.8 32.5 21.5">
	<path fill="#FFFFFF" d="M-16.2,10.8c0,0,0,0,0-1c0-0.6,0.3-0.8,0.5-0.9C-6.9,3.9-0.5,0.1-0.5,0.1S-0.2,0,0,0c0.2,0,0.5,0.1,0.5,0.1
		s6.3,3.7,15.2,8.7c0.2,0.1,0.5,0.2,0.5,0.9c0,0.7,0,1,0,1H-16.2z M0,2.1l-11.4,6.6h22.8L0,2.1z"/>
	<polygon fill="#FFFFFF" points="-16.2,-10.8 16.2,-10.8 16.2,6.8 14.2,5.7 14.2,-8.7 -14.2,-8.7 -14.2,5.7 -16.2,6.8 	"/>
</symbol>
<use xlink:href="#box-cor-1"  width="42.5" height="42.5" x="-21.3" y="-21.3" transform="matrix(3.9198 0 0 -3.9198 83.3333 83.3333)" overflow="visible"/>
<use xlink:href="#icone-letra-H-branco"  width="24.7" height="28.3" x="-12.4" y="-14.2" transform="matrix(3.9198 0 0 -3.9198 83.3349 83.3333)" overflow="visible"/>
<use xlink:href="#box-cor-2"  width="42.5" height="42.5" id="XMLID_2_" x="-21.3" y="-21.3" transform="matrix(3.9198 0 0 -3.9198 250 83.3333)" overflow="visible"/>
<use xlink:href="#icone-letra-G-branco"  width="26.8" height="30.4" x="-13.4" y="-15.2" transform="matrix(3.9198 0 0 -3.9198 247.3111 83.3333)" overflow="visible"/>
<use xlink:href="#box-cor-1"  width="42.5" height="42.5" x="-21.3" y="-21.3" transform="matrix(3.9198 0 0 -3.9198 416.6667 83.3333)" overflow="visible"/>
<use xlink:href="#icone-mail-branco"  width="32.5" height="21.5" x="-16.2" y="-10.8" transform="matrix(3.9198 0 0 -3.9198 416.6667 83.3333)" overflow="visible"/>
</svg>
