<?xml version="1.0" encoding="utf-8"?>
<!-- Generator: Adobe Illustrator 18.0.0, SVG Export Plug-In . SVG Version: 6.00 Build 0)  -->
<!DOCTYPE svg PUBLIC "-//W3C//DTD SVG 1.1//EN" "http://www.w3.org/Graphics/SVG/1.1/DTD/svg11.dtd">
<svg version="1.1" id="Camada_1" xmlns="http://www.w3.org/2000/svg" xmlns:xlink="http://www.w3.org/1999/xlink" x="0px" y="0px"
	 viewBox="0 0 500 166.7" enable-background="new 0 0 500 166.7" xml:space="preserve">
<symbol  id="box-cor-3" viewBox="-21.3 -21.3 42.5 42.5">
	<polygon fill="#6E122F" points="21.3,-21.3 -21.3,-21.3 -21.3,21.3 21.3,21.3 	"/>
</symbol>
<symbol  id="box-cor-4" viewBox="-21.3 -21.3 42.5 42.5">
	<polygon fill="#601E31" points="21.3,-21.3 -21.3,-21.3 -21.3,21.3 21.3,21.3 	"/>
</symbol>
<symbol  id="icone-link-branco" viewBox="-12.3 -12.3 24.7 24.7">
	<path fill="#FFFFFF" d="M7.1-2.4l2.2-2.2c1.3-1.3,1.3-3.4,0-4.7c-1.3-1.3-3.4-1.3-4.7,0l-7,7c-1.3,1.3-1.3,3.4,0,4.7
		C-2,2.7-1.7,2.9-1.3,3.1l-1.5,1.5c-0.3-0.2-0.7-0.5-1-0.8c-2.1-2.1-2.1-5.5,0-7.6c1.6-1.6,5.4-5.4,7-7c2.1-2.1,5.5-2.1,7.6,0
		c2.1,2.1,2.1,5.5,0,7.6C10-2.4,7.5,0.1,7.5,0.1L7.1-2.4z"/>
	<path fill="#FFFFFF" d="M-7.1,2.4l-2.2,2.2c-1.3,1.3-1.3,3.4,0,4.7c1.3,1.3,3.4,1.3,4.7,0l7-7c1.3-1.3,1.3-3.4,0-4.7
		C2-2.7,1.7-2.9,1.3-3.1l1.5-1.5c0.3,0.2,0.7,0.5,1,0.8c2.1,2.1,2.1,5.5,0,7.6c-1.6,1.6-5.4,5.4-7,7c-2.1,2.1-5.5,2.1-7.6,0
		c-2.1-2.1-2.1-5.5,0-7.6c0.7-0.7,3.2-3.2,3.2-3.2L-7.1,2.4z"/>
</symbol>
<symbol  id="icone-lupa-branco" viewBox="-12.3 -12.3 24.6 24.6">
	<path fill="#FFFFFF" d="M2.5-1c0,0-0.2,0.3,0,0.6c0.9,1.3,1.4,2.9,1.4,4.6c0,4.5-3.6,8.1-8.1,8.1c-4.5,0-8.1-3.6-8.1-8.1
		c0-4.5,3.6-8.1,8.1-8.1c1.7,0,3.3,0.5,4.6,1.4c0.4,0.3,0.7,0,0.7,0l9.8-9.8l0.7,0.7l0.7,0.7L2.5-1z M-4.2-1.9
		c-3.3,0-6.1,2.7-6.1,6.1s2.7,6.1,6.1,6.1s6.1-2.7,6.1-6.1S-0.9-1.9-4.2-1.9z"/>
</symbol>
<symbol  id="icone-redes-branco" viewBox="-16.2 -15.2 32.5 30.4">
	<path fill="#FFFFFF" d="M15.5-1.9c-0.5,0.5-1.1,0.7-1.7,0.8L9.8,10.5c0,0,0.1,0.1,0.1,0.1c1,1,1,2.8,0,3.8c-1,1-2.8,1-3.8,0
		c-0.9-0.9-1-2.3-0.4-3.3L2.2,5.9C1.5,6.2,0.8,6.4,0,6.4c-1.1,0-2.1-0.3-3-0.9l-3.4,3.4C-6,9.8-6.2,11-7,11.8c-1,1-2.8,1-3.8,0
		c-1.1-1.1-1.1-2.8,0-3.8c0.8-0.8,1.9-1,2.9-0.6L-4.5,4C-5,3.2-5.4,2.1-5.4,1c0-1.1,0.3-2.1,0.9-3l-1.8-1.8c-1,0.4-2.1,0.2-2.9-0.6
		l-1.7,0.7c0,0.7-0.2,1.4-0.8,1.9c-1,1-2.8,1-3.8,0c-1.1-1.1-1.1-2.8,0-3.8c1-1,2.7-1,3.8,0l1.7-0.7c0-0.7,0.3-1.4,0.8-1.9
		c0.5-0.5,1.2-0.8,1.9-0.8l0.7-1.7c-1-1.1-1-2.7,0-3.8c1.1-1,2.8-1,3.8,0c1,1,1,2.8,0,3.8c-0.5,0.5-1.2,0.8-1.9,0.8l-0.7,1.7
		c0.8,0.8,0.9,1.9,0.5,2.9L-3-3.4C-2.2-4-1.1-4.3,0-4.3c2,0,3.7,1.1,4.6,2.6l6.3-2.2c0-0.6,0.3-1.3,0.8-1.7c1.1-1,2.8-1,3.8,0
		C16.5-4.6,16.5-2.9,15.5-1.9z M-13.6-4.4c-0.5,0-0.9,0.4-0.9,0.9s0.4,0.9,0.9,0.9s0.9-0.4,0.9-0.9S-13.1-4.4-13.6-4.4z M-7.3-7.1
		c-0.5,0-0.9,0.4-0.9,0.9c0,0.5,0.4,0.9,0.9,0.9s0.9-0.4,0.9-0.9C-6.4-6.7-6.8-7.1-7.3-7.1z M-4.6-11.6c0.5,0,0.9-0.4,0.9-0.9
		c0-0.5-0.4-0.9-0.9-0.9c-0.5,0-0.9,0.4-0.9,0.9C-5.5-12-5.1-11.6-4.6-11.6z M8.1,13.4C8.6,13.4,9,13,9,12.5c0-0.5-0.4-0.9-0.9-0.9
		c-0.5,0-0.9,0.4-0.9,0.9C7.2,13,7.6,13.4,8.1,13.4z M-9.8,9.9c0,0.5,0.4,0.9,0.9,0.9c0.5,0,0.9-0.4,0.9-0.9C-8,9.4-8.4,9-8.9,9
		C-9.4,9-9.8,9.4-9.8,9.9z M0-2.3c-1.8,0-3.3,1.5-3.3,3.3S-1.8,4.3,0,4.3S3.3,2.9,3.3,1S1.8-2.3,0-2.3z M3.9,4.7l3.6,5.1
		c0.1,0,0.2,0,0.4,0l3.9-11.6c0,0-0.1-0.1-0.1-0.1c0,0-0.1-0.1-0.1-0.1L5.3,0.2c0,0.3,0.1,0.5,0.1,0.8C5.4,2.5,4.8,3.8,3.9,4.7z
		 M13.6-4.7c-0.5,0-0.9,0.4-0.9,0.9c0,0.5,0.4,0.9,0.9,0.9c0.5,0,0.9-0.4,0.9-0.9C14.4-4.3,14-4.7,13.6-4.7z"/>
</symbol>
<use xlink:href="#box-cor-4"  width="42.5" height="42.5" x="-21.3" y="-21.3" transform="matrix(11.7595 0 0 -3.9198 250.0052 83.3333)" overflow="visible"/>
<use xlink:href="#icone-lupa-branco"  width="24.6" height="24.6" x="-12.3" y="-12.3" transform="matrix(3.9198 0 0 -3.9198 79.9341 80.0106)" overflow="visible"/>
<use xlink:href="#box-cor-3"  width="42.5" height="42.5" x="-21.3" y="-21.3" transform="matrix(3.9198 0 0 -3.9198 250 83.3333)" overflow="visible"/>
<use xlink:href="#icone-link-branco"  width="24.7" height="24.7" x="-12.3" y="-12.3" transform="matrix(3.9198 0 0 -3.9198 250.0039 83.3333)" overflow="visible"/>
<use xlink:href="#icone-redes-branco"  width="32.5" height="30.4" x="-16.2" y="-15.2" transform="matrix(3.9198 0 0 -3.9198 416.6667 87.4099)" overflow="visible"/>
</svg>
