<?xml version="1.0" encoding="utf-8"?>
<!-- Generator: Adobe Illustrator 18.0.0, SVG Export Plug-In . SVG Version: 6.00 Build 0)  -->
<!DOCTYPE svg PUBLIC "-//W3C//DTD SVG 1.1//EN" "http://www.w3.org/Graphics/SVG/1.1/DTD/svg11.dtd">
<svg version="1.1" id="Camada_1" xmlns="http://www.w3.org/2000/svg" xmlns:xlink="http://www.w3.org/1999/xlink" x="0px" y="0px"
	 viewBox="0 0 500 166.7" enable-background="new 0 0 500 166.7" xml:space="preserve">
<symbol  id="box-cor-1" viewBox="-21.3 -21.3 42.5 42.5">
	<polygon fill="#A6214D" points="21.3,-21.3 -21.3,-21.3 -21.3,21.3 21.3,21.3 	"/>
</symbol>
<symbol  id="box-cor-2" viewBox="-21.3 -21.3 42.5 42.5">
	<polygon fill="#971D3D" points="21.3,-21.3 -21.3,-21.3 -21.3,21.3 21.3,21.3 	"/>
</symbol>
<symbol  id="icone-carrinho-branco" viewBox="-14.1 -14.1 28.2 28.2">
	<path fill="#FFFFFF" d="M14,6.9c0,0.1,0,0.2,0,0.2c0,0.6-0.5,1-1,1H-7.4l-1.3,5.1l0,0c-0.1,0.4-0.5,0.8-1,0.8h-3.4
		c-0.6,0-1-0.5-1-1s0.5-1,1-1h2.6L-6-5.9l0,0c0.1-0.4,0.5-0.8,1-0.8H9.9c0.5,0,0.9,0.3,1,0.8l0,0l0,0c0,0,0,0,0,0c0,0,0,0,0,0
		L14,6.9L14,6.9z M-6.8,6.1h18.6L9.1-4.6H-4.2L-6.8,6.1z"/>
	<path fill="#FFFFFF" d="M-0.6-9.5c-1,1-2.8,1-3.8,0c-1.1-1.1-1.1-2.8,0-3.8c1.1-1,2.8-1,3.8,0C0.4-12.3,0.4-10.5-0.6-9.5z
		 M-2.5-12.3c-0.5,0-0.9,0.4-0.9,0.9s0.4,0.9,0.9,0.9c0.5,0,0.9-0.4,0.9-0.9S-2-12.3-2.5-12.3z"/>
	<path fill="#FFFFFF" d="M9.3-9.5c-1,1-2.8,1-3.8,0c-1.1-1.1-1.1-2.8,0-3.8c1.1-1,2.8-1,3.8,0C10.4-12.3,10.4-10.5,9.3-9.5z
		 M7.4-12.3c-0.5,0-0.9,0.4-0.9,0.9s0.4,0.9,0.9,0.9c0.5,0,0.9-0.4,0.9-0.9S7.9-12.3,7.4-12.3z"/>
</symbol>
<symbol  id="icone-pin-branco" viewBox="-10.7 -16.1 21.4 32.3">
	<path fill="#FFFFFF" d="M7.6,13c-4.2,4.2-10.9,4.2-15.1,0c-4.2-4.2-4.2-10.9,0-15.1l0,0c0,0,0,0,0,0c2.3-3.2,5.7-8.6,6.5-13
		c0,0,0,0,0,0c0,0,0,0,0,0c0-0.6,0.5-1,1-1c0.6,0,1,0.5,1,1c0,0,0,0,0,0c0,0,0,0,0,0c0.8,4.4,4.3,9.8,6.5,13
		C11.7,2.1,11.7,8.8,7.6,13z M6.1-0.7C6.1-0.7,6.1-0.7,6.1-0.7C3.7-3.6,1.5-6.9,0-10.9c-1.5,4-3.6,7.2-6.1,10.2
		c-3.4,3.4-3.4,8.8,0,12.2c3.4,3.4,8.8,3.4,12.2,0C9.5,8.2,9.5,2.7,6.1-0.7z"/>
	<path fill="#FFFFFF" d="M-4.8,3.2c-0.1,0-0.2,0-0.3,0.1c-0.1,0.1-0.1,0.2-0.2,0.3l-0.3,1l-0.3-1c-0.1-0.2-0.2-0.4-0.5-0.4h-0.9
		l-1.1,3.7h1.1c0.1,0,0.2,0,0.3-0.1c0.1-0.1,0.2-0.2,0.2-0.3l0.2-0.9l0.3,0.9c0,0.1,0.1,0.2,0.2,0.3C-6,6.8-5.9,6.9-5.8,6.9h0.4
		c0.1,0,0.2,0,0.3-0.1c0.1-0.1,0.2-0.2,0.2-0.3l0.2-0.9l0.2,0.9c0,0.1,0.1,0.2,0.2,0.3c0.1,0.1,0.2,0.1,0.3,0.1h1.1l-1.1-3.7H-4.8z"
		/>
	<path fill="#FFFFFF" d="M0.7,3.2c-0.1,0-0.2,0-0.3,0.1C0.4,3.4,0.3,3.5,0.3,3.6L0,4.5l-0.3-1c-0.1-0.2-0.2-0.4-0.5-0.4h-0.9
		l-1.1,3.7h1.1c0.1,0,0.2,0,0.3-0.1c0.1-0.1,0.2-0.2,0.2-0.3L-1,5.6l0.3,0.9c0,0.1,0.1,0.2,0.2,0.3c0.1,0.1,0.2,0.1,0.3,0.1h0.4
		c0.1,0,0.2,0,0.3-0.1c0.1-0.1,0.2-0.2,0.2-0.3L1,5.6l0.2,0.9c0,0.1,0.1,0.2,0.2,0.3c0.1,0.1,0.2,0.1,0.3,0.1h1.1L1.7,3.2H0.7z"/>
	<path fill="#FFFFFF" d="M6.3,3.2c-0.1,0-0.2,0-0.3,0.1C5.9,3.4,5.9,3.5,5.8,3.6l-0.3,1l-0.3-1C5.2,3.3,5,3.2,4.8,3.2H3.9L2.7,6.9
		h1.1c0.1,0,0.2,0,0.3-0.1c0.1-0.1,0.2-0.2,0.2-0.3l0.2-0.9l0.3,0.9c0,0.1,0.1,0.2,0.2,0.3c0.1,0.1,0.2,0.1,0.3,0.1h0.4
		c0.1,0,0.2,0,0.3-0.1c0.1-0.1,0.2-0.2,0.2-0.3l0.2-0.9l0.2,0.9c0,0.1,0.1,0.2,0.2,0.3c0.1,0.1,0.2,0.1,0.3,0.1h1.1L7.2,3.2H6.3z"/>
</symbol>
<symbol  id="icone-pizza-branco" viewBox="-15.2 -15.2 30.4 30.4">
	<path fill="#FFFFFF" d="M12.1,9.2c-2.8,3.6-7.2,6-12.1,6c-2.7,0-5.3-0.7-7.5-2c0.8-1.2,0.4-0.6,1-1.4l0,0L0.3,1.4l10.1,6.7v0
		L12.1,9.2z M-4.4,12.4c1.4,0.5,2.9,0.8,4.4,0.8c3.4,0,6.6-1.3,8.9-3.5l-8-5.3L-4.4,12.4z"/>
	<path fill="#FFFFFF" d="M13.2,7.5c-1.6-1.1-0.5-0.4-1.5-1v0l-12-7.9l-8,12.1l0,0l-1,1.4c-3.6-2.8-5.9-7.2-5.9-12.1
		c0-8.4,6.8-15.2,15.2-15.2S15.2-8.4,15.2,0C15.2,2.7,14.5,5.3,13.2,7.5z M0-13.1c-7.3,0-13.1,5.9-13.1,13.1c0,3.4,1.3,6.6,3.5,8.9
		l8.7-13.2l13.2,8.8c0.5-1.4,0.8-2.9,0.8-4.5C13.1-7.3,7.3-13.1,0-13.1z"/>
</symbol>
<use xlink:href="#box-cor-1"  width="42.5" height="42.5" x="-21.3" y="-21.3" transform="matrix(11.7595 0 0 -3.9198 250.0052 83.3333)" overflow="visible"/>
<use xlink:href="#icone-pizza-branco"  width="30.4" height="30.4" x="-15.2" y="-15.2" transform="matrix(3.9198 0 0 -3.9198 83.3333 83.3333)" overflow="visible"/>
<use xlink:href="#icone-pin-branco"  width="21.4" height="32.3" x="-10.7" y="-16.1" transform="matrix(3.9198 0 0 -3.9198 416.6628 83.3314)" overflow="visible"/>
<use xlink:href="#box-cor-2"  width="42.5" height="42.5" x="-21.3" y="-21.3" transform="matrix(3.9198 0 0 -3.9198 250 83.3333)" overflow="visible"/>
<use xlink:href="#icone-carrinho-branco"  width="28.2" height="28.2" x="-14.1" y="-14.1" transform="matrix(3.9198 0 0 -3.9198 246 83.3333)" overflow="visible"/>
</svg>
