<?xml version="1.0" encoding="utf-8"?>
<!-- Generator: Adobe Illustrator 18.0.0, SVG Export Plug-In . SVG Version: 6.00 Build 0)  -->
<!DOCTYPE svg PUBLIC "-//W3C//DTD SVG 1.1//EN" "http://www.w3.org/Graphics/SVG/1.1/DTD/svg11.dtd">
<svg version="1.1" id="Camada_1" xmlns="http://www.w3.org/2000/svg" xmlns:xlink="http://www.w3.org/1999/xlink" x="0px" y="0px"
	 viewBox="0 0 595.3 326.1" enable-background="new 0 0 595.3 326.1" xml:space="preserve">
<g>
	<g id="XMLID_2_">
		<g>
			<path fill="#FFFFFF" d="M266.5,119.5h-22.3V79.1h-38.8v40.4H183V23.9h22.3v40h38.8v-40h22.3V119.5z"/>
		</g>
	</g>
	<g id="XMLID_3_">
		<g>
			<path fill="#FFFFFF" d="M409.9,263h-22.3v-40.4h-38.8V263h-22.3v-95.6h22.3v40h38.8v-40h22.3V263z"/>
		</g>
	</g>
	<path fill="#FFFFFF" d="M296.5,0H153v143.4v143.4h143.4h143.4V143.4V0H296.5z M326.7,51c2.5-6.3,6-11.7,10.6-16.2
		c4.6-4.5,10.2-8.1,16.8-10.6c6.5-2.5,13.9-3.8,22-3.8c4.2,0,8.1,0.3,11.8,1c3.7,0.7,7.1,1.6,10.2,2.8c3.1,1.2,5.9,2.6,8.5,4.3
		c2.6,1.7,4.9,3.4,6.9,5.4l-6.8,10.3c-0.6,1-1.4,1.7-2.3,2.3c-0.9,0.6-1.9,0.8-2.9,0.8c-1.4,0-2.8-0.5-4.3-1.4
		c-1.8-1.1-3.6-2.1-5.2-2.9c-1.6-0.8-3.3-1.5-5-2c-1.7-0.5-3.5-0.9-5.4-1.1c-1.9-0.2-4-0.3-6.3-0.3c-4.4,0-8.3,0.8-11.8,2.3
		c-3.5,1.5-6.5,3.7-8.9,6.5c-2.5,2.8-4.4,6.2-5.7,10.1c-1.3,3.9-2,8.3-2,13.1c0,5.3,0.7,10.1,2.2,14.2c1.5,4.1,3.5,7.6,6.1,10.5
		c2.6,2.8,5.7,5,9.2,6.5c3.6,1.5,7.5,2.2,11.7,2.2c3.2,0,6.1-0.3,8.5-0.8c2.5-0.5,4.8-1.3,7-2.2V86.9h-9.9c-1.5,0-2.6-0.4-3.4-1.2
		c-0.8-0.8-1.2-1.8-1.2-3V69.9h35.7v42.4c-2.6,1.9-5.2,3.5-8,4.9c-2.8,1.4-5.7,2.5-8.9,3.3c-3.1,0.9-6.5,1.5-10.1,1.9
		c-3.6,0.4-7.4,0.6-11.5,0.6c-7.4,0-14.2-1.3-20.4-3.9c-6.2-2.6-11.7-6.2-16.2-10.8c-4.6-4.6-8.2-10-10.8-16.3
		c-2.6-6.3-3.9-13.1-3.9-20.4C323,64.2,324.2,57.3,326.7,51z M205.6,229.3c1.5,4.1,3.5,7.6,6.1,10.5c2.6,2.8,5.7,5,9.2,6.5
		c3.6,1.5,7.5,2.2,11.7,2.2c3.2,0,6.1-0.3,8.5-0.8c2.5-0.5,4.8-1.3,7-2.2v-15.2h-9.9c-1.5,0-2.6-0.4-3.4-1.2c-0.8-0.8-1.2-1.8-1.2-3
		v-12.8h35.7v42.4c-2.6,1.9-5.2,3.5-8,4.9c-2.8,1.4-5.7,2.5-8.9,3.3c-3.1,0.9-6.5,1.5-10.1,1.9c-3.6,0.4-7.4,0.6-11.5,0.6
		c-7.4,0-14.2-1.3-20.4-3.9c-6.2-2.6-11.7-6.2-16.2-10.8c-4.6-4.6-8.2-10-10.8-16.3c-2.6-6.3-3.9-13.1-3.9-20.4
		c0-7.5,1.2-14.4,3.7-20.6c2.5-6.3,6-11.7,10.6-16.2c4.6-4.5,10.2-8.1,16.8-10.6c6.5-2.5,13.9-3.8,22-3.8c4.2,0,8.1,0.3,11.8,1
		c3.7,0.7,7.1,1.6,10.2,2.8c3.1,1.2,5.9,2.6,8.5,4.3c2.6,1.7,4.9,3.4,6.9,5.4l-6.8,10.3c-0.6,1-1.4,1.7-2.3,2.3
		c-0.9,0.6-1.9,0.8-2.9,0.8c-1.4,0-2.8-0.5-4.3-1.4c-1.8-1.1-3.6-2.1-5.2-2.9c-1.6-0.8-3.3-1.5-5-2c-1.7-0.5-3.5-0.9-5.4-1.1
		c-1.9-0.2-4-0.3-6.3-0.3c-4.4,0-8.3,0.8-11.8,2.3c-3.5,1.5-6.5,3.7-8.9,6.5c-2.5,2.8-4.4,6.2-5.7,10.1c-1.3,3.9-2,8.3-2,13.1
		C203.4,220.5,204.1,225.2,205.6,229.3z M437.9,284.9H296.5V143.4H155V2h141.4v141.4h141.4V284.9z"/>
	<g>
		<path fill="#FFFFFF" d="M164.5,298.1c1.5,0,2.9,0.3,4.2,0.8c1.3,0.5,2.4,1.3,3.4,2.3c1,1,1.7,2.3,2.2,3.7c0.5,1.5,0.8,3.2,0.8,5.1
			c0,0.4-0.1,0.7-0.2,0.8c-0.1,0.1-0.3,0.2-0.6,0.2h-19.6v0.5c0,2,0.2,3.8,0.7,5.4c0.5,1.5,1.1,2.8,2,3.9c0.9,1,1.9,1.8,3.2,2.4
			c1.2,0.5,2.6,0.8,4.2,0.8c1.4,0,2.5-0.2,3.6-0.5c1-0.3,1.8-0.6,2.5-1c0.7-0.4,1.2-0.7,1.6-1c0.4-0.3,0.7-0.5,0.9-0.5
			c0.2,0,0.4,0.1,0.5,0.3l0.7,0.9c-0.4,0.5-1,1.1-1.7,1.5c-0.7,0.5-1.5,0.9-2.4,1.2c-0.9,0.3-1.8,0.6-2.8,0.8c-1,0.2-2,0.3-3,0.3
			c-1.9,0-3.6-0.3-5.1-1c-1.5-0.6-2.8-1.6-3.9-2.8c-1.1-1.2-1.9-2.8-2.5-4.5c-0.6-1.8-0.9-3.8-0.9-6.2c0-1.9,0.3-3.7,0.8-5.4
			c0.6-1.6,1.4-3.1,2.4-4.3c1-1.2,2.3-2.1,3.9-2.8C160.8,298.5,162.6,298.1,164.5,298.1z M164.5,300.1c-1.4,0-2.7,0.2-3.8,0.7
			c-1.1,0.4-2.1,1.1-2.9,1.9c-0.8,0.8-1.5,1.8-2,3c-0.5,1.1-0.8,2.4-1,3.9h17.9c0-1.5-0.2-2.8-0.6-3.9c-0.4-1.2-1-2.1-1.7-2.9
			c-0.7-0.8-1.6-1.4-2.6-1.8C166.9,300.3,165.8,300.1,164.5,300.1z"/>
		<path fill="#FFFFFF" d="M202.8,302.2c-0.1,0.1-0.2,0.2-0.3,0.2c-0.1,0.1-0.2,0.1-0.3,0.1c-0.2,0-0.4-0.1-0.8-0.4
			c-0.3-0.2-0.7-0.5-1.3-0.8c-0.5-0.3-1.2-0.6-2-0.8c-0.8-0.2-1.8-0.4-2.9-0.4c-1.6,0-3,0.3-4.2,0.8c-1.2,0.6-2.2,1.4-3.1,2.4
			c-0.8,1-1.5,2.3-1.9,3.8c-0.4,1.5-0.7,3.1-0.7,5c0,1.9,0.2,3.6,0.7,5.1c0.4,1.5,1.1,2.7,1.9,3.7c0.8,1,1.8,1.8,3,2.3
			c1.2,0.5,2.5,0.8,3.9,0.8c1.3,0,2.4-0.2,3.3-0.5c0.9-0.3,1.6-0.6,2.2-1c0.6-0.4,1-0.7,1.4-1c0.3-0.3,0.6-0.5,0.8-0.5
			c0.2,0,0.4,0.1,0.5,0.3l0.7,0.9c-0.4,0.5-0.9,1.1-1.6,1.5c-0.6,0.5-1.4,0.9-2.2,1.2c-0.8,0.3-1.7,0.6-2.6,0.8
			c-0.9,0.2-1.9,0.3-2.9,0.3c-1.7,0-3.3-0.3-4.7-0.9c-1.4-0.6-2.7-1.5-3.7-2.7c-1-1.2-1.8-2.7-2.4-4.4c-0.6-1.7-0.9-3.7-0.9-5.9
			c0-2.1,0.3-4,0.8-5.7c0.5-1.7,1.3-3.2,2.4-4.4c1-1.2,2.3-2.2,3.9-2.9c1.5-0.7,3.3-1,5.2-1c1.8,0,3.3,0.3,4.7,0.8
			c1.4,0.6,2.6,1.3,3.6,2.3L202.8,302.2z"/>
		<path fill="#FFFFFF" d="M222.8,298.1c1.9,0,3.7,0.3,5.2,1c1.5,0.7,2.8,1.6,3.9,2.8c1.1,1.2,1.9,2.7,2.4,4.4
			c0.6,1.7,0.8,3.6,0.8,5.8c0,2.1-0.3,4.1-0.8,5.8c-0.6,1.7-1.4,3.2-2.4,4.4c-1.1,1.2-2.4,2.2-3.9,2.8c-1.5,0.7-3.3,1-5.2,1
			s-3.7-0.3-5.2-1c-1.5-0.7-2.8-1.6-3.9-2.8c-1.1-1.2-1.9-2.7-2.4-4.4c-0.6-1.7-0.8-3.6-0.8-5.8c0-2.1,0.3-4.1,0.8-5.8
			c0.6-1.7,1.4-3.2,2.4-4.4c1.1-1.2,2.4-2.2,3.9-2.8C219.1,298.5,220.9,298.1,222.8,298.1z M222.8,324.1c1.6,0,3-0.3,4.2-0.8
			c1.2-0.6,2.2-1.4,3-2.4c0.8-1,1.4-2.3,1.8-3.8c0.4-1.5,0.6-3.1,0.6-4.9c0-1.8-0.2-3.4-0.6-4.9c-0.4-1.5-1-2.7-1.8-3.8
			c-0.8-1-1.8-1.9-3-2.4c-1.2-0.6-2.6-0.8-4.2-0.8s-3,0.3-4.2,0.8c-1.2,0.6-2.2,1.4-3,2.4s-1.4,2.3-1.8,3.8
			c-0.4,1.5-0.6,3.1-0.6,4.9c0,1.8,0.2,3.5,0.6,4.9c0.4,1.5,1,2.7,1.8,3.8c0.8,1,1.8,1.8,3,2.4C219.8,323.8,221.2,324.1,222.8,324.1
			z"/>
		<path fill="#FFFFFF" d="M244.8,325.8v-27.2h1.4c0.5,0,0.7,0.2,0.8,0.7l0.2,3.9c0.5-0.7,1.1-1.4,1.7-2c0.6-0.6,1.2-1.2,1.9-1.6
			c0.7-0.4,1.4-0.8,2.2-1c0.8-0.2,1.6-0.4,2.4-0.4c2,0,3.6,0.6,4.8,1.7c1.2,1.2,2,2.8,2.4,4.8c0.3-1.1,0.8-2.1,1.4-2.9
			c0.6-0.8,1.3-1.5,2-2c0.8-0.5,1.6-0.9,2.5-1.2c0.9-0.3,1.8-0.4,2.8-0.4c1.3,0,2.6,0.2,3.6,0.7c1.1,0.4,2,1.1,2.7,2
			c0.8,0.9,1.3,1.9,1.7,3.2c0.4,1.3,0.6,2.7,0.6,4.4v17.4h-2.6v-17.4c0-2.7-0.6-4.7-1.7-6.1c-1.1-1.4-2.8-2.1-4.9-2.1
			c-0.9,0-1.9,0.2-2.7,0.5c-0.9,0.3-1.6,0.9-2.3,1.5c-0.7,0.7-1.2,1.5-1.6,2.6c-0.4,1-0.6,2.2-0.6,3.6v17.4H261v-17.4
			c0-2.6-0.5-4.7-1.6-6.1c-1.1-1.4-2.6-2.1-4.6-2.1c-1.5,0-2.8,0.4-4.1,1.3c-1.3,0.9-2.4,2.1-3.4,3.7v20.5H244.8z"/>
		<path fill="#FFFFFF" d="M290.9,325.8v-27.2h1.4c0.5,0,0.7,0.2,0.8,0.7l0.2,3.9c0.5-0.7,1.1-1.4,1.7-2c0.6-0.6,1.2-1.2,1.9-1.6
			c0.7-0.4,1.4-0.8,2.2-1c0.8-0.2,1.6-0.4,2.4-0.4c2,0,3.6,0.6,4.8,1.7c1.2,1.2,2,2.8,2.4,4.8c0.3-1.1,0.8-2.1,1.4-2.9
			c0.6-0.8,1.3-1.5,2-2c0.8-0.5,1.6-0.9,2.5-1.2c0.9-0.3,1.8-0.4,2.8-0.4c1.3,0,2.6,0.2,3.6,0.7c1.1,0.4,2,1.1,2.7,2
			c0.8,0.9,1.3,1.9,1.7,3.2c0.4,1.3,0.6,2.7,0.6,4.4v17.4h-2.6v-17.4c0-2.7-0.6-4.7-1.7-6.1c-1.1-1.4-2.8-2.1-4.9-2.1
			c-0.9,0-1.9,0.2-2.7,0.5s-1.6,0.9-2.3,1.5c-0.7,0.7-1.2,1.5-1.6,2.6c-0.4,1-0.6,2.2-0.6,3.6v17.4h-2.6v-17.4
			c0-2.6-0.5-4.7-1.6-6.1c-1.1-1.4-2.6-2.1-4.6-2.1c-1.5,0-2.8,0.4-4.1,1.3c-1.3,0.9-2.4,2.1-3.4,3.7v20.5H290.9z"/>
		<path fill="#FFFFFF" d="M347.4,298.1c1.5,0,2.9,0.3,4.2,0.8c1.3,0.5,2.4,1.3,3.4,2.3c1,1,1.7,2.3,2.2,3.7c0.5,1.5,0.8,3.2,0.8,5.1
			c0,0.4-0.1,0.7-0.2,0.8c-0.1,0.1-0.3,0.2-0.6,0.2h-19.6v0.5c0,2,0.2,3.8,0.7,5.4c0.5,1.5,1.1,2.8,2,3.9c0.9,1,1.9,1.8,3.2,2.4
			c1.2,0.5,2.6,0.8,4.2,0.8c1.4,0,2.6-0.2,3.6-0.5c1-0.3,1.8-0.6,2.5-1c0.7-0.4,1.2-0.7,1.6-1c0.4-0.3,0.7-0.5,0.9-0.5
			c0.2,0,0.4,0.1,0.5,0.3l0.7,0.9c-0.4,0.5-1,1.1-1.7,1.5c-0.7,0.5-1.5,0.9-2.4,1.2c-0.9,0.3-1.8,0.6-2.8,0.8c-1,0.2-2,0.3-3,0.3
			c-1.9,0-3.6-0.3-5.1-1c-1.5-0.6-2.8-1.6-3.9-2.8c-1.1-1.2-1.9-2.8-2.5-4.5c-0.6-1.8-0.9-3.8-0.9-6.2c0-1.9,0.3-3.7,0.8-5.4
			c0.6-1.6,1.4-3.1,2.4-4.3c1-1.2,2.3-2.1,3.9-2.8C343.7,298.5,345.4,298.1,347.4,298.1z M347.4,300.1c-1.4,0-2.7,0.2-3.8,0.7
			c-1.1,0.4-2.1,1.1-2.9,1.9c-0.8,0.8-1.5,1.8-2,3c-0.5,1.1-0.8,2.4-1,3.9h17.9c0-1.5-0.2-2.8-0.6-3.9c-0.4-1.2-1-2.1-1.7-2.9
			c-0.7-0.8-1.6-1.4-2.6-1.8C349.8,300.3,348.7,300.1,347.4,300.1z"/>
		<path fill="#FFFFFF" d="M367.8,325.8v-27.2h1.4c0.3,0,0.5,0.1,0.7,0.2c0.1,0.1,0.2,0.3,0.2,0.7l0.2,5.7c0.9-2.2,2-3.9,3.5-5.2
			c1.5-1.2,3.2-1.9,5.4-1.9c0.8,0,1.6,0.1,2.3,0.3c0.7,0.2,1.3,0.4,2,0.8l-0.4,1.8c-0.1,0.3-0.2,0.4-0.5,0.4c-0.1,0-0.3,0-0.5-0.1
			c-0.2-0.1-0.5-0.2-0.8-0.2c-0.3-0.1-0.7-0.2-1.1-0.2c-0.4-0.1-0.9-0.1-1.5-0.1c-2.1,0-3.7,0.6-5.1,1.9c-1.3,1.3-2.4,3.1-3.2,5.5
			v17.7H367.8z"/>
		<path fill="#FFFFFF" d="M410.1,302.2c-0.1,0.1-0.2,0.2-0.3,0.2c-0.1,0.1-0.2,0.1-0.3,0.1c-0.2,0-0.4-0.1-0.8-0.4
			c-0.3-0.2-0.7-0.5-1.3-0.8c-0.5-0.3-1.2-0.6-2-0.8c-0.8-0.2-1.8-0.4-2.9-0.4c-1.6,0-3,0.3-4.2,0.8c-1.2,0.6-2.2,1.4-3.1,2.4
			c-0.8,1-1.5,2.3-1.9,3.8c-0.4,1.5-0.7,3.1-0.7,5c0,1.9,0.2,3.6,0.7,5.1c0.4,1.5,1.1,2.7,1.9,3.7c0.8,1,1.8,1.8,3,2.3
			c1.2,0.5,2.5,0.8,3.9,0.8c1.3,0,2.4-0.2,3.3-0.5c0.9-0.3,1.6-0.6,2.2-1c0.6-0.4,1-0.7,1.4-1c0.3-0.3,0.6-0.5,0.8-0.5
			c0.2,0,0.4,0.1,0.5,0.3l0.7,0.9c-0.4,0.5-0.9,1.1-1.6,1.5c-0.6,0.5-1.4,0.9-2.2,1.2c-0.8,0.3-1.7,0.6-2.6,0.8
			c-0.9,0.2-1.9,0.3-2.9,0.3c-1.7,0-3.3-0.3-4.7-0.9c-1.4-0.6-2.7-1.5-3.7-2.7c-1-1.2-1.8-2.7-2.4-4.4c-0.6-1.7-0.9-3.7-0.9-5.9
			c0-2.1,0.3-4,0.8-5.7c0.5-1.7,1.3-3.2,2.4-4.4c1-1.2,2.3-2.2,3.9-2.9c1.5-0.7,3.3-1,5.2-1c1.8,0,3.3,0.3,4.7,0.8
			c1.4,0.6,2.6,1.3,3.6,2.3L410.1,302.2z"/>
		<path fill="#FFFFFF" d="M430,298.1c1.5,0,2.9,0.3,4.2,0.8c1.3,0.5,2.4,1.3,3.4,2.3c1,1,1.7,2.3,2.2,3.7c0.5,1.5,0.8,3.2,0.8,5.1
			c0,0.4-0.1,0.7-0.2,0.8c-0.1,0.1-0.3,0.2-0.6,0.2h-19.6v0.5c0,2,0.2,3.8,0.7,5.4c0.5,1.5,1.1,2.8,2,3.9c0.9,1,1.9,1.8,3.2,2.4
			c1.2,0.5,2.6,0.8,4.2,0.8c1.4,0,2.6-0.2,3.6-0.5c1-0.3,1.8-0.6,2.5-1c0.7-0.4,1.2-0.7,1.6-1c0.4-0.3,0.7-0.5,0.9-0.5
			c0.2,0,0.4,0.1,0.5,0.3l0.7,0.9c-0.4,0.5-1,1.1-1.7,1.5c-0.7,0.5-1.5,0.9-2.4,1.2c-0.9,0.3-1.8,0.6-2.8,0.8c-1,0.2-2,0.3-3,0.3
			c-1.9,0-3.6-0.3-5.1-1c-1.5-0.6-2.8-1.6-3.9-2.8c-1.1-1.2-1.9-2.8-2.5-4.5c-0.6-1.8-0.9-3.8-0.9-6.2c0-1.9,0.3-3.7,0.8-5.4
			c0.6-1.6,1.4-3.1,2.4-4.3c1-1.2,2.3-2.1,3.8-2.8C426.4,298.5,428.1,298.1,430,298.1z M430.1,300.1c-1.4,0-2.7,0.2-3.8,0.7
			c-1.1,0.4-2.1,1.1-2.9,1.9c-0.8,0.8-1.5,1.8-2,3c-0.5,1.1-0.8,2.4-1,3.9h17.9c0-1.5-0.2-2.8-0.6-3.9c-0.4-1.2-1-2.1-1.7-2.9
			c-0.7-0.8-1.6-1.4-2.6-1.8C432.4,300.3,431.3,300.1,430.1,300.1z"/>
	</g>
</g>
</svg>
