<?xml version="1.0" encoding="utf-8"?>
<!-- Generator: Adobe Illustrator 18.0.0, SVG Export Plug-In . SVG Version: 6.00 Build 0)  -->
<!DOCTYPE svg PUBLIC "-//W3C//DTD SVG 1.1//EN" "http://www.w3.org/Graphics/SVG/1.1/DTD/svg11.dtd">
<svg version="1.1" id="Camada_1" xmlns="http://www.w3.org/2000/svg" xmlns:xlink="http://www.w3.org/1999/xlink" x="0px" y="0px"
	 viewBox="0 247.9 595.3 346.1" enable-background="new 0 247.9 595.3 346.1" xml:space="preserve">
<g>
	<g id="XMLID_2_">
		<g>
			<path fill="#FFFFFF" d="M276.9,392.5h-14.5v-26.4H237v26.4h-14.6v-62.4H237v26.1h25.3v-26.1h14.5L276.9,392.5L276.9,392.5z"/>
		</g>
	</g>
	<g id="XMLID_3_">
		<g>
			<path fill="#FFFFFF" d="M370.5,486.2h-14.5v-26.4h-25.3v26.4H316v-62.4h14.5v26.1h25.3v-26.1h14.5V486.2z"/>
		</g>
	</g>
	<path fill="#FFFFFF" d="M296.5,314.6h-93.6v93.6v93.6h93.6H390v-93.6v-93.6H296.5z M316.2,347.8c1.6-4.1,3.9-7.6,6.9-10.6
		c3-2.9,6.7-5.3,11-6.9c4.2-1.6,9.1-2.5,14.4-2.5c2.7,0,5.3,0.2,7.7,0.7s4.6,1,6.7,1.8c2,0.8,3.8,1.7,5.5,2.8
		c1.7,1.1,3.2,2.2,4.5,3.5l-4.4,6.7c-0.4,0.7-0.9,1.1-1.5,1.5c-0.6,0.4-1.2,0.5-1.9,0.5c-0.9,0-1.8-0.3-2.8-0.9
		c-1.2-0.7-2.3-1.4-3.4-1.9c-1-0.5-2.2-1-3.3-1.3c-1.1-0.3-2.3-0.6-3.5-0.7c-1.2-0.1-2.6-0.2-4.1-0.2c-2.9,0-5.4,0.5-7.7,1.5
		s-4.2,2.4-5.8,4.2c-1.6,1.8-2.9,4-3.7,6.6c-0.8,2.5-1.3,5.4-1.3,8.5c0,3.5,0.5,6.6,1.4,9.3c1,2.7,2.3,5,4,6.9
		c1.7,1.8,3.7,3.3,6,4.2c2.3,1,4.9,1.4,7.6,1.4c2.1,0,4-0.2,5.5-0.5c1.6-0.3,3.1-0.8,4.6-1.4v-9.9h-6.5c-1,0-1.7-0.3-2.2-0.8
		c-0.5-0.5-0.8-1.2-0.8-2v-8.4h23.3v27.7c-1.7,1.2-3.4,2.3-5.2,3.2c-1.8,0.9-3.7,1.6-5.8,2.2c-2,0.6-4.2,1-6.6,1.2
		c-2.3,0.3-4.8,0.4-7.5,0.4c-4.8,0-9.3-0.8-13.3-2.5c-4-1.7-7.6-4-10.6-7c-3-3-5.3-6.5-7-10.6s-2.5-8.5-2.5-13.3
		C313.8,356.5,314.5,352,316.2,347.8z M237.2,464.2c1,2.7,2.3,5,4,6.9c1.7,1.8,3.7,3.3,6,4.2c2.3,1,4.9,1.4,7.6,1.4
		c2.1,0,4-0.2,5.5-0.5c1.6-0.3,3.1-0.8,4.6-1.4v-9.9h-6.5c-1,0-1.7-0.3-2.2-0.8c-0.5-0.5-0.8-1.2-0.8-2v-8.4h23.3v27.7
		c-1.7,1.2-3.4,2.3-5.2,3.2c-1.8,0.9-3.7,1.6-5.8,2.2c-2,0.6-4.2,1-6.6,1.2c-2.3,0.3-4.8,0.4-7.5,0.4c-4.8,0-9.3-0.8-13.3-2.5
		c-4-1.7-7.6-4-10.6-7c-3-3-5.3-6.5-7-10.6s-2.5-8.5-2.5-13.3c0-4.9,0.8-9.4,2.4-13.4c1.6-4.1,3.9-7.6,6.9-10.6
		c3-2.9,6.7-5.3,11-6.9c4.2-1.6,9.1-2.5,14.4-2.5c2.7,0,5.3,0.2,7.7,0.7c2.4,0.5,4.6,1,6.7,1.8c2,0.8,3.8,1.7,5.5,2.8
		c1.7,1.1,3.2,2.2,4.5,3.5l-4.4,6.7c-0.4,0.7-0.9,1.1-1.5,1.5c-0.6,0.4-1.2,0.5-1.9,0.5c-0.9,0-1.8-0.3-2.8-0.9
		c-1.2-0.7-2.3-1.4-3.4-1.9c-1-0.5-2.2-1-3.3-1.3c-1.1-0.3-2.3-0.6-3.5-0.7s-2.6-0.2-4.1-0.2c-2.9,0-5.4,0.5-7.7,1.5
		s-4.2,2.4-5.8,4.2c-1.6,1.8-2.9,4-3.7,6.6c-0.8,2.5-1.3,5.4-1.3,8.5C235.7,458.4,236.2,461.5,237.2,464.2z M388.7,500.4h-92.3
		v-92.3h-92.3v-92.3h92.3v92.3h92.3L388.7,500.4L388.7,500.4z"/>
	<g>
		<path fill="#FFFFFF" d="M210.4,509.1c1,0,1.9,0.2,2.7,0.5c0.8,0.3,1.6,0.8,2.2,1.5c0.7,0.7,1.1,1.5,1.4,2.4c0.3,1,0.5,2.1,0.5,3.3
			c0,0.3-0.1,0.5-0.1,0.5c-0.1,0.1-0.2,0.1-0.4,0.1H204v0.3c0,1.3,0.1,2.5,0.5,3.5c0.3,1,0.7,1.8,1.3,2.5c0.6,0.7,1.2,1.2,2.1,1.6
			c0.8,0.3,1.7,0.5,2.7,0.5c0.9,0,1.6-0.1,2.3-0.3c0.7-0.2,1.2-0.4,1.6-0.7c0.5-0.3,0.8-0.5,1-0.7c0.3-0.2,0.5-0.3,0.6-0.3
			c0.1,0,0.3,0.1,0.3,0.2l0.5,0.6c-0.3,0.3-0.7,0.7-1.1,1c-0.5,0.3-1,0.6-1.6,0.8s-1.2,0.4-1.8,0.5c-0.7,0.1-1.3,0.2-2,0.2
			c-1.2,0-2.3-0.2-3.3-0.7c-1-0.4-1.8-1-2.5-1.8c-0.7-0.8-1.2-1.8-1.6-2.9c-0.4-1.2-0.6-2.5-0.6-4c0-1.2,0.2-2.4,0.5-3.5
			c0.4-1,0.9-2,1.6-2.8c0.7-0.8,1.5-1.4,2.5-1.8C207.9,509.3,209.1,509.1,210.4,509.1z M210.4,510.4c-0.9,0-1.8,0.1-2.5,0.5
			c-0.7,0.3-1.4,0.7-1.9,1.2c-0.5,0.5-1,1.2-1.3,2c-0.3,0.7-0.5,1.6-0.7,2.5h11.7c0-1-0.1-1.8-0.4-2.5c-0.3-0.8-0.7-1.4-1.1-1.9
			c-0.5-0.5-1-0.9-1.7-1.2C211.9,510.5,211.2,510.4,210.4,510.4z"/>
		<path fill="#FFFFFF" d="M235.3,511.7c-0.1,0.1-0.1,0.1-0.2,0.1c-0.1,0.1-0.1,0.1-0.2,0.1c-0.1,0-0.3-0.1-0.5-0.3
			c-0.2-0.1-0.5-0.3-0.8-0.5c-0.3-0.2-0.8-0.4-1.3-0.5c-0.5-0.1-1.2-0.3-1.9-0.3c-1,0-2,0.2-2.7,0.5c-0.8,0.4-1.4,0.9-2,1.6
			c-0.5,0.7-1,1.5-1.2,2.5c-0.3,1-0.5,2-0.5,3.3c0,1.2,0.1,2.3,0.5,3.3c0.3,1,0.7,1.8,1.2,2.4c0.5,0.7,1.2,1.2,2,1.5
			c0.8,0.3,1.6,0.5,2.5,0.5c0.8,0,1.6-0.1,2.2-0.3c0.6-0.2,1-0.4,1.4-0.7c0.4-0.3,0.7-0.5,0.9-0.7c0.2-0.2,0.4-0.3,0.5-0.3
			c0.1,0,0.3,0.1,0.3,0.2l0.5,0.6c-0.3,0.3-0.6,0.7-1,1c-0.4,0.3-0.9,0.6-1.4,0.8c-0.5,0.2-1.1,0.4-1.7,0.5
			c-0.6,0.1-1.2,0.2-1.9,0.2c-1.1,0-2.2-0.2-3.1-0.6c-0.9-0.4-1.8-1-2.4-1.8c-0.7-0.8-1.2-1.8-1.6-2.9c-0.4-1.1-0.6-2.4-0.6-3.8
			c0-1.4,0.2-2.6,0.5-3.7c0.3-1.1,0.8-2.1,1.6-2.9c0.7-0.8,1.5-1.4,2.5-1.9c1-0.5,2.2-0.7,3.4-0.7c1.2,0,2.2,0.2,3.1,0.5
			c0.9,0.4,1.7,0.8,2.3,1.5L235.3,511.7z"/>
		<path fill="#FFFFFF" d="M248.4,509.1c1.2,0,2.4,0.2,3.4,0.7c1,0.5,1.8,1,2.5,1.8c0.7,0.8,1.2,1.8,1.6,2.9c0.4,1.1,0.5,2.3,0.5,3.8
			c0,1.4-0.2,2.7-0.5,3.8c-0.4,1.1-0.9,2.1-1.6,2.9c-0.7,0.8-1.6,1.4-2.5,1.8c-1,0.5-2.2,0.7-3.4,0.7c-1.2,0-2.4-0.2-3.4-0.7
			c-1-0.5-1.8-1-2.5-1.8c-0.7-0.8-1.2-1.8-1.6-2.9c-0.4-1.1-0.5-2.3-0.5-3.8c0-1.4,0.2-2.7,0.5-3.8c0.4-1.1,0.9-2.1,1.6-2.9
			c0.7-0.8,1.6-1.4,2.5-1.8C246,509.3,247.1,509.1,248.4,509.1z M248.4,526c1,0,2-0.2,2.7-0.5c0.8-0.4,1.4-0.9,2-1.6
			c0.5-0.7,0.9-1.5,1.2-2.5c0.3-1,0.4-2,0.4-3.2c0-1.2-0.1-2.2-0.4-3.2s-0.7-1.8-1.2-2.5c-0.5-0.7-1.2-1.2-2-1.6
			c-0.8-0.4-1.7-0.5-2.7-0.5s-2,0.2-2.7,0.5c-0.8,0.4-1.4,0.9-2,1.6c-0.5,0.7-0.9,1.5-1.2,2.5s-0.4,2-0.4,3.2c0,1.2,0.1,2.3,0.4,3.2
			c0.3,1,0.7,1.8,1.2,2.5c0.5,0.7,1.2,1.2,2,1.6C246.4,525.8,247.3,526,248.4,526z"/>
		<path fill="#FFFFFF" d="M262.7,527.1v-17.7h0.9c0.3,0,0.5,0.1,0.5,0.5l0.1,2.5c0.3-0.5,0.7-0.9,1.1-1.3c0.4-0.4,0.8-0.8,1.2-1
			c0.5-0.3,0.9-0.5,1.4-0.7s1-0.3,1.6-0.3c1.3,0,2.3,0.4,3.1,1.1c0.8,0.8,1.3,1.8,1.6,3.1c0.2-0.7,0.5-1.4,0.9-1.9
			c0.4-0.5,0.8-1,1.3-1.3c0.5-0.3,1-0.6,1.6-0.8c0.6-0.2,1.2-0.3,1.8-0.3c0.8,0,1.7,0.1,2.3,0.5c0.7,0.3,1.3,0.7,1.8,1.3
			c0.5,0.6,0.8,1.2,1.1,2.1c0.3,0.8,0.4,1.8,0.4,2.9v11.4h-1.7v-11.4c0-1.8-0.4-3.1-1.1-4c-0.7-0.9-1.8-1.4-3.2-1.4
			c-0.6,0-1.2,0.1-1.8,0.3c-0.6,0.2-1,0.6-1.5,1c-0.5,0.5-0.8,1-1,1.7c-0.3,0.7-0.4,1.4-0.4,2.3v11.4h-1.6v-11.4c0-1.7-0.3-3.1-1-4
			c-0.7-0.9-1.7-1.4-3-1.4c-1,0-1.8,0.3-2.7,0.8c-0.8,0.6-1.6,1.4-2.2,2.4v13.4H262.7z"/>
		<path fill="#FFFFFF" d="M292.8,527.1v-17.7h0.9c0.3,0,0.5,0.1,0.5,0.5l0.1,2.5c0.3-0.5,0.7-0.9,1.1-1.3s0.8-0.8,1.2-1
			c0.5-0.3,0.9-0.5,1.4-0.7c0.5-0.1,1-0.3,1.6-0.3c1.3,0,2.3,0.4,3.1,1.1c0.8,0.8,1.3,1.8,1.6,3.1c0.2-0.7,0.5-1.4,0.9-1.9
			c0.4-0.5,0.8-1,1.3-1.3c0.5-0.3,1-0.6,1.6-0.8c0.6-0.2,1.2-0.3,1.8-0.3c0.8,0,1.7,0.1,2.3,0.5c0.7,0.3,1.3,0.7,1.8,1.3
			c0.5,0.6,0.8,1.2,1.1,2.1c0.3,0.8,0.4,1.8,0.4,2.9v11.4H314v-11.4c0-1.8-0.4-3.1-1.1-4c-0.7-0.9-1.8-1.4-3.2-1.4
			c-0.6,0-1.2,0.1-1.8,0.3s-1,0.6-1.5,1c-0.5,0.5-0.8,1-1,1.7c-0.3,0.7-0.4,1.4-0.4,2.3v11.4h-1.7v-11.4c0-1.7-0.3-3.1-1-4
			s-1.7-1.4-3-1.4c-1,0-1.8,0.3-2.7,0.8c-0.8,0.6-1.6,1.4-2.2,2.4v13.4H292.8z"/>
		<path fill="#FFFFFF" d="M329.7,509.1c1,0,1.9,0.2,2.7,0.5c0.8,0.3,1.6,0.8,2.2,1.5c0.7,0.7,1.1,1.5,1.4,2.4c0.3,1,0.5,2.1,0.5,3.3
			c0,0.3-0.1,0.5-0.1,0.5s-0.2,0.1-0.4,0.1h-12.8v0.3c0,1.3,0.1,2.5,0.5,3.5c0.3,1,0.7,1.8,1.3,2.5c0.6,0.7,1.2,1.2,2.1,1.6
			c0.8,0.3,1.7,0.5,2.7,0.5c0.9,0,1.7-0.1,2.3-0.3s1.2-0.4,1.6-0.7c0.5-0.3,0.8-0.5,1-0.7c0.3-0.2,0.5-0.3,0.6-0.3
			c0.1,0,0.3,0.1,0.3,0.2l0.5,0.6c-0.3,0.3-0.7,0.7-1.1,1c-0.5,0.3-1,0.6-1.6,0.8c-0.6,0.2-1.2,0.4-1.8,0.5c-0.7,0.1-1.3,0.2-2,0.2
			c-1.2,0-2.3-0.2-3.3-0.7c-1-0.4-1.8-1-2.5-1.8c-0.7-0.8-1.2-1.8-1.6-2.9c-0.4-1.2-0.6-2.5-0.6-4c0-1.2,0.2-2.4,0.5-3.5
			c0.4-1,0.9-2,1.6-2.8c0.7-0.8,1.5-1.4,2.5-1.8C327.3,509.3,328.4,509.1,329.7,509.1z M329.7,510.4c-0.9,0-1.8,0.1-2.5,0.5
			c-0.7,0.3-1.4,0.7-1.9,1.2c-0.5,0.5-1,1.2-1.3,2c-0.3,0.7-0.5,1.6-0.7,2.5H335c0-1-0.1-1.8-0.4-2.5c-0.3-0.8-0.7-1.4-1.1-1.9
			c-0.5-0.5-1-0.9-1.7-1.2C331.2,510.5,330.5,510.4,329.7,510.4z"/>
		<path fill="#FFFFFF" d="M343,527.1v-17.7h0.9c0.2,0,0.3,0.1,0.5,0.1c0.1,0.1,0.1,0.2,0.1,0.5l0.1,3.7c0.6-1.4,1.3-2.5,2.3-3.4
			c1-0.8,2.1-1.2,3.5-1.2c0.5,0,1,0.1,1.5,0.2c0.5,0.1,0.8,0.3,1.3,0.5l-0.3,1.2c-0.1,0.2-0.1,0.3-0.3,0.3c-0.1,0-0.2,0-0.3-0.1
			c-0.1-0.1-0.3-0.1-0.5-0.1c-0.2-0.1-0.5-0.1-0.7-0.1c-0.3-0.1-0.6-0.1-1-0.1c-1.4,0-2.4,0.4-3.3,1.2c-0.8,0.8-1.6,2-2.1,3.6v11.5
			L343,527.1L343,527.1z"/>
		<path fill="#FFFFFF" d="M370.6,511.7c-0.1,0.1-0.1,0.1-0.2,0.1c-0.1,0.1-0.1,0.1-0.2,0.1c-0.1,0-0.3-0.1-0.5-0.3
			c-0.2-0.1-0.5-0.3-0.8-0.5c-0.3-0.2-0.8-0.4-1.3-0.5c-0.5-0.1-1.2-0.3-1.9-0.3c-1,0-2,0.2-2.7,0.5c-0.8,0.4-1.4,0.9-2,1.6
			c-0.5,0.7-1,1.5-1.2,2.5c-0.3,1-0.5,2-0.5,3.3c0,1.2,0.1,2.3,0.5,3.3c0.3,1,0.7,1.8,1.2,2.4c0.5,0.7,1.2,1.2,2,1.5
			c0.8,0.3,1.6,0.5,2.5,0.5c0.8,0,1.6-0.1,2.2-0.3c0.6-0.2,1-0.4,1.4-0.7c0.4-0.3,0.7-0.5,0.9-0.7c0.2-0.2,0.4-0.3,0.5-0.3
			s0.3,0.1,0.3,0.2l0.5,0.6c-0.3,0.3-0.6,0.7-1,1c-0.4,0.3-0.9,0.6-1.4,0.8c-0.5,0.2-1.1,0.4-1.7,0.5c-0.6,0.1-1.2,0.2-1.9,0.2
			c-1.1,0-2.2-0.2-3.1-0.6c-0.9-0.4-1.8-1-2.4-1.8s-1.2-1.8-1.6-2.9c-0.4-1.1-0.6-2.4-0.6-3.8c0-1.4,0.2-2.6,0.5-3.7
			c0.3-1.1,0.8-2.1,1.6-2.9c0.7-0.8,1.5-1.4,2.5-1.9c1-0.5,2.2-0.7,3.4-0.7c1.2,0,2.2,0.2,3.1,0.5c0.9,0.4,1.7,0.8,2.3,1.5
			L370.6,511.7z"/>
		<path fill="#FFFFFF" d="M383.6,509.1c1,0,1.9,0.2,2.7,0.5c0.8,0.3,1.6,0.8,2.2,1.5c0.7,0.7,1.1,1.5,1.4,2.4c0.3,1,0.5,2.1,0.5,3.3
			c0,0.3-0.1,0.5-0.1,0.5s-0.2,0.1-0.4,0.1h-12.8v0.3c0,1.3,0.1,2.5,0.5,3.5c0.3,1,0.7,1.8,1.3,2.5c0.6,0.7,1.2,1.2,2.1,1.6
			c0.8,0.3,1.7,0.5,2.7,0.5c0.9,0,1.7-0.1,2.3-0.3s1.2-0.4,1.6-0.7c0.5-0.3,0.8-0.5,1-0.7c0.3-0.2,0.5-0.3,0.6-0.3
			c0.1,0,0.3,0.1,0.3,0.2l0.5,0.6c-0.3,0.3-0.7,0.7-1.1,1c-0.5,0.3-1,0.6-1.6,0.8c-0.6,0.2-1.2,0.4-1.8,0.5c-0.7,0.1-1.3,0.2-2,0.2
			c-1.2,0-2.3-0.2-3.3-0.7c-1-0.4-1.8-1-2.5-1.8c-0.7-0.8-1.2-1.8-1.6-2.9c-0.4-1.2-0.6-2.5-0.6-4c0-1.2,0.2-2.4,0.5-3.5
			c0.4-1,0.9-2,1.6-2.8c0.7-0.8,1.5-1.4,2.5-1.8C381.2,509.3,382.3,509.1,383.6,509.1z M383.6,510.4c-0.9,0-1.8,0.1-2.5,0.5
			c-0.7,0.3-1.4,0.7-1.9,1.2c-0.5,0.5-1,1.2-1.3,2c-0.3,0.7-0.5,1.6-0.7,2.5H389c0-1-0.1-1.8-0.4-2.5c-0.3-0.8-0.7-1.4-1.1-1.9
			c-0.5-0.5-1-0.9-1.7-1.2C385.1,510.5,384.4,510.4,383.6,510.4z"/>
	</g>
</g>
</svg>
