<?xml version="1.0" encoding="utf-8"?>
<!-- Generator: Adobe Illustrator 18.0.0, SVG Export Plug-In . SVG Version: 6.00 Build 0)  -->
<!DOCTYPE svg PUBLIC "-//W3C//DTD SVG 1.1//EN" "http://www.w3.org/Graphics/SVG/1.1/DTD/svg11.dtd">
<svg version="1.1" id="Camada_1" xmlns="http://www.w3.org/2000/svg" xmlns:xlink="http://www.w3.org/1999/xlink" x="0px" y="0px"
	 viewBox="0 0 400 54" enable-background="new 0 0 400 54" xml:space="preserve">
<g>
	<path fill="#FFFFFF" d="M22.8,14.8v31c0,1.2-0.2,2.2-0.5,3.2c-0.3,1-0.8,1.9-1.4,2.6c-0.7,0.7-1.5,1.3-2.5,1.8
		c-1,0.4-2.3,0.6-3.7,0.6c-0.6,0-1.2,0-1.7-0.1c-0.5-0.1-1-0.2-1.5-0.4l0.2-2.7c0-0.2,0.1-0.4,0.3-0.5s0.3-0.1,0.6-0.1
		c0.2,0,0.3,0,0.5,0s0.4,0,0.6,0c1.5,0,2.5-0.3,3.2-1c0.6-0.7,0.9-1.8,0.9-3.3v-31H22.8z M23.9,5.7c0,0.5-0.1,1-0.3,1.4
		s-0.5,0.8-0.8,1.1c-0.3,0.3-0.7,0.6-1.2,0.8c-0.4,0.2-0.9,0.3-1.4,0.3s-1-0.1-1.4-0.3c-0.4-0.2-0.8-0.5-1.1-0.8
		c-0.3-0.3-0.6-0.7-0.8-1.1c-0.2-0.4-0.3-0.9-0.3-1.4c0-0.5,0.1-1,0.3-1.4c0.2-0.4,0.5-0.8,0.8-1.2c0.3-0.3,0.7-0.6,1.1-0.8
		C19.3,2.1,19.8,2,20.2,2s1,0.1,1.4,0.3c0.4,0.2,0.8,0.5,1.2,0.8c0.3,0.3,0.6,0.7,0.8,1.2S23.9,5.2,23.9,5.7z"/>
	<path fill="#FFFFFF" d="M56.8,1.6v24.7h1.3c0.4,0,0.7-0.1,0.9-0.2c0.2-0.1,0.5-0.3,0.8-0.6l9.1-9.8c0.3-0.3,0.6-0.6,0.9-0.7
		c0.3-0.2,0.7-0.3,1.1-0.3h4.6L65,26.1c-0.3,0.3-0.5,0.6-0.8,0.9c-0.3,0.2-0.5,0.5-0.9,0.7c0.3,0.2,0.7,0.5,0.9,0.8
		c0.3,0.3,0.5,0.6,0.8,1l11.3,14.2h-4.6c-0.4,0-0.8-0.1-1.1-0.2c-0.3-0.2-0.6-0.4-0.8-0.8l-9.5-11.8c-0.3-0.4-0.6-0.7-0.9-0.8
		c-0.3-0.1-0.7-0.2-1.3-0.2h-1.4v13.8h-5.1v-42H56.8z"/>
	<path fill="#FFFFFF" d="M107,1.6v42h-5.1v-42H107z"/>
	<path fill="#FFFFFF" d="M135.9,43.6V14.8h3c0.7,0,1.2,0.4,1.4,1.1l0.4,3c1.1-1.3,2.3-2.4,3.6-3.2c1.3-0.8,2.9-1.3,4.6-1.3
		c2,0,3.5,0.5,4.7,1.6c1.2,1.1,2.1,2.5,2.6,4.4c0.4-1,0.9-1.9,1.6-2.7c0.7-0.8,1.4-1.4,2.2-1.9c0.8-0.5,1.7-0.9,2.6-1.1
		c0.9-0.2,1.9-0.3,2.8-0.3c1.5,0,2.9,0.2,4.1,0.7c1.2,0.5,2.2,1.2,3,2.1c0.8,0.9,1.5,2.1,1.9,3.4c0.4,1.4,0.7,2.9,0.7,4.7v18.4H170
		V25.2c0-2.3-0.5-4-1.5-5.1c-1-1.2-2.4-1.8-4.3-1.8c-0.8,0-1.6,0.1-2.4,0.4c-0.8,0.3-1.4,0.7-2,1.3c-0.6,0.6-1,1.3-1.4,2.2
		s-0.5,1.9-0.5,3v18.4h-5.1V25.2c0-2.3-0.5-4-1.4-5.2c-0.9-1.1-2.3-1.7-4.1-1.7c-1.3,0-2.4,0.3-3.5,1c-1.1,0.7-2.1,1.6-2.9,2.8v21.5
		H135.9z"/>
	<path fill="#FFFFFF" d="M202.6,43.6V14.8h3c0.7,0,1.2,0.4,1.4,1.1l0.4,3.1c1.3-1.4,2.7-2.5,4.2-3.4c1.5-0.9,3.3-1.3,5.4-1.3
		c1.6,0,3,0.3,4.2,0.8c1.2,0.5,2.2,1.3,3,2.2c0.8,1,1.4,2.1,1.8,3.5c0.4,1.3,0.6,2.8,0.6,4.5v18.4h-5.1V25.2c0-2.2-0.5-3.9-1.5-5.1
		c-1-1.2-2.5-1.8-4.6-1.8c-1.5,0-2.9,0.4-4.2,1.1c-1.3,0.7-2.5,1.7-3.6,2.9v21.3H202.6z"/>
	<path fill="#FFFFFF" d="M266,14.3c2.1,0,4,0.4,5.7,1.1c1.7,0.7,3.1,1.7,4.3,3s2.1,2.9,2.7,4.7c0.6,1.8,1,3.9,1,6.1
		c0,2.3-0.3,4.3-1,6.2c-0.6,1.8-1.5,3.4-2.7,4.7s-2.6,2.3-4.3,3c-1.7,0.7-3.6,1-5.7,1s-4-0.3-5.7-1s-3.1-1.7-4.3-3s-2.1-2.9-2.8-4.7
		c-0.6-1.8-1-3.9-1-6.2c0-2.3,0.3-4.3,1-6.1c0.6-1.8,1.6-3.4,2.8-4.7s2.6-2.3,4.3-3S263.9,14.3,266,14.3z M266,40.1
		c2.8,0,5-1,6.4-2.9c1.4-1.9,2.1-4.6,2.1-8c0-3.4-0.7-6.1-2.1-8c-1.4-1.9-3.5-2.9-6.4-2.9c-1.4,0-2.7,0.2-3.8,0.7
		c-1.1,0.5-2,1.2-2.7,2.1c-0.7,0.9-1.2,2.1-1.6,3.4s-0.5,2.9-0.5,4.6s0.2,3.2,0.5,4.6s0.9,2.5,1.6,3.4c0.7,0.9,1.6,1.6,2.7,2.1
		C263.3,39.8,264.5,40.1,266,40.1z"/>
	<path fill="#FFFFFF" d="M305.9,53.4V14.8h3c0.7,0,1.2,0.4,1.4,1.1l0.4,3.4c1.2-1.5,2.6-2.7,4.2-3.6s3.4-1.4,5.5-1.4
		c1.7,0,3.2,0.3,4.5,1c1.3,0.6,2.5,1.6,3.4,2.8c1,1.2,1.7,2.8,2.2,4.6c0.5,1.8,0.8,4,0.8,6.4c0,2.1-0.3,4.1-0.9,5.9
		s-1.4,3.4-2.5,4.8c-1.1,1.3-2.4,2.4-3.9,3.2c-1.5,0.8-3.3,1.2-5.2,1.2c-1.8,0-3.3-0.3-4.6-0.9s-2.4-1.4-3.3-2.5v12.8H305.9z
		 M318.8,18.3c-1.7,0-3.1,0.4-4.3,1.1c-1.2,0.8-2.4,1.8-3.4,3.2v14c0.9,1.3,2,2.1,3.1,2.7c1.1,0.5,2.4,0.8,3.7,0.8
		c2.7,0,4.7-1,6.2-2.9c1.4-1.9,2.2-4.7,2.2-8.2c0-1.9-0.2-3.5-0.5-4.8c-0.3-1.3-0.8-2.5-1.4-3.3s-1.4-1.5-2.3-1.9
		C321,18.5,319.9,18.3,318.8,18.3z"/>
	<path fill="#FFFFFF" d="M380.7,14.8v38.6h-5.1v-14c-1.2,1.4-2.6,2.5-4.1,3.4c-1.5,0.9-3.3,1.3-5.3,1.3c-1.7,0-3.2-0.3-4.5-1
		c-1.3-0.6-2.5-1.6-3.4-2.8c-1-1.2-1.7-2.8-2.2-4.6c-0.5-1.8-0.8-4-0.8-6.4c0-2.1,0.3-4.1,0.9-5.9c0.6-1.8,1.4-3.4,2.5-4.8
		c1.1-1.3,2.4-2.4,3.9-3.2c1.5-0.8,3.3-1.2,5.2-1.2c1.9,0,3.4,0.3,4.7,1c1.3,0.7,2.5,1.6,3.5,2.8l0.3-2.3c0.2-0.7,0.6-1.1,1.4-1.1
		H380.7z M367.8,39.9c1.7,0,3.1-0.4,4.3-1.1c1.2-0.8,2.4-1.8,3.4-3.2v-14c-0.9-1.2-1.9-2.1-3-2.6s-2.4-0.8-3.7-0.8
		c-2.7,0-4.8,1-6.2,2.9c-1.4,1.9-2.2,4.7-2.2,8.2c0,1.9,0.2,3.5,0.5,4.8c0.3,1.3,0.8,2.4,1.4,3.3s1.4,1.5,2.3,1.9
		C365.6,39.7,366.7,39.9,367.8,39.9z"/>
</g>
</svg>
