<?xml version="1.0" encoding="utf-8"?>
<!-- Generator: Adobe Illustrator 18.0.0, SVG Export Plug-In . SVG Version: 6.00 Build 0)  -->
<!DOCTYPE svg PUBLIC "-//W3C//DTD SVG 1.1//EN" "http://www.w3.org/Graphics/SVG/1.1/DTD/svg11.dtd">
<svg version="1.1" id="Camada_1" xmlns="http://www.w3.org/2000/svg" xmlns:xlink="http://www.w3.org/1999/xlink" x="0px" y="0px"
	 viewBox="0 0 400 54" enable-background="new 0 0 400 54" xml:space="preserve">
<g>
	<path fill="#FFFFFF" d="M28.2,43.6c-0.6,0-0.9-0.3-1.1-0.8l-0.4-3.6c-0.8,0.8-1.6,1.4-2.3,2.1c-0.8,0.6-1.6,1.1-2.4,1.5
		s-1.7,0.7-2.7,1c-1,0.2-2,0.3-3.2,0.3c-1,0-1.9-0.1-2.8-0.4c-0.9-0.3-1.7-0.7-2.4-1.3S9.6,41,9.2,40.1c-0.4-0.9-0.6-2-0.6-3.3
		c0-1.2,0.3-2.3,1-3.3c0.7-1,1.8-1.9,3.2-2.7c1.5-0.8,3.3-1.4,5.6-1.8c2.3-0.5,5-0.7,8.2-0.8v-3c0-2.6-0.6-4.6-1.7-6.1
		c-1.1-1.4-2.8-2.1-5-2.1c-1.4,0-2.5,0.2-3.5,0.6s-1.8,0.8-2.4,1.3s-1.2,0.9-1.6,1.3c-0.4,0.4-0.8,0.6-1.1,0.6
		c-0.4,0-0.7-0.2-0.9-0.5L10,19.3c1.5-1.5,3-2.6,4.7-3.4c1.6-0.8,3.5-1.1,5.6-1.1c1.5,0,2.9,0.2,4,0.7c1.1,0.5,2.1,1.2,2.8,2.1
		c0.8,0.9,1.3,2,1.7,3.3s0.6,2.7,0.6,4.3v18.5H28.2z M16.8,42.1c1.1,0,2.1-0.1,3-0.4s1.8-0.6,2.6-1c0.8-0.4,1.5-0.9,2.2-1.5
		c0.7-0.6,1.4-1.2,2-1.9v-7.4c-2.7,0.1-5,0.3-7,0.6c-1.9,0.3-3.6,0.8-4.8,1.4c-1.3,0.6-2.2,1.2-2.8,2c-0.6,0.8-0.9,1.7-0.9,2.7
		c0,1,0.2,1.8,0.5,2.5s0.7,1.3,1.2,1.7c0.5,0.4,1.1,0.8,1.8,1C15.4,42,16.1,42.1,16.8,42.1z"/>
	<path fill="#FFFFFF" d="M56.9,43.6V2.2h2.7l0,18.1c1.3-1.7,2.7-3,4.4-4c1.7-1,3.5-1.5,5.6-1.5c3.5,0,6.2,1.2,8.1,3.6
		c1.9,2.4,2.9,6,2.9,10.8c0,2.1-0.3,4-0.8,5.8c-0.5,1.8-1.3,3.4-2.4,4.7s-2.3,2.4-3.9,3.1c-1.5,0.8-3.3,1.1-5.3,1.1
		c-2,0-3.7-0.4-5.1-1.2s-2.7-1.9-3.7-3.4l-0.2,3.5c-0.1,0.5-0.3,0.7-0.8,0.7H56.9z M68.8,17c-1.9,0-3.6,0.5-5.1,1.5
		c-1.5,1-2.9,2.3-4.1,4v15c1.1,1.6,2.3,2.8,3.6,3.4s2.8,1,4.5,1c1.7,0,3.1-0.3,4.4-0.9c1.3-0.6,2.3-1.5,3.2-2.6s1.5-2.4,1.9-4
		c0.4-1.5,0.6-3.3,0.6-5.1c0-4.2-0.8-7.3-2.3-9.3S71.8,17,68.8,17z"/>
	<path fill="#FFFFFF" d="M125.3,19.1c-0.1,0.1-0.2,0.2-0.3,0.2s-0.2,0.1-0.4,0.1c-0.2,0-0.5-0.1-0.8-0.4c-0.3-0.3-0.8-0.5-1.3-0.8
		s-1.2-0.6-2.1-0.8c-0.8-0.3-1.8-0.4-3-0.4c-1.6,0-3.1,0.3-4.3,0.9c-1.3,0.6-2.3,1.4-3.2,2.5c-0.9,1.1-1.5,2.4-2,3.9
		c-0.5,1.5-0.7,3.3-0.7,5.2c0,2,0.2,3.8,0.7,5.3s1.1,2.8,2,3.9c0.9,1.1,1.9,1.9,3.1,2.4c1.2,0.6,2.6,0.8,4,0.8
		c1.4,0,2.5-0.2,3.4-0.5s1.7-0.7,2.3-1.1s1.1-0.7,1.4-1.1s0.6-0.5,0.8-0.5c0.2,0,0.4,0.1,0.6,0.3l0.7,0.9c-0.4,0.6-1,1.1-1.7,1.6
		c-0.7,0.5-1.4,0.9-2.3,1.3c-0.8,0.4-1.7,0.6-2.7,0.8s-2,0.3-3.1,0.3c-1.8,0-3.5-0.3-4.9-1c-1.5-0.7-2.8-1.6-3.8-2.9
		c-1.1-1.2-1.9-2.8-2.5-4.6c-0.6-1.8-0.9-3.9-0.9-6.2c0-2.2,0.3-4.1,0.9-5.9c0.6-1.8,1.4-3.3,2.5-4.6c1.1-1.3,2.4-2.3,4-3
		c1.6-0.7,3.4-1.1,5.5-1.1c1.8,0,3.5,0.3,4.9,0.9s2.7,1.4,3.7,2.4L125.3,19.1z"/>
	<path fill="#FFFFFF" d="M171.4,43.6c-0.5,0-0.7-0.2-0.8-0.7l-0.3-4.5c-1.3,1.7-2.7,3.1-4.4,4.1s-3.6,1.5-5.7,1.5
		c-3.5,0-6.2-1.2-8.1-3.6c-2-2.4-2.9-6-2.9-10.9c0-2.1,0.3-4,0.8-5.8c0.5-1.8,1.3-3.4,2.4-4.7c1.1-1.3,2.3-2.4,3.9-3.1
		c1.5-0.8,3.3-1.1,5.3-1.1c1.9,0,3.6,0.4,5,1.1c1.4,0.7,2.6,1.8,3.7,3.1V2.2h2.7v41.5H171.4z M161,41.8c1.9,0,3.6-0.5,5.1-1.5
		c1.5-1,2.9-2.3,4.1-4v-15c-1.1-1.6-2.3-2.8-3.6-3.4c-1.3-0.7-2.8-1-4.5-1s-3.1,0.3-4.4,0.9s-2.3,1.5-3.2,2.6s-1.5,2.4-1.9,4
		c-0.4,1.5-0.6,3.3-0.6,5.1c0,4.2,0.8,7.3,2.3,9.3C155.9,40.8,158.1,41.8,161,41.8z"/>
	<path fill="#FFFFFF" d="M212,14.8c1.6,0,3.1,0.3,4.4,0.8c1.4,0.6,2.5,1.4,3.5,2.4c1,1.1,1.8,2.4,2.3,3.9c0.6,1.5,0.8,3.3,0.8,5.3
		c0,0.4-0.1,0.7-0.2,0.9s-0.3,0.2-0.6,0.2h-20.5v0.5c0,2.1,0.2,4,0.7,5.6c0.5,1.6,1.2,3,2.1,4.1s2,1.9,3.3,2.5
		c1.3,0.6,2.7,0.8,4.3,0.8c1.4,0,2.7-0.2,3.7-0.5c1-0.3,1.9-0.7,2.6-1.1c0.7-0.4,1.3-0.7,1.7-1.1c0.4-0.3,0.7-0.5,0.9-0.5
		c0.2,0,0.4,0.1,0.6,0.3l0.7,0.9c-0.5,0.6-1.1,1.1-1.8,1.6c-0.8,0.5-1.6,0.9-2.5,1.3s-1.9,0.6-3,0.8c-1.1,0.2-2.1,0.3-3.2,0.3
		c-1.9,0-3.7-0.3-5.3-1c-1.6-0.7-3-1.7-4.1-3s-2-2.9-2.7-4.7c-0.6-1.9-0.9-4-0.9-6.4c0-2,0.3-3.9,0.9-5.6c0.6-1.7,1.4-3.2,2.5-4.4
		c1.1-1.2,2.4-2.2,4-2.9S209.9,14.8,212,14.8z M212,16.8c-1.5,0-2.8,0.2-3.9,0.7s-2.2,1.1-3,2c-0.8,0.9-1.5,1.9-2,3.1
		c-0.5,1.2-0.9,2.5-1,4h18.7c0-1.5-0.2-2.9-0.6-4.1c-0.4-1.2-1-2.2-1.8-3.1s-1.7-1.5-2.7-1.9S213.3,16.8,212,16.8z"/>
	<path fill="#FFFFFF" d="M250.3,43.6V18.2l-4-0.3c-0.6,0-0.8-0.3-0.8-0.7v-1.1h4.8v-3.6c0-1.6,0.2-3,0.6-4.3s1-2.2,1.8-3.1
		c0.8-0.8,1.7-1.4,2.8-1.8c1.1-0.4,2.3-0.6,3.5-0.6c0.6,0,1.2,0.1,1.8,0.2c0.6,0.1,1.1,0.3,1.6,0.4l-0.1,1.3c0,0.3-0.2,0.4-0.5,0.4
		c-0.2,0-0.5,0-0.9-0.1c-0.4-0.1-0.9-0.1-1.4-0.1c-0.9,0-1.8,0.1-2.6,0.4c-0.8,0.3-1.5,0.7-2,1.3c-0.6,0.6-1,1.4-1.3,2.4
		c-0.3,1-0.5,2.2-0.5,3.6v3.5h9.2v2H253v25.5H250.3z"/>
	<path fill="#FFFFFF" d="M295.7,14.8c1.2,0,2.4,0.2,3.4,0.5s2,0.7,2.8,1.3h7.3v0.9c0,0.5-0.3,0.7-0.8,0.8l-4.3,0.3
		c0.5,0.7,0.9,1.5,1.2,2.4s0.4,1.9,0.4,2.9c0,1.4-0.2,2.6-0.7,3.7c-0.5,1.1-1.2,2.1-2.1,2.9c-0.9,0.8-1.9,1.4-3.2,1.8
		c-1.2,0.4-2.6,0.7-4.1,0.7c-1.6,0-3.1-0.2-4.4-0.7c-0.8,0.5-1.4,1-1.9,1.6c-0.5,0.6-0.7,1.2-0.7,1.8c0,0.8,0.3,1.4,0.9,1.9
		c0.6,0.4,1.3,0.8,2.3,1c0.9,0.2,2,0.3,3.2,0.4c1.2,0.1,2.4,0.1,3.7,0.2c1.2,0.1,2.5,0.2,3.7,0.4c1.2,0.2,2.3,0.5,3.2,0.9
		c0.9,0.4,1.7,1,2.3,1.8c0.6,0.8,0.9,1.8,0.9,3.1c0,1.2-0.3,2.3-0.9,3.4c-0.6,1.1-1.4,2-2.6,2.9c-1.1,0.8-2.5,1.5-4,2
		c-1.6,0.5-3.3,0.8-5.3,0.8c-2,0-3.7-0.2-5.2-0.6c-1.5-0.4-2.8-1-3.8-1.7s-1.8-1.5-2.3-2.4c-0.5-0.9-0.8-1.9-0.8-2.9
		c0-1.5,0.5-2.8,1.5-3.9c1-1.1,2.3-1.9,4.1-2.5c-0.9-0.3-1.7-0.8-2.3-1.4c-0.6-0.6-0.8-1.5-0.8-2.5c0-0.4,0.1-0.8,0.2-1.3
		c0.2-0.4,0.4-0.9,0.7-1.3c0.3-0.4,0.7-0.8,1.1-1.2c0.4-0.4,0.9-0.7,1.5-1c-1.3-0.8-2.4-1.8-3.2-3.1c-0.8-1.3-1.1-2.8-1.1-4.5
		c0-1.4,0.2-2.6,0.7-3.7s1.2-2.1,2.1-2.9s2-1.4,3.2-1.9C292.8,15,294.2,14.8,295.7,14.8z M306.2,45.5c0-0.9-0.2-1.6-0.7-2.2
		c-0.5-0.5-1.1-1-1.9-1.3c-0.8-0.3-1.7-0.5-2.7-0.6c-1-0.1-2.1-0.2-3.2-0.3c-1.1-0.1-2.2-0.1-3.3-0.2c-1.1-0.1-2.2-0.2-3.1-0.3
		c-0.7,0.3-1.4,0.6-2,1c-0.6,0.4-1.1,0.8-1.6,1.3c-0.4,0.5-0.8,1-1,1.5c-0.2,0.6-0.4,1.2-0.4,1.8c0,0.8,0.2,1.6,0.6,2.3
		c0.4,0.7,1.1,1.3,1.9,1.9c0.8,0.5,1.8,0.9,3,1.2c1.2,0.3,2.6,0.5,4.1,0.5c1.4,0,2.8-0.2,4-0.5s2.3-0.8,3.2-1.4
		c0.9-0.6,1.6-1.3,2.2-2.1C306,47.4,306.2,46.5,306.2,45.5z M295.7,31.1c1.2,0,2.3-0.2,3.2-0.5c1-0.4,1.7-0.8,2.4-1.5
		c0.6-0.6,1.1-1.4,1.5-2.3s0.5-1.8,0.5-2.9c0-1.1-0.2-2-0.5-2.9c-0.3-0.9-0.8-1.6-1.5-2.3c-0.7-0.6-1.5-1.1-2.4-1.5
		c-0.9-0.3-2-0.5-3.2-0.5c-1.2,0-2.3,0.2-3.2,0.5c-1,0.3-1.8,0.8-2.4,1.5c-0.7,0.6-1.2,1.4-1.5,2.3c-0.3,0.9-0.5,1.9-0.5,2.9
		c0,1.1,0.2,2,0.5,2.9c0.3,0.9,0.8,1.6,1.5,2.3c0.7,0.6,1.5,1.1,2.4,1.5C293.4,30.9,294.5,31.1,295.7,31.1z"/>
	<path fill="#FFFFFF" d="M333.9,43.6V2.2h2.7v18c1.3-1.6,2.8-2.9,4.5-3.9c1.7-1,3.6-1.4,5.7-1.4c1.6,0,2.9,0.2,4.1,0.7
		c1.2,0.5,2.2,1.2,3,2.1c0.8,0.9,1.4,2.1,1.8,3.4c0.4,1.3,0.6,2.8,0.6,4.4v18.1h-2.7V25.5c0-2.7-0.6-4.7-1.8-6.3
		c-1.2-1.5-3.1-2.3-5.6-2.3c-1.9,0-3.6,0.5-5.2,1.4c-1.6,1-3,2.3-4.3,3.9v21.3H333.9z"/>
	<path fill="#FFFFFF" d="M388.3,5.5c0,0.3-0.1,0.7-0.2,1s-0.3,0.6-0.6,0.8c-0.2,0.2-0.5,0.4-0.8,0.5c-0.3,0.1-0.6,0.2-1,0.2
		s-0.7-0.1-1-0.2c-0.3-0.1-0.6-0.3-0.8-0.5c-0.2-0.2-0.4-0.5-0.5-0.8s-0.2-0.6-0.2-1s0.1-0.7,0.2-1s0.3-0.6,0.5-0.8
		c0.2-0.2,0.5-0.4,0.8-0.5c0.3-0.1,0.6-0.2,1-0.2s0.7,0.1,1,0.2c0.3,0.1,0.6,0.3,0.8,0.5c0.2,0.2,0.4,0.5,0.6,0.8
		S388.3,5.2,388.3,5.5z M387.1,15.3v28.4h-2.7V15.3H387.1z"/>
</g>
</svg>
