<?xml version="1.0" encoding="utf-8"?>
<!-- Generator: Adobe Illustrator 18.0.0, SVG Export Plug-In . SVG Version: 6.00 Build 0)  -->
<!DOCTYPE svg PUBLIC "-//W3C//DTD SVG 1.1//EN" "http://www.w3.org/Graphics/SVG/1.1/DTD/svg11.dtd">
<svg version="1.1" id="Camada_1" xmlns="http://www.w3.org/2000/svg" xmlns:xlink="http://www.w3.org/1999/xlink" x="0px" y="0px"
	 viewBox="0 0 400 54" enable-background="new 0 0 400 54" xml:space="preserve">
<g>
	<path fill="#FFFFFF" d="M10.4,43.6V14.4h4.1c0.7,0,1.2,0.1,1.5,0.4c0.3,0.3,0.5,0.7,0.6,1.4l0.4,3.5c1-1.8,2.3-3.2,3.7-4.3
		s3-1.6,4.7-1.6c1.4,0,2.6,0.3,3.6,1l-0.9,5.3c-0.1,0.3-0.2,0.6-0.4,0.7c-0.2,0.1-0.4,0.2-0.8,0.2c-0.3,0-0.7-0.1-1.2-0.2
		c-0.5-0.1-1.1-0.2-2-0.2c-1.5,0-2.7,0.4-3.8,1.2c-1,0.8-1.9,2-2.7,3.5v18.2H10.4z"/>
	<path fill="#FFFFFF" d="M65.9,20.1c-0.2,0.3-0.4,0.5-0.6,0.6c-0.2,0.1-0.5,0.2-0.8,0.2c-0.3,0-0.7-0.1-1.1-0.3
		C63,20.4,62.6,20.2,62,20c-0.5-0.2-1.1-0.5-1.8-0.6c-0.7-0.2-1.4-0.3-2.3-0.3c-1.4,0-2.5,0.3-3.3,0.9c-0.8,0.6-1.2,1.4-1.2,2.3
		c0,0.6,0.2,1.2,0.6,1.6c0.4,0.4,0.9,0.8,1.6,1.1s1.4,0.6,2.3,0.9c0.9,0.3,1.7,0.5,2.6,0.8c0.9,0.3,1.8,0.7,2.6,1
		c0.9,0.4,1.6,0.9,2.3,1.5c0.7,0.6,1.2,1.3,1.6,2.2s0.6,1.8,0.6,3c0,1.4-0.3,2.7-0.8,3.9c-0.5,1.2-1.3,2.2-2.3,3.1s-2.2,1.5-3.7,2
		s-3.1,0.7-5,0.7c-1,0-2-0.1-3-0.3c-1-0.2-1.9-0.4-2.8-0.8c-0.9-0.3-1.7-0.7-2.5-1.1c-0.8-0.4-1.4-0.9-2-1.4l1.6-2.7
		c0.2-0.3,0.5-0.6,0.7-0.7s0.6-0.3,1.1-0.3c0.4,0,0.9,0.1,1.2,0.4c0.4,0.2,0.8,0.5,1.4,0.8c0.5,0.3,1.1,0.6,1.8,0.8s1.6,0.4,2.6,0.4
		c0.8,0,1.6-0.1,2.2-0.3s1.1-0.5,1.5-0.8c0.4-0.3,0.7-0.7,0.9-1.1c0.2-0.4,0.3-0.9,0.3-1.3c0-0.7-0.2-1.2-0.6-1.7
		c-0.4-0.4-1-0.8-1.6-1.1c-0.7-0.3-1.4-0.6-2.3-0.9c-0.9-0.3-1.7-0.5-2.7-0.8c-0.9-0.3-1.8-0.7-2.7-1.1c-0.9-0.4-1.6-0.9-2.3-1.6
		s-1.2-1.4-1.6-2.3c-0.4-0.9-0.6-2-0.6-3.3c0-1.2,0.2-2.3,0.7-3.4c0.5-1.1,1.2-2,2.1-2.8s2.1-1.5,3.4-1.9s3-0.7,4.8-0.7
		c2,0,3.8,0.3,5.5,1s3,1.5,4.1,2.6L65.9,20.1z"/>
	<path fill="#FFFFFF" d="M97.9,44.1c-2.5,0-4.5-0.7-5.8-2.2S90,38.5,90,36V19.7h-3c-0.4,0-0.7-0.1-1-0.4s-0.4-0.6-0.4-1.1v-2.8
		l4.7-0.8l1.5-8C91.9,6.3,92,6,92.3,5.7c0.3-0.2,0.6-0.3,1-0.3H97v9.2h7.7v5H97v15.8c0,0.9,0.2,1.6,0.7,2.1c0.5,0.5,1.1,0.8,1.8,0.8
		c0.4,0,0.8-0.1,1.1-0.2s0.6-0.2,0.8-0.3c0.2-0.1,0.4-0.2,0.6-0.3c0.2-0.1,0.3-0.2,0.5-0.2c0.2,0,0.4,0.1,0.5,0.2
		c0.1,0.1,0.3,0.3,0.4,0.5l2.1,3.4c-1,0.9-2.2,1.5-3.5,1.9C100.7,43.9,99.3,44.1,97.9,44.1z"/>
	<path fill="#FFFFFF" d="M131.6,14.4V33c0,1.8,0.4,3.2,1.2,4.1c0.8,1,2.1,1.5,3.7,1.5c1.2,0,2.4-0.3,3.4-0.8c1.1-0.5,2.1-1.3,3-2.2
		V14.4h7v29.2h-4.3c-0.9,0-1.5-0.4-1.8-1.3l-0.5-2.3c-0.6,0.6-1.2,1.2-1.9,1.7c-0.6,0.5-1.3,0.9-2.1,1.3c-0.7,0.4-1.5,0.6-2.4,0.8
		c-0.8,0.2-1.8,0.3-2.7,0.3c-1.6,0-3-0.3-4.2-0.8c-1.2-0.5-2.3-1.3-3.1-2.3c-0.8-1-1.5-2.2-1.9-3.5s-0.6-2.9-0.6-4.5V14.4H131.6z"/>
	<path fill="#FFFFFF" d="M187,43.6h-6.4L169,14.4h5.8c0.5,0,0.9,0.1,1.3,0.4s0.6,0.6,0.7,0.9l5.6,15.6c0.3,0.9,0.6,1.8,0.8,2.7
		c0.2,0.9,0.4,1.7,0.6,2.6c0.2-0.9,0.4-1.7,0.6-2.6s0.5-1.8,0.8-2.7l5.8-15.6c0.1-0.4,0.4-0.7,0.7-0.9s0.8-0.4,1.2-0.4h5.6L187,43.6
		z"/>
	<path fill="#FFFFFF" d="M214,14.4h5.6c0.5,0,1,0.1,1.3,0.4s0.6,0.6,0.7,0.9l4.2,15.6c0.2,0.9,0.4,1.7,0.6,2.5
		c0.1,0.8,0.3,1.6,0.4,2.5c0.2-0.8,0.4-1.6,0.7-2.5c0.2-0.8,0.5-1.7,0.8-2.5l4.8-15.7c0.1-0.4,0.3-0.7,0.7-0.9
		c0.3-0.2,0.7-0.4,1.2-0.4h3.1c0.5,0,0.9,0.1,1.3,0.4c0.3,0.2,0.6,0.6,0.7,0.9l4.8,16c0.2,0.8,0.5,1.6,0.7,2.4
		c0.2,0.8,0.4,1.5,0.6,2.3c0.1-0.8,0.3-1.6,0.4-2.5c0.2-0.8,0.4-1.7,0.6-2.5l4.3-15.6c0.1-0.4,0.3-0.7,0.7-0.9
		c0.4-0.2,0.8-0.4,1.3-0.4h5.3l-9.3,29.2h-5.7c-0.6,0-1-0.4-1.3-1.3l-5.3-16.9c-0.2-0.6-0.3-1.1-0.5-1.7s-0.3-1.1-0.4-1.7
		c-0.1,0.6-0.2,1.1-0.4,1.7s-0.3,1.1-0.5,1.7l-5.3,16.8c-0.3,0.8-0.8,1.3-1.5,1.3h-5.4L214,14.4z"/>
	<path fill="#FFFFFF" d="M284.4,28.5l-9.6-14.2h6.8c0.5,0,0.9,0.1,1.1,0.2c0.2,0.1,0.5,0.4,0.7,0.7l6.1,9.8c0.1-0.3,0.2-0.6,0.4-1
		c0.1-0.3,0.3-0.6,0.5-1l4.9-7.7c0.2-0.4,0.5-0.6,0.7-0.8c0.2-0.2,0.6-0.3,0.9-0.3h6.5l-9.6,13.9l10,15.4h-6.8
		c-0.5,0-0.9-0.1-1.2-0.4c-0.3-0.3-0.6-0.6-0.8-0.9l-6.2-10.2c-0.2,0.7-0.4,1.3-0.7,1.7l-5.5,8.5c-0.2,0.3-0.5,0.6-0.8,0.9
		c-0.3,0.3-0.7,0.4-1.1,0.4h-6.3L284.4,28.5z"/>
	<path fill="#FFFFFF" d="M333.5,51.7c-0.2,0.5-0.5,0.9-0.8,1.1s-0.8,0.4-1.5,0.4h-5.2l5.5-11.7l-11.8-27.1h6.2c0.6,0,1,0.1,1.3,0.4
		c0.3,0.3,0.5,0.6,0.7,0.9l6.2,15.2c0.2,0.5,0.4,1,0.5,1.5s0.3,1.1,0.4,1.6c0.2-0.6,0.3-1.1,0.5-1.6c0.2-0.5,0.4-1,0.6-1.6l5.9-15.1
		c0.2-0.4,0.4-0.7,0.8-0.9s0.7-0.4,1.2-0.4h5.6L333.5,51.7z"/>
	<path fill="#FFFFFF" d="M389.5,17.3c0,0.5-0.1,1-0.3,1.4c-0.2,0.5-0.4,0.9-0.6,1.2l-13.9,18.3h14.4v5.4h-22.6v-2.9
		c0-0.3,0.1-0.7,0.2-1.2c0.2-0.4,0.4-0.9,0.7-1.3l14-18.5h-14.1v-5.4h22.2V17.3z"/>
</g>
</svg>
