<?xml version="1.0" encoding="utf-8"?>
<!-- Generator: Adobe Illustrator 18.0.0, SVG Export Plug-In . SVG Version: 6.00 Build 0)  -->
<!DOCTYPE svg PUBLIC "-//W3C//DTD SVG 1.1//EN" "http://www.w3.org/Graphics/SVG/1.1/DTD/svg11.dtd">
<svg version="1.1" id="Camada_1" xmlns="http://www.w3.org/2000/svg" xmlns:xlink="http://www.w3.org/1999/xlink" x="0px" y="0px"
	 viewBox="0 0 400 54" enable-background="new 0 0 400 54" xml:space="preserve">
<g>
	<path fill="#FFFFFF" d="M15.5,27.9V44H7.9V2.8h12.6c2.8,0,5.2,0.3,7.2,0.9c2,0.6,3.6,1.4,4.9,2.4c1.3,1,2.2,2.3,2.8,3.7
		c0.6,1.5,0.9,3.1,0.9,4.8c0,1.4-0.2,2.7-0.6,3.9c-0.4,1.2-1,2.4-1.8,3.4s-1.7,1.9-2.8,2.7c-1.1,0.8-2.4,1.4-3.9,1.8
		c1,0.6,1.8,1.3,2.5,2.4L40,44h-6.9c-0.7,0-1.2-0.1-1.7-0.4c-0.5-0.3-0.9-0.6-1.2-1.1l-8.7-13.2c-0.3-0.5-0.7-0.8-1.1-1.1
		c-0.4-0.2-1-0.3-1.7-0.3H15.5z M15.5,22.4h4.8c1.4,0,2.7-0.2,3.8-0.5c1.1-0.4,2-0.9,2.7-1.5s1.2-1.4,1.6-2.3s0.5-1.8,0.5-2.9
		c0-2.1-0.7-3.7-2.1-4.8c-1.4-1.1-3.5-1.7-6.3-1.7h-4.9V22.4z"/>
	<path fill="#FFFFFF" d="M71.6,10.3c-0.2,0.4-0.5,0.7-0.7,0.9c-0.3,0.2-0.6,0.3-1,0.3c-0.4,0-0.8-0.1-1.3-0.4c-0.5-0.3-1-0.6-1.7-1
		c-0.6-0.4-1.4-0.7-2.3-1c-0.9-0.3-1.9-0.4-3.1-0.4c-1.1,0-2,0.1-2.8,0.4c-0.8,0.3-1.5,0.6-2,1.1s-0.9,1-1.2,1.6
		c-0.3,0.6-0.4,1.3-0.4,2.1c0,1,0.3,1.8,0.8,2.4c0.5,0.6,1.3,1.2,2.2,1.7c0.9,0.5,1.9,0.9,3,1.2c1.1,0.4,2.3,0.7,3.5,1.2
		c1.2,0.4,2.4,0.9,3.5,1.4c1.1,0.5,2.2,1.2,3,2.1c0.9,0.8,1.6,1.8,2.2,3c0.5,1.2,0.8,2.7,0.8,4.4c0,1.9-0.3,3.6-1,5.2
		c-0.6,1.6-1.6,3-2.8,4.2c-1.2,1.2-2.7,2.2-4.5,2.8c-1.8,0.7-3.8,1-6.1,1c-1.3,0-2.6-0.1-3.9-0.4c-1.3-0.3-2.5-0.6-3.7-1.1
		c-1.2-0.5-2.3-1-3.3-1.7s-1.9-1.4-2.7-2.2l2.2-3.7c0.2-0.3,0.5-0.5,0.8-0.7c0.3-0.2,0.6-0.3,1-0.3c0.5,0,1,0.2,1.5,0.6
		c0.6,0.4,1.2,0.8,2,1.3c0.8,0.5,1.6,0.9,2.7,1.3c1,0.4,2.2,0.6,3.7,0.6c2.2,0,3.9-0.5,5.1-1.6c1.2-1,1.8-2.5,1.8-4.5
		c0-1.1-0.3-2-0.8-2.7c-0.5-0.7-1.3-1.3-2.2-1.7c-0.9-0.5-1.9-0.9-3-1.2c-1.1-0.3-2.3-0.7-3.5-1.1c-1.2-0.4-2.3-0.8-3.5-1.4
		c-1.1-0.5-2.2-1.2-3-2.1c-0.9-0.9-1.6-1.9-2.2-3.2C48.3,17.6,48,16,48,14.2c0-1.5,0.3-3,0.9-4.4s1.5-2.7,2.6-3.8
		c1.1-1.1,2.6-2,4.2-2.7s3.6-1,5.7-1c2.4,0,4.7,0.4,6.7,1.1c2.1,0.8,3.8,1.8,5.2,3.2L71.6,10.3z"/>
	<path fill="#FFFFFF" d="M113.7,2.8v6.3h-12.4V44h-7.7V9.1H81.2V2.8H113.7z"/>
	<path fill="#FFFFFF" d="M139.7,37.8c1.5,0,2.8-0.2,4-0.7s2.2-1.2,3-2.1c0.8-0.9,1.4-2,1.9-3.2c0.4-1.3,0.6-2.7,0.6-4.3V2.8h7.7
		v24.7c0,2.5-0.4,4.7-1.2,6.8c-0.8,2.1-1.9,3.9-3.4,5.4c-1.5,1.5-3.3,2.7-5.4,3.5c-2.1,0.8-4.5,1.3-7.1,1.3s-5-0.4-7.1-1.3
		c-2.1-0.8-3.9-2-5.4-3.5c-1.5-1.5-2.6-3.3-3.4-5.4c-0.8-2.1-1.2-4.3-1.2-6.8V2.8h7.7v24.7c0,1.6,0.2,3,0.6,4.3
		c0.4,1.3,1,2.4,1.8,3.3c0.8,0.9,1.8,1.6,3,2.1S138.2,37.8,139.7,37.8z"/>
	<path fill="#FFFFFF" d="M165.1,2.8h6.2c0.7,0,1.2,0.2,1.6,0.5c0.4,0.3,0.7,0.7,0.9,1.3l9.7,25.1c0.3,0.8,0.6,1.7,0.9,2.7
		s0.6,2,0.8,3.1c0.4-2.2,1-4.1,1.6-5.8l9.7-25.1c0.2-0.4,0.5-0.8,0.9-1.2c0.4-0.4,1-0.5,1.6-0.5h6.2L188.7,44h-6.9L165.1,2.8z"/>
	<path fill="#FFFFFF" d="M210.4,2.8h6.4c0.7,0,1.2,0.2,1.7,0.5c0.4,0.3,0.7,0.7,0.9,1.3l7,24.7c0.2,0.6,0.3,1.3,0.5,2
		c0.1,0.7,0.3,1.5,0.4,2.3c0.2-0.8,0.3-1.6,0.5-2.3c0.2-0.7,0.4-1.4,0.6-2l8.1-24.7c0.2-0.4,0.5-0.8,0.9-1.2c0.4-0.4,1-0.5,1.6-0.5
		h2.3c0.7,0,1.2,0.2,1.7,0.5s0.7,0.7,0.9,1.3l8,24.7c0.4,1.2,0.8,2.6,1.1,4c0.1-0.7,0.3-1.5,0.4-2.1c0.1-0.7,0.3-1.3,0.4-1.9l7-24.7
		c0.1-0.5,0.4-0.9,0.9-1.2c0.5-0.3,1-0.5,1.7-0.5h6L256.6,44h-6.9l-9-28.2c-0.1-0.4-0.2-0.8-0.4-1.2c-0.1-0.4-0.2-0.9-0.4-1.3
		c-0.1,0.5-0.2,0.9-0.4,1.3s-0.2,0.8-0.4,1.2L230.1,44h-6.9L210.4,2.8z"/>
	<path fill="#FFFFFF" d="M288.3,22.8l-13.1-20h7.6c0.5,0,0.9,0.1,1.2,0.2c0.2,0.1,0.5,0.4,0.6,0.7l9.4,15.1c0.1-0.2,0.2-0.5,0.3-0.7
		s0.2-0.5,0.4-0.7l8.6-13.5c0.4-0.7,1-1.1,1.6-1.1h7.4L299,22.5L312.6,44h-7.7c-0.5,0-0.9-0.1-1.2-0.4c-0.3-0.3-0.6-0.6-0.8-0.9
		l-9.5-15.8c-0.1,0.2-0.2,0.4-0.3,0.6c-0.1,0.2-0.2,0.4-0.3,0.6l-9.1,14.6c-0.2,0.3-0.5,0.6-0.8,0.9c-0.3,0.3-0.7,0.4-1.1,0.4h-7.2
		L288.3,22.8z"/>
	<path fill="#FFFFFF" d="M340,28v16h-7.7V28l-15-25.2h6.8c0.7,0,1.2,0.2,1.6,0.5c0.4,0.3,0.7,0.7,1,1.2l7.6,13.8
		c0.4,0.8,0.8,1.6,1.1,2.3s0.6,1.4,0.9,2.2c0.2-0.7,0.5-1.4,0.8-2.2c0.3-0.7,0.7-1.5,1.1-2.3l7.5-13.8c0.2-0.4,0.5-0.8,0.9-1.2
		c0.4-0.4,0.9-0.5,1.6-0.5h6.8L340,28z"/>
	<path fill="#FFFFFF" d="M393,2.8v2.8c0,0.9-0.2,1.7-0.7,2.4l-21.1,29.9h21.4V44h-31.3v-3c0-0.4,0.1-0.7,0.2-1.1s0.3-0.7,0.5-1
		l21.2-30h-20.6V2.8H393z"/>
</g>
</svg>
