<?xml version="1.0" encoding="utf-8"?>
<!-- Generator: Adobe Illustrator 18.0.0, SVG Export Plug-In . SVG Version: 6.00 Build 0)  -->
<!DOCTYPE svg PUBLIC "-//W3C//DTD SVG 1.1//EN" "http://www.w3.org/Graphics/SVG/1.1/DTD/svg11.dtd">
<svg version="1.1" id="Camada_1" xmlns="http://www.w3.org/2000/svg" xmlns:xlink="http://www.w3.org/1999/xlink" x="0px" y="0px"
	 viewBox="0 0 400 54" enable-background="new 0 0 400 54" xml:space="preserve">
<g>
	<path fill="#FFFFFF" d="M40.5,43.1h-2.3c-0.3,0-0.5-0.1-0.7-0.2c-0.2-0.1-0.3-0.3-0.4-0.6l-4.8-11.7H12.7L7.9,42.4
		c-0.1,0.2-0.2,0.4-0.4,0.5c-0.2,0.2-0.4,0.2-0.7,0.2H4.6L21.1,2.8H24L40.5,43.1z M13.5,28.5h18.1L23.4,8.1C23.2,7.8,23.1,7.4,23,7
		c-0.1-0.4-0.3-0.8-0.4-1.3c-0.1,0.5-0.3,0.9-0.4,1.3c-0.1,0.4-0.3,0.8-0.4,1.1L13.5,28.5z"/>
	<path fill="#FFFFFF" d="M54.9,43.1V2.8h11.6c2.3,0,4.3,0.2,6,0.7s3.1,1.1,4.2,2c1.1,0.9,1.9,2,2.5,3.2c0.5,1.3,0.8,2.7,0.8,4.3
		c0,1.1-0.2,2.1-0.6,3.1c-0.4,1-0.9,1.9-1.6,2.7s-1.6,1.6-2.6,2.2c-1,0.6-2.2,1.1-3.5,1.4c3.2,0.5,5.6,1.5,7.3,3.2
		c1.7,1.6,2.6,3.8,2.6,6.5c0,1.7-0.3,3.2-0.9,4.6s-1.5,2.5-2.7,3.5c-1.2,1-2.6,1.7-4.3,2.2c-1.7,0.5-3.6,0.8-5.8,0.8H54.9z
		 M57.8,21.7h8.7c1.9,0,3.5-0.2,4.8-0.7c1.3-0.5,2.4-1.1,3.2-1.9s1.5-1.7,1.9-2.7c0.4-1,0.6-2,0.6-3c0-2.7-0.9-4.8-2.6-6.2
		c-1.7-1.4-4.4-2.1-8-2.1h-8.7V21.7z M57.8,23.8v17h10.1c3.6,0,6.2-0.8,8-2.3c1.8-1.5,2.7-3.7,2.7-6.5c0-1.3-0.2-2.4-0.7-3.4
		s-1.2-1.9-2.1-2.6c-0.9-0.7-2-1.3-3.4-1.6c-1.3-0.4-2.8-0.6-4.5-0.6H57.8z"/>
	<path fill="#FFFFFF" d="M128.7,36.3c0.2,0,0.4,0.1,0.5,0.2l1.1,1.2c-0.8,0.9-1.7,1.7-2.7,2.4c-1,0.7-2.1,1.3-3.2,1.8
		c-1.2,0.5-2.5,0.9-3.8,1.2s-2.9,0.4-4.6,0.4c-2.8,0-5.4-0.5-7.7-1.5c-2.3-1-4.3-2.4-6-4.2c-1.7-1.8-3-4-3.9-6.5
		c-0.9-2.5-1.4-5.4-1.4-8.5c0-3.1,0.5-5.9,1.4-8.4c1-2.5,2.3-4.7,4-6.5c1.7-1.8,3.8-3.2,6.2-4.2c2.4-1,5.1-1.5,8-1.5
		c1.5,0,2.8,0.1,4,0.3c1.2,0.2,2.4,0.5,3.4,0.9c1.1,0.4,2,0.9,3,1.5c0.9,0.6,1.8,1.3,2.7,2.1L129,8.5c-0.2,0.2-0.4,0.3-0.7,0.3
		c-0.2,0-0.4-0.1-0.7-0.3c-0.3-0.2-0.6-0.4-1-0.7s-0.9-0.6-1.5-1c-0.6-0.4-1.3-0.7-2.1-1c-0.8-0.3-1.7-0.5-2.8-0.7
		c-1-0.2-2.2-0.3-3.6-0.3c-2.5,0-4.7,0.4-6.8,1.3s-3.8,2.1-5.3,3.6s-2.6,3.5-3.5,5.7c-0.8,2.2-1.2,4.7-1.2,7.5
		c0,2.8,0.4,5.4,1.2,7.6c0.8,2.2,1.9,4.1,3.4,5.7c1.4,1.5,3.1,2.7,5.1,3.6c2,0.8,4.1,1.2,6.4,1.2c1.4,0,2.7-0.1,3.9-0.3
		c1.1-0.2,2.2-0.5,3.1-0.9c0.9-0.4,1.8-0.8,2.7-1.4c0.8-0.6,1.6-1.2,2.4-1.9c0.1-0.1,0.2-0.1,0.3-0.2
		C128.5,36.4,128.6,36.3,128.7,36.3z"/>
	<path fill="#FFFFFF" d="M181.4,22.9c0,3.1-0.5,5.9-1.4,8.4c-0.9,2.5-2.2,4.6-3.9,6.4c-1.7,1.7-3.7,3.1-6.1,4
		c-2.4,0.9-5,1.4-7.8,1.4h-14.7V2.8h14.7c2.9,0,5.5,0.5,7.8,1.4c2.4,0.9,4.4,2.3,6.1,4c1.7,1.7,3,3.9,3.9,6.4
		C181,17.1,181.4,19.9,181.4,22.9z M178.4,22.9c0-2.8-0.4-5.3-1.2-7.5c-0.8-2.2-1.9-4.1-3.3-5.6c-1.4-1.5-3.1-2.7-5.1-3.5
		s-4.2-1.2-6.6-1.2h-11.8v35.6h11.8c2.4,0,4.6-0.4,6.6-1.2s3.7-2,5.1-3.5c1.4-1.5,2.5-3.4,3.3-5.6S178.4,25.8,178.4,22.9z"/>
	<path fill="#FFFFFF" d="M223,2.8v2.4h-21.2v16.3h17.7v2.4h-17.7v16.8H223v2.4h-24.2V2.8H223z"/>
	<path fill="#FFFFFF" d="M264.6,2.8v2.4h-21.2v17h18.4v2.4h-18.4v18.5h-2.9V2.8H264.6z"/>
	<path fill="#FFFFFF" d="M298.4,41.2c1.4,0,2.7-0.1,3.8-0.2c1.1-0.1,2.2-0.4,3.2-0.6c1-0.3,1.9-0.6,2.8-1c0.9-0.4,1.8-0.9,2.7-1.4
		V27.1H303c-0.2,0-0.4-0.1-0.5-0.2c-0.1-0.1-0.2-0.3-0.2-0.5v-1.6h11.1v14.3c-1,0.7-2.1,1.3-3.1,1.9s-2.2,1-3.5,1.4
		c-1.2,0.4-2.6,0.7-4,0.9c-1.4,0.2-3,0.3-4.7,0.3c-2.9,0-5.6-0.5-8-1.5c-2.4-1-4.5-2.4-6.2-4.2c-1.7-1.8-3.1-4-4-6.5
		c-0.9-2.5-1.4-5.4-1.4-8.5s0.5-5.9,1.4-8.5c1-2.5,2.3-4.7,4-6.5c1.7-1.8,3.9-3.2,6.4-4.2c2.5-1,5.3-1.5,8.4-1.5
		c1.5,0,3,0.1,4.3,0.3s2.5,0.5,3.6,0.9c1.1,0.4,2.2,0.9,3.1,1.5s1.9,1.3,2.8,2.1l-0.8,1.3c-0.2,0.3-0.4,0.4-0.7,0.4
		c-0.2,0-0.3,0-0.5-0.1c-0.3-0.1-0.7-0.4-1.2-0.8s-1.3-0.9-2.2-1.3c-0.9-0.5-2.1-0.9-3.5-1.2c-1.4-0.4-3.1-0.5-5-0.5
		c-2.6,0-5,0.4-7.1,1.3c-2.1,0.8-3.9,2-5.4,3.6c-1.5,1.6-2.6,3.5-3.4,5.7c-0.8,2.2-1.2,4.8-1.2,7.6c0,2.8,0.4,5.4,1.2,7.7
		c0.8,2.3,2,4.2,3.4,5.7s3.2,2.8,5.3,3.6C293.6,40.8,295.9,41.2,298.4,41.2z"/>
	<path fill="#FFFFFF" d="M362.8,43.1h-2.9V23.8h-25.3v19.3h-2.9V2.8h2.9v18.8h25.3V2.8h2.9V43.1z"/>
	<path fill="#FFFFFF" d="M386.7,43.1h-2.9V2.8h2.9V43.1z"/>
</g>
</svg>
