<?xml version="1.0" encoding="utf-8"?>
<!-- Generator: Adobe Illustrator 18.0.0, SVG Export Plug-In . SVG Version: 6.00 Build 0)  -->
<!DOCTYPE svg PUBLIC "-//W3C//DTD SVG 1.1//EN" "http://www.w3.org/Graphics/SVG/1.1/DTD/svg11.dtd">
<svg version="1.1" id="Camada_1" xmlns="http://www.w3.org/2000/svg" xmlns:xlink="http://www.w3.org/1999/xlink" x="0px" y="0px"
	 viewBox="0 0 400 54" enable-background="new 0 0 400 54" xml:space="preserve">
<g>
	<path fill="#FFFFFF" d="M26,29.5c0,2.3-0.3,4.3-0.8,6.1c-0.6,1.8-1.4,3.3-2.5,4.6s-2.4,2.2-4,2.9c-1.6,0.7-3.4,1-5.5,1
		c-1.8,0-3.8-0.3-5.8-0.8c0-0.6,0.1-1.1,0.1-1.6c0.1-0.5,0.1-1.1,0.2-1.6c0-0.3,0.2-0.6,0.4-0.8C8.3,39.1,8.6,39,9,39
		c0.3,0,0.8,0.1,1.4,0.3s1.3,0.3,2.3,0.3c1.3,0,2.4-0.2,3.3-0.6c1-0.4,1.8-1,2.5-1.8c0.7-0.8,1.2-1.8,1.5-3.1
		c0.4-1.2,0.5-2.7,0.5-4.4V2.8H26V29.5z"/>
	<path fill="#FFFFFF" d="M52.3,20.7h2.1c0.7,0,1.3-0.1,1.7-0.3c0.4-0.2,0.8-0.5,1.2-0.9L70.9,4.1c0.4-0.5,0.8-0.8,1.2-1
		c0.4-0.2,0.9-0.3,1.5-0.3h4.7L62.8,20.4c-0.4,0.4-0.8,0.8-1.1,1.1c-0.4,0.3-0.7,0.6-1.1,0.7c0.5,0.2,1,0.4,1.4,0.8
		c0.4,0.3,0.8,0.8,1.3,1.3l16.2,19.4h-4.8c-0.4,0-0.7,0-0.9-0.1c-0.2-0.1-0.5-0.1-0.6-0.2c-0.2-0.1-0.3-0.2-0.5-0.4
		c-0.2-0.2-0.3-0.3-0.5-0.5L58,26.2c-0.2-0.2-0.4-0.4-0.6-0.6c-0.2-0.2-0.4-0.3-0.6-0.4C56.6,25.1,56.3,25,56,25
		c-0.3,0-0.7-0.1-1.2-0.1h-2.5v18.7h-5.5V2.8h5.5V20.7z"/>
	<path fill="#FFFFFF" d="M100.8,39h17.7v4.6H95.3V2.8h5.5V39z"/>
	<path fill="#FFFFFF" d="M155.7,30.3c0.2,0.5,0.4,1,0.6,1.5c0.2-0.5,0.4-1,0.6-1.5c0.2-0.5,0.4-1,0.7-1.5l13.8-25.1
		c0.2-0.4,0.5-0.7,0.8-0.8c0.3-0.1,0.6-0.1,1.1-0.1h4.1v40.8h-4.8v-30c0-0.4,0-0.8,0-1.3c0-0.5,0-0.9,0.1-1.4l-14,25.5
		c-0.5,0.9-1.1,1.3-2,1.3h-0.8c-0.9,0-1.5-0.4-2-1.3l-14.3-25.6c0.1,0.5,0.1,1,0.1,1.5c0,0.5,0,0.9,0,1.3v30h-4.8V2.8h4.1
		c0.5,0,0.9,0,1.1,0.1c0.3,0.1,0.5,0.4,0.8,0.8L155,28.9C155.2,29.3,155.5,29.8,155.7,30.3z"/>
	<path fill="#FFFFFF" d="M201.5,3c0.2,0.1,0.5,0.4,0.8,0.8L226,34.5c-0.1-0.5-0.1-1-0.1-1.4c0-0.5,0-0.9,0-1.4V2.8h4.8v40.8h-2.8
		c-0.4,0-0.8-0.1-1.1-0.2s-0.6-0.4-0.9-0.8l-23.6-30.8c0,0.5,0.1,0.9,0.1,1.4s0,0.9,0,1.3v29.1h-4.8V2.8h2.9
		C200.9,2.8,201.3,2.8,201.5,3z"/>
	<path fill="#FFFFFF" d="M288.9,23.2c0,3.1-0.5,5.9-1.5,8.4c-1,2.6-2.3,4.8-4.1,6.6c-1.8,1.8-3.9,3.3-6.4,4.3s-5.2,1.5-8.2,1.5
		s-5.7-0.5-8.2-1.5c-2.5-1-4.6-2.4-6.4-4.3c-1.8-1.8-3.1-4-4.1-6.6c-1-2.6-1.5-5.4-1.5-8.4c0-3.1,0.5-5.9,1.5-8.4
		c1-2.6,2.3-4.8,4.1-6.6c1.8-1.9,3.9-3.3,6.4-4.3c2.5-1,5.2-1.5,8.2-1.5s5.7,0.5,8.2,1.5c2.5,1,4.6,2.5,6.4,4.3
		c1.8,1.9,3.1,4.1,4.1,6.6C288.4,17.4,288.9,20.2,288.9,23.2z M283.2,23.2c0-2.5-0.3-4.8-1-6.8c-0.7-2-1.7-3.7-2.9-5.1
		s-2.8-2.4-4.6-3.2s-3.8-1.1-6-1.1c-2.2,0-4.2,0.4-6,1.1s-3.3,1.8-4.6,3.2c-1.3,1.4-2.2,3.1-2.9,5.1c-0.7,2-1,4.2-1,6.8
		c0,2.5,0.3,4.8,1,6.7c0.7,2,1.7,3.7,2.9,5c1.3,1.4,2.8,2.4,4.6,3.2s3.8,1.1,6,1.1c2.2,0,4.2-0.4,6-1.1s3.3-1.8,4.6-3.2
		c1.3-1.4,2.2-3.1,2.9-5C282.8,28,283.2,25.7,283.2,23.2z"/>
	<path fill="#FFFFFF" d="M312.7,28.3v15.3h-5.5V2.8h12.1c2.6,0,4.8,0.3,6.7,0.9c1.9,0.6,3.5,1.4,4.7,2.6c1.3,1.1,2.2,2.4,2.8,4
		c0.6,1.6,0.9,3.3,0.9,5.2c0,1.9-0.3,3.6-1,5.2s-1.6,2.9-2.9,4.1c-1.3,1.1-2.9,2-4.8,2.7c-1.9,0.6-4.1,1-6.5,1H312.7z M312.7,24h6.6
		c1.6,0,3-0.2,4.2-0.6c1.2-0.4,2.2-1,3-1.8c0.8-0.8,1.4-1.6,1.9-2.7s0.6-2.2,0.6-3.4c0-2.6-0.8-4.6-2.4-6.1s-4-2.2-7.3-2.2h-6.6V24z
		"/>
	<path fill="#FFFFFF" d="M389.7,23.2c0,1.9-0.2,3.7-0.6,5.5s-1,3.3-1.7,4.8c-0.7,1.5-1.6,2.8-2.7,4.1c-1.1,1.2-2.3,2.3-3.6,3.2
		l10.5,11.3H387c-0.7,0-1.3-0.1-1.8-0.3c-0.5-0.2-1-0.5-1.5-1l-7.2-7.8c-1.1,0.3-2.2,0.6-3.4,0.8c-1.2,0.2-2.4,0.3-3.7,0.3
		c-3,0-5.7-0.5-8.2-1.5c-2.5-1-4.6-2.4-6.4-4.3c-1.8-1.8-3.1-4-4.1-6.6c-1-2.6-1.5-5.4-1.5-8.4c0-3.1,0.5-5.9,1.5-8.4
		c1-2.6,2.3-4.8,4.1-6.6c1.8-1.9,3.9-3.3,6.4-4.3c2.5-1,5.2-1.5,8.2-1.5s5.7,0.5,8.2,1.5c2.5,1,4.6,2.5,6.4,4.3
		c1.8,1.9,3.1,4.1,4.1,6.6C389.2,17.4,389.7,20.2,389.7,23.2z M384,23.2c0-2.5-0.3-4.8-1-6.8c-0.7-2-1.7-3.7-2.9-5.1
		s-2.8-2.4-4.6-3.2s-3.8-1.1-6-1.1c-2.2,0-4.2,0.4-6,1.1s-3.3,1.8-4.6,3.2c-1.3,1.4-2.2,3.1-2.9,5.1c-0.7,2-1,4.2-1,6.8
		c0,2.5,0.3,4.8,1,6.7c0.7,2,1.7,3.7,2.9,5c1.3,1.4,2.8,2.4,4.6,3.2s3.8,1.1,6,1.1c2.2,0,4.2-0.4,6-1.1s3.3-1.8,4.6-3.2
		c1.3-1.4,2.2-3.1,2.9-5C383.7,28,384,25.7,384,23.2z"/>
</g>
</svg>
