<?xml version="1.0" encoding="utf-8"?>
<!-- Generator: Adobe Illustrator 18.0.0, SVG Export Plug-In . SVG Version: 6.00 Build 0)  -->
<!DOCTYPE svg PUBLIC "-//W3C//DTD SVG 1.1//EN" "http://www.w3.org/Graphics/SVG/1.1/DTD/svg11.dtd">
<svg version="1.1" id="Camada_1" xmlns="http://www.w3.org/2000/svg" xmlns:xlink="http://www.w3.org/1999/xlink" x="0px" y="0px"
	 viewBox="0 0 500 500" enable-background="new 0 0 500 500" xml:space="preserve">
<g>
	<path fill="#FFFFFF" d="M250,496l-1,0l0-2l1,0c3.6,0,7.3-0.1,10.9-0.2l0.1,2C257.4,495.9,253.7,496,250,496z M239,495.8
		c-4-0.2-8.1-0.5-12-0.8l0.2-2c3.9,0.4,7.9,0.6,11.9,0.8L239,495.8z M271.1,495.1l-0.2-2c4-0.3,8-0.8,11.9-1.3l0.3,2
		C279.1,494.3,275,494.8,271.1,495.1z M217,493.8c-4-0.5-8-1.2-11.9-1.9l0.4-2c3.9,0.7,7.9,1.4,11.8,1.9L217,493.8z M292.9,492.3
		l-0.3-2c3.9-0.7,7.8-1.5,11.7-2.4l0.4,2C300.8,490.8,296.9,491.6,292.9,492.3z M195.2,489.9c-3.9-0.9-7.8-1.9-11.7-3l0.5-1.9
		c3.8,1.1,7.7,2.1,11.6,2.9L195.2,489.9z M314.5,487.5l-0.5-1.9c3.8-1,7.7-2.2,11.5-3.4l0.6,1.9
		C322.2,485.3,318.3,486.4,314.5,487.5z M174,484c-3.8-1.2-7.6-2.6-11.4-4l0.7-1.9c3.7,1.4,7.5,2.7,11.3,4L174,484z M335.5,480.7
		l-0.7-1.9c3.7-1.4,7.4-2.9,11.1-4.4l0.8,1.8C343,477.8,339.2,479.3,335.5,480.7z M153.2,476.2c-3.7-1.6-7.4-3.3-11-5l0.9-1.8
		c3.6,1.7,7.2,3.4,10.9,5L153.2,476.2z M355.8,472.1l-0.9-1.8c3.6-1.7,7.1-3.5,10.6-5.4l0.9,1.8C363,468.6,359.4,470.4,355.8,472.1z
		 M133.3,466.6c-3.5-1.9-7-3.9-10.5-6l1-1.7c3.4,2.1,6.9,4.1,10.4,5.9L133.3,466.6z M375.2,461.8l-1-1.7c3.4-2,6.8-4.1,10.1-6.3
		l1.1,1.7C382.1,457.6,378.7,459.7,375.2,461.8z M114.4,455.3c-3.3-2.2-6.7-4.5-9.9-6.9l1.2-1.6c3.2,2.4,6.5,4.7,9.8,6.8
		L114.4,455.3z M393.7,449.7l-1.2-1.6c3.2-2.3,6.4-4.7,9.5-7.2l1.2,1.6C400.2,444.9,396.9,447.4,393.7,449.7z M96.5,442.3
		c-3.1-2.5-6.2-5.1-9.2-7.8l1.3-1.5c3,2.6,6.1,5.2,9.2,7.7L96.5,442.3z M411,436l-1.3-1.5c3-2.6,6-5.3,8.8-8l1.4,1.4
		C417,430.7,414,433.4,411,436z M79.9,427.7c-2.9-2.8-5.7-5.6-8.5-8.5l1.5-1.4c2.7,2.9,5.6,5.7,8.4,8.5L79.9,427.7z M427,420.8
		l-1.4-1.4c2.7-2.8,5.5-5.8,8.1-8.8l1.5,1.3C432.5,415,429.8,418,427,420.8z M64.7,411.8c-2.6-3-5.2-6.1-7.7-9.3l1.6-1.2
		c2.5,3.1,5,6.2,7.6,9.2L64.7,411.8z M441.6,404.3l-1.6-1.3c2.5-3.1,4.9-6.3,7.3-9.5l1.6,1.2C446.6,397.9,444.1,401.1,441.6,404.3z
		 M50.9,394.5c-2.3-3.2-4.6-6.6-6.8-9.9l1.7-1.1c2.2,3.3,4.5,6.6,6.8,9.8L50.9,394.5z M454.7,386.5l-1.7-1.1
		c2.2-3.3,4.4-6.7,6.4-10.1l1.7,1C459.1,379.7,456.9,383.1,454.7,386.5z M38.7,376.1c-2.1-3.4-4-7-5.9-10.5l1.8-0.9
		c1.9,3.5,3.8,7,5.9,10.4L38.7,376.1z M466.2,367.5l-1.8-1c1.9-3.5,3.7-7.1,5.5-10.6l1.8,0.9C469.9,360.4,468.1,364,466.2,367.5z
		 M28.3,356.7c-1.7-3.6-3.4-7.3-5-11l1.8-0.8c1.5,3.6,3.2,7.3,4.9,10.9L28.3,356.7z M475.8,347.7l-1.8-0.8c1.6-3.6,3.1-7.4,4.5-11.1
		l1.9,0.7C479,340.2,477.4,344,475.8,347.7z M19.6,336.5c-1.4-3.7-2.7-7.6-4-11.4l1.9-0.6c1.2,3.8,2.5,7.6,3.9,11.3L19.6,336.5z
		 M483.7,327l-1.9-0.6c1.2-3.8,2.4-7.6,3.5-11.4l1.9,0.5C486.1,319.3,485,323.2,483.7,327z M12.8,315.5c-1.1-3.9-2-7.8-2.9-11.7
		l2-0.4c0.9,3.9,1.8,7.8,2.9,11.6L12.8,315.5z M489.7,305.7l-1.9-0.5c0.9-3.9,1.7-7.8,2.4-11.7l2,0.4
		C491.4,297.9,490.6,301.8,489.7,305.7z M7.9,293.9C7.2,290,6.6,286,6.1,282l2-0.3c0.5,3.9,1.1,7.9,1.8,11.8L7.9,293.9z M493.7,284
		l-2-0.3c0.5-3.9,1-7.9,1.3-11.9l2,0.2C494.7,276,494.2,280.1,493.7,284z M5,272c-0.4-4-0.6-8-0.8-12l2-0.1c0.2,4,0.4,8,0.8,11.9
		L5,272z M495.7,262l-2-0.1c0.2-4,0.3-8,0.3-11.9h2C496,254,495.9,258.1,495.7,262z M6,250H4c0-4,0.1-8.1,0.3-12l2,0.1
		C6.1,242,6,246,6,250z M493.8,240.1c-0.2-4-0.4-8-0.8-11.9l2-0.2c0.4,4,0.6,8,0.8,12L493.8,240.1z M7,228.1l-2-0.2
		c0.4-4,0.8-8,1.4-12l2,0.3C7.8,220.2,7.3,224.2,7,228.1z M492,218.2c-0.5-3.9-1.1-7.9-1.8-11.8l2-0.4c0.7,3.9,1.3,7.9,1.8,11.9
		L492,218.2z M9.9,206.4l-2-0.4c0.7-3.9,1.5-7.9,2.4-11.8l1.9,0.5C11.4,198.6,10.6,202.5,9.9,206.4z M488.2,196.7
		c-0.9-3.9-1.8-7.8-2.9-11.6l1.9-0.5c1.1,3.9,2,7.8,2.9,11.7L488.2,196.7z M14.7,185.1l-1.9-0.5c1.1-3.9,2.2-7.7,3.5-11.5l1.9,0.6
		C16.9,177.4,15.8,181.2,14.7,185.1z M482.4,175.5c-1.2-3.8-2.5-7.6-3.9-11.3l1.9-0.7c1.4,3.7,2.7,7.6,4,11.4L482.4,175.5z
		 M21.5,164.2l-1.9-0.7c1.4-3.8,2.9-7.5,4.5-11.2l1.8,0.8C24.4,156.8,22.9,160.5,21.5,164.2z M474.8,155c-1.5-3.6-3.2-7.3-4.9-10.9
		l1.8-0.9c1.7,3.6,3.4,7.3,5,11L474.8,155z M30.1,144l-1.8-0.9c1.7-3.6,3.6-7.2,5.5-10.7l1.8,1C33.7,136.9,31.9,140.5,30.1,144z
		 M465.4,135.3c-1.9-3.5-3.8-7-5.9-10.4l1.7-1c2,3.4,4,6.9,5.9,10.5L465.4,135.3z M40.6,124.8l-1.7-1c2.1-3.4,4.2-6.9,6.4-10.2
		l1.7,1.1C44.7,118,42.6,121.3,40.6,124.8z M454.3,116.5c-2.2-3.3-4.5-6.6-6.8-9.8l1.6-1.2c2.3,3.2,4.6,6.6,6.8,9.9L454.3,116.5z
		 M52.7,106.5l-1.6-1.2c2.4-3.2,4.8-6.4,7.3-9.6l1.6,1.3C57.4,100.1,55,103.3,52.7,106.5z M441.5,98.8c-2.5-3.1-5-6.2-7.6-9.2
		l1.5-1.3c2.6,3,5.2,6.1,7.7,9.3L441.5,98.8z M66.3,89.4L64.8,88c2.6-3,5.4-6,8.2-8.9l1.4,1.4C71.7,83.4,69,86.4,66.3,89.4z
		 M427.1,82.2c-2.7-2.9-5.6-5.7-8.4-8.5l1.4-1.4c2.9,2.8,5.8,5.6,8.5,8.5L427.1,82.2z M81.5,73.5l-1.4-1.4C83,69.3,86,66.6,89,64
		l1.3,1.5C87.3,68.1,84.3,70.8,81.5,73.5z M411.4,67c-3-2.6-6.1-5.2-9.2-7.7l1.2-1.6c3.1,2.5,6.2,5.1,9.2,7.8L411.4,67z M98,59.1
		l-1.2-1.6c3.1-2.5,6.4-4.9,9.6-7.3l1.2,1.6C104.3,54.2,101.1,56.7,98,59.1z M394.3,53.2c-3.2-2.4-6.5-4.7-9.8-6.8l1.1-1.7
		c3.3,2.2,6.7,4.5,9.9,6.9L394.3,53.2z M115.7,46.3l-1.1-1.7c3.3-2.2,6.8-4.3,10.2-6.4l1,1.7C122.4,42,119,44.1,115.7,46.3z
		 M376.1,41.1c-3.4-2.1-6.9-4.1-10.4-5.9l0.9-1.8c3.5,1.9,7,3.9,10.5,6L376.1,41.1z M134.4,35.1l-0.9-1.8c3.5-1.9,7.1-3.7,10.7-5.4
		l0.9,1.8C141.5,31.4,137.9,33.2,134.4,35.1z M356.9,30.6c-3.6-1.7-7.2-3.4-10.9-5l0.8-1.8c3.7,1.6,7.4,3.3,11,5L356.9,30.6z
		 M154.1,25.6l-0.8-1.8c3.7-1.6,7.4-3.1,11.2-4.5l0.7,1.9C161.5,22.5,157.8,24,154.1,25.6z M336.7,21.9c-3.7-1.4-7.5-2.8-11.3-4
		L326,16c3.8,1.2,7.6,2.6,11.4,4L336.7,21.9z M174.6,17.9L174,16c3.8-1.2,7.7-2.4,11.5-3.4l0.5,1.9
		C182.2,15.5,178.4,16.7,174.6,17.9z M315.9,15c-3.8-1.1-7.7-2.1-11.6-2.9l0.4-2c3.9,0.9,7.8,1.9,11.7,3L315.9,15z M195.7,12.1
		l-0.4-2c3.9-0.9,7.9-1.7,11.8-2.4l0.3,2C203.5,10.4,199.6,11.2,195.7,12.1z M294.6,10.1c-3.9-0.7-7.9-1.4-11.8-1.9l0.3-2
		c4,0.5,8,1.2,11.9,1.9L294.6,10.1z M217.2,8.2l-0.3-2c4-0.5,8-1,12-1.3l0.2,2C225.2,7.2,221.2,7.7,217.2,8.2z M272.9,7.1
		c-3.9-0.4-8-0.6-11.9-0.8l0.1-2c4,0.2,8,0.5,12,0.8L272.9,7.1z M239.1,6.2l-0.1-2c3.6-0.2,7.4-0.2,11-0.2l1,0l0,2l-1,0
		C246.4,6,242.7,6.1,239.1,6.2z"/>
	<g>
		<path fill="#FFFFFF" d="M112.9,286.8c-10.3-11-15.5-24.2-15.5-39.5c0-15.4,5.2-28.5,15.5-39.5c10.3-11,22.9-16.5,37.7-16.5
			c14.8,0,27.4,5.6,37.7,16.7c10.3,11.2,15.5,24.3,15.5,39.5c0,15.2-5.2,28.2-15.7,39.2c-4.7,5.2-10.3,9.3-16.8,12.2
			s-13.3,4.4-20.4,4.4C135.9,303.3,123.2,297.8,112.9,286.8z M115.2,247.3c0,10.5,3.5,19.5,10.4,27c7,7.5,15.3,11.3,25.1,11.3
			c9.8,0,18.2-3.8,25.1-11.4c6.9-7.6,10.4-16.6,10.4-26.8c0-10.3-3.4-19.2-10.3-26.8c-6.8-7.6-15.2-11.4-25.1-11.4
			c-9.9,0-18.3,3.8-25.2,11.3C118.6,227.8,115.2,236.8,115.2,247.3z"/>
		<path fill="#FFFFFF" d="M294.6,204.2c6.5,6.5,9.8,14.4,9.8,23.6c0,9.2-3.3,17-9.8,23.5c-6.5,6.5-14.4,9.7-23.7,9.7h-19.1v33.8
			c0,2.4-0.9,4.4-2.6,6.1c-1.7,1.7-3.8,2.5-6.1,2.5c-2.4,0-4.4-0.8-6.1-2.5c-1.7-1.7-2.5-3.7-2.5-6.1v-91.8c0-2.4,0.8-4.4,2.5-6.1
			c1.7-1.7,3.7-2.5,6.1-2.5H271C280.2,194.4,288.1,197.6,294.6,204.2z M251.8,211.6v32.1H271c4.5,0,8.2-1.6,11.4-4.7
			c3.1-3.1,4.7-6.8,4.8-11.2c-0.1-4.6-1.7-8.4-4.8-11.5c-3.1-3.1-6.9-4.7-11.4-4.7H251.8z"/>
		<path fill="#FFFFFF" d="M389.1,270.2c0-7.9-9.1-13.5-27.4-17h-0.3c-8.1-1.6-15.1-3.7-21-6.5c-5.9-2.8-10.2-6.4-13-10.8
			c-2.8-4.4-4.1-8.9-4.1-13.6c0-9,4-16.4,11.9-22.3c7.9-5.8,17.1-8.7,27.5-8.7c4.6,0,9.2,0.8,14,2.3c4.8,1.6,8.3,3,10.7,4.4
			c2.3,1.3,5.4,3.3,9.3,5.8c1.8,1.2,2.9,3,3.3,5.1c0.5,2.2,0.1,4.2-1.1,6c-1.2,1.8-2.9,3-5.1,3.4c-2.2,0.5-4.2,0.1-6.1-1.2
			c-4.9-3.3-9.2-5.8-13-7.5c-3.8-1.7-7.8-2.5-12.1-2.5c-6.8,0-12.5,1.6-16.8,4.8c-4.4,3.2-6.5,6.6-6.5,10.3c0,1.8,0.4,3.3,1.2,4.5
			c2.9,4.8,10.7,8.4,23.5,10.7h0.3c8.7,1.8,15.9,3.9,21.5,6.5c12.9,6.3,19.3,15,19.3,26.1c0,9.7-4.3,17.6-12.8,23.7
			c-8.5,6.2-18.3,9.3-29.4,9.3c-13.6-0.1-26.9-5.3-39.8-15.6c-1.7-1.3-2.6-3.2-2.9-5.4c-0.3-2.3,0.3-4.3,1.6-5.9
			c1.3-1.7,3.2-2.6,5.4-2.9c2.3-0.3,4.3,0.3,5.9,1.8c10,8.1,19.9,12.1,29.7,12c7.8,0,14.1-1.8,18.9-5.4
			C386.7,278.2,389.1,274.3,389.1,270.2z"/>
		<g>
			<path fill="#FFFFFF" d="M441.9,271.9c-1.6,1.7-3.6,2.5-6,2.5c-2.4,0-4.4-0.8-6.1-2.5c-1.7-1.7-2.5-3.7-2.5-6.1v-62.9
				c0-2.4,0.9-4.4,2.6-6.1c1.7-1.7,3.7-2.5,6-2.5c2.3,0,4.3,0.8,5.9,2.5c1.7,1.7,2.5,3.7,2.5,6.1v62.9
				C444.3,268.2,443.5,270.2,441.9,271.9z M444.3,294.7c0,2.4-0.8,4.4-2.4,6.1c-1.6,1.7-3.6,2.5-6,2.5c-2.4,0-4.4-0.8-6.1-2.5
				c-1.7-1.7-2.5-3.7-2.5-6.1v-3.1c0-2.4,0.9-4.4,2.6-6.1c1.7-1.7,3.7-2.5,6-2.5c2.3,0,4.3,0.8,5.9,2.5c1.7,1.7,2.5,3.7,2.5,6.1
				V294.7z"/>
		</g>
	</g>
	<g>
		<path fill="#FFFFFF" d="M178.9,53c0.2,0.2,0.6,0.3,1,0.3l0.7,0.2c0.4,0.4,0.9,0.8,1.3,0.9c0.4,0.2,0.6,0.3,0.6,0.4
			c0.3,0,0.5,0.1,0.5,0.3c0.8,0.8,1.4,1.5,1.8,2.2l0.7,1.7c0.2,0.9,0.3,1.4,0.3,1.7l0.2,0.8v68h1.7c2.6,0,4.8,0.9,6.6,2.7
			c1.8,1.8,2.8,4,2.8,6.5c0,2.6-0.9,4.7-2.8,6.5c-1.8,1.8-4,2.7-6.6,2.7h-1.7v12.7c0,2.6-0.9,4.7-2.7,6.5c-1.8,1.8-4,2.7-6.5,2.7
			c-2.6,0-4.7-0.9-6.5-2.7c-1.8-1.8-2.7-3.9-2.7-6.5v-12.7H115c-2.3,0-4.2-0.7-5.7-2c-2.1-1.6-3.3-3.6-3.5-6.1
			c-0.2-2.5,0.4-4.8,2-6.8l61.8-76.8c0.2,0,0.5-0.3,0.8-1c0.2-0.1,0.6-0.4,1.1-0.8c0.5-0.4,1-0.6,1.4-0.6c0.2-0.3,0.4-0.5,0.7-0.5
			l1-0.3c0.3,0,0.6-0.1,0.7-0.2h2.8C178.3,53,178.6,53,178.9,53z M167.6,129.5V88.2l-33.2,41.2H167.6z"/>
	</g>
	<g>
		<path fill="#FFFFFF" d="M178.9,323.7c0.2,0.2,0.6,0.3,1,0.3l0.7,0.2c0.4,0.4,0.9,0.8,1.3,0.9c0.4,0.2,0.6,0.3,0.6,0.4
			c0.3,0,0.5,0.1,0.5,0.3c0.8,0.8,1.4,1.5,1.8,2.2l0.7,1.7c0.2,0.9,0.3,1.4,0.3,1.7l0.2,0.8v68h1.7c2.6,0,4.8,0.9,6.6,2.7
			c1.8,1.8,2.8,4,2.8,6.5c0,2.6-0.9,4.7-2.8,6.5c-1.8,1.8-4,2.7-6.6,2.7h-1.7v12.7c0,2.6-0.9,4.7-2.7,6.5c-1.8,1.8-4,2.7-6.5,2.7
			c-2.6,0-4.7-0.9-6.5-2.7c-1.8-1.8-2.7-3.9-2.7-6.5v-12.7H115c-2.3,0-4.2-0.7-5.7-2c-2.1-1.6-3.3-3.6-3.5-6.1
			c-0.2-2.5,0.4-4.8,2-6.8l61.8-76.8c0.2,0,0.5-0.3,0.8-1c0.2-0.1,0.6-0.4,1.1-0.8c0.5-0.4,1-0.6,1.4-0.6c0.2-0.3,0.4-0.5,0.7-0.5
			l1-0.3c0.3,0,0.6-0.1,0.7-0.2h2.8C178.3,323.7,178.6,323.7,178.9,323.7z M167.6,400.2V359l-33.2,41.2H167.6z"/>
	</g>
</g>
</svg>
