<?xml version="1.0" encoding="utf-8"?>
<!-- Generator: Adobe Illustrator 18.0.0, SVG Export Plug-In . SVG Version: 6.00 Build 0)  -->
<!DOCTYPE svg PUBLIC "-//W3C//DTD SVG 1.1//EN" "http://www.w3.org/Graphics/SVG/1.1/DTD/svg11.dtd">
<svg version="1.1" id="Camada_1" xmlns="http://www.w3.org/2000/svg" xmlns:xlink="http://www.w3.org/1999/xlink" x="0px" y="0px"
	 viewBox="0 0 488.9 400" enable-background="new 0 0 488.9 400" xml:space="preserve">
<g>
	<circle fill="#DDDDDD" cx="61.1" cy="245" r="50"/>
	<circle fill="#555555" cx="61.1" cy="195" r="50"/>
	<circle cx="61.1" cy="145" r="50"/>
	<circle fill="#FFFFFF" cx="61.1" cy="95" r="50"/>
</g>
<g>
	<circle fill="#DDDDDD" cx="183.3" cy="245" r="50"/>
	<circle fill="#999999" cx="183.3" cy="195" r="50"/>
	<circle fill="#FFFFFF" cx="183.3" cy="145" r="50"/>
	<circle cx="183.3" cy="95" r="50"/>
</g>
<g>
	<circle fill="#FF0000" cx="305.6" cy="345" r="50"/>
	<circle cx="305.6" cy="295" r="50"/>
	<circle fill="#DDDDDD" cx="305.6" cy="245" r="50"/>
	<circle fill="#EEEEEE" cx="305.6" cy="195" r="50"/>
	<circle fill="#FFFFFF" cx="305.6" cy="145" r="50"/>
	<circle fill="#333333" cx="305.6" cy="95" r="50"/>
</g>
<g>
	<circle fill="#2BA8EA" cx="427.8" cy="145" r="50"/>
	<circle fill="#108ACA" cx="427.8" cy="95" r="50"/>
</g>
<text transform="matrix(1 0 0 1 28.7859 16)" fill="#FFFFFF" font-family="'Raleway'" font-size="14">Principais</text>
<text transform="matrix(1 0 0 1 150.2591 16)" fill="#FFFFFF" font-family="'Raleway'" font-size="14">Invertidas</text>
<text transform="matrix(1 0 0 1 278.8578 16)" fill="#FFFFFF" font-family="'Raleway'" font-size="14">Tabelas</text>
<text transform="matrix(1 0 0 1 410.2988 16)" fill="#FFFFFF" font-family="'Raleway'" font-size="14">Links</text>
</svg>
