<?xml version="1.0" encoding="utf-8"?>
<!-- Generator: Adobe Illustrator 18.0.0, SVG Export Plug-In . SVG Version: 6.00 Build 0)  -->
<!DOCTYPE svg PUBLIC "-//W3C//DTD SVG 1.1//EN" "http://www.w3.org/Graphics/SVG/1.1/DTD/svg11.dtd">
<svg version="1.1" id="Camada_1" xmlns="http://www.w3.org/2000/svg" xmlns:xlink="http://www.w3.org/1999/xlink" x="0px" y="0px"
	 viewBox="0 0 489.1 500" enable-background="new 0 0 489.1 500" xml:space="preserve">
<g>
	<g>
		<path fill="#FFFFFF" d="M61.1,493.5c-26.7,0-48.5-21.8-48.5-48.5s21.8-48.5,48.5-48.5s48.5,21.8,48.5,48.5S87.9,493.5,61.1,493.5z
			"/>
		<path fill="#555555" d="M61.1,398c25.9,0,47,21.1,47,47s-21.1,47-47,47c-25.9,0-47-21.1-47-47S35.2,398,61.1,398 M61.1,395
			c-27.6,0-50,22.4-50,50s22.4,50,50,50c27.6,0,50-22.4,50-50S88.7,395,61.1,395L61.1,395z"/>
	</g>
	<g>
		<path fill="#DDDDDD" d="M61.1,443.5c-26.7,0-48.5-21.8-48.5-48.5s21.8-48.5,48.5-48.5s48.5,21.8,48.5,48.5S87.9,443.5,61.1,443.5z
			"/>
		<path fill="#0E72A6" d="M61.1,348c25.9,0,47,21.1,47,47s-21.1,47-47,47c-25.9,0-47-21.1-47-47S35.2,348,61.1,348 M61.1,345
			c-27.6,0-50,22.4-50,50s22.4,50,50,50c27.6,0,50-22.4,50-50S88.7,345,61.1,345L61.1,345z"/>
	</g>
	<g>
		<path fill="#EEEEEE" d="M61.1,393.5c-26.7,0-48.5-21.8-48.5-48.5s21.8-48.5,48.5-48.5s48.5,21.8,48.5,48.5S87.9,393.5,61.1,393.5z
			"/>
		<path fill="#2BA8EA" d="M61.1,298c25.9,0,47,21.1,47,47s-21.1,47-47,47c-25.9,0-47-21.1-47-47S35.2,298,61.1,298 M61.1,295
			c-27.6,0-50,22.4-50,50s22.4,50,50,50c27.6,0,50-22.4,50-50S88.7,295,61.1,295L61.1,295z"/>
	</g>
	<g>
		<path fill="#FFFFFF" d="M61.1,343.5c-26.7,0-48.5-21.8-48.5-48.5s21.8-48.5,48.5-48.5s48.5,21.8,48.5,48.5S87.9,343.5,61.1,343.5z
			"/>
		<path fill="#108ACA" d="M61.1,248c25.9,0,47,21.1,47,47s-21.1,47-47,47c-25.9,0-47-21.1-47-47S35.2,248,61.1,248 M61.1,245
			c-27.6,0-50,22.4-50,50s22.4,50,50,50c27.6,0,50-22.4,50-50S88.7,245,61.1,245L61.1,245z"/>
	</g>
	<circle fill="#628FB8" cx="61.1" cy="245" r="50"/>
	<circle fill="#0E72A6" cx="61.1" cy="195" r="50"/>
	<circle fill="#2BA8EA" cx="61.1" cy="145" r="50"/>
	<circle fill="#108ACA" cx="61.1" cy="95" r="50"/>
</g>
<g>
	<circle fill="#D66D54" cx="183.3" cy="445" r="50"/>
	<circle fill="#A12609" cx="183.3" cy="395" r="50"/>
	<circle fill="#DA4D2C" cx="183.3" cy="345" r="50"/>
	<circle fill="#BC3414" cx="183.3" cy="295" r="50"/>
	<circle fill="#C0C169" cx="183.3" cy="245" r="50"/>
	<circle fill="#9C9E02" cx="183.3" cy="195" r="50"/>
	<circle fill="#DADC1D" cx="183.3" cy="145" r="50"/>
	<circle fill="#B8BA02" cx="183.3" cy="95" r="50"/>
</g>
<g>
	<circle fill="#DA4D2C" cx="427.8" cy="245" r="50"/>
	<circle fill="#BC3414" cx="427.8" cy="195" r="50"/>
	<circle fill="#DADC1D" cx="427.8" cy="145" r="50"/>
	<circle fill="#B8BA02" cx="427.8" cy="95" r="50"/>
</g>
<g>
	<circle fill="#FA9B36" cx="305.6" cy="445" r="50"/>
	<circle fill="#E27E14" cx="305.6" cy="395" r="50"/>
	<circle fill="#DADC1D" cx="305.6" cy="345" r="50"/>
	<circle fill="#B8BA02" cx="305.6" cy="295" r="50"/>
	<circle fill="#DA4D2C" cx="305.6" cy="245" r="50"/>
	<circle fill="#BC3414" cx="305.6" cy="195" r="50"/>
	<circle fill="#2BA8EA" cx="305.6" cy="145" r="50"/>
	<circle fill="#108ACA" cx="305.6" cy="95" r="50"/>
</g>
<text transform="matrix(1 0 0 1 45.498 16)"><tspan x="0" y="0" fill="#FFFFFF" font-family="'Raleway'" font-size="14">Primárias, Secundárias</tspan><tspan x="30.3" y="16.8" fill="#FFFFFF" font-family="'Raleway'" font-size="14">e Contextuais</tspan></text>
<text transform="matrix(1 0 0 1 278.2142 16)" fill="#FFFFFF" font-family="'Raleway'" font-size="14">Gráficos</text>
<text transform="matrix(1 0 0 1 386.3525 16)" fill="#FFFFFF" font-family="'Raleway'" font-size="14">Velocímetro</text>
</svg>
